<svg version="1.1" xmlns="http://www.w3.org/2000/svg" xmlns:xlink="http://www.w3.org/1999/xlink" width="1115" height="958"><desc>title%20Generic%20Domain-Driven%20Scenario%0A%0Aparticipant%20%22API%20Client%22%20as%20client%0Aparticipantgroup%20WebAPI%5CnLayer%0Aparticipant%20%22Controller%22%20as%20api%0Aend%0Aparticipantgroup%20Application%5CnLayer%0Aparticipant%20%22Application%5CnService%22%20as%20appservice%0Aparticipant%20%22Repository%22%20as%20repository%0Aend%0Aparticipantgroup%20Domain%5CnLayer%0Aparticipant%20%22Aggregate%5CnRoot%22%20as%20aggregateroot%0Aparticipant%20%22Domain%5CnService%22%20as%20domainservice%0Aend%0Aparticipantgroup%20Infrastructure%5CnLayer%0Aparticipant%20%22Infrastructure%5CnService%22%20as%20infservice%0Aparticipant%20%22Data%5CnService%22%20as%20dataservice%0Aend%0Adatabase%20Database%0A%0Aclient-%3Eapi%3A%0Aactivate%20api%0Aapi-%3Eappservice%3A%0Aactivate%20appservice%0Aappservice-%3E(1)repository%3A%0Aactivate%20repository%0Arepository-%3E(1)dataservice%3A%0Aactivate%20dataservice%0Adataservice-%3EDatabase%3A%0Adataservice%3C--Database%3A%0Arepository%3C--dataservice%3A%0Adeactivateafter%20dataservice%0Adeactivateafter%20repository%0Aappservice-%3Eaggregateroot%3A%0Aactivate%20aggregateroot%0Aappservice%3C--aggregateroot%3A%0Aappservice-%3Edomainservice%3A%0Aactivate%20domainservice%0Aappservice%3C-domainservice%3A%0Adeactivateafter%20domainservice%0Adeactivateafter%20aggregateroot%0Aappservice-%3Einfservice%3A%0Aactivate%20infservice%0Aappservice%3C--infservice%3A%0Aapi%3C--appservice%3A%0Adeactivateafter%20infservice%0Adeactivateafter%20appservice%0Aclient%3C--api%3Arespond%0Adeactivateafter%20api%0A</desc><defs/><g><g/><g/><g/><g/><g/><g/><g/><g/><g/><g/><g/><g/><g/><g/><g/><g/><g/><g/><g/><g/><g/><g/><g/><g/><g/><g/><g/><g/><g/><g/><g/><g/><g/><g/><g/><g/><g><rect fill="white" stroke="none" x="0" y="0" width="1115" height="958"/></g><g><text fill="black" stroke="none" font-family="sans-serif" font-size="16.5pt" font-style="normal" font-weight="normal" text-decoration="normal" x="396.15525839390307" y="24.50280495" text-anchor="start" dominant-baseline="alphabetic" xml:space="preserve">Generic Domain-Driven Scenario</text></g><g><g><path fill="none" stroke="black" paint-order="fill stroke markers" d=" M 155.02087775494664 83.55456487950002 L 270.35390251379823 83.55456487950002 L 270.35390251379823 950.5454800269996 L 155.02087775494664 950.5454800269996 L 155.02087775494664 83.55456487950002" stroke-miterlimit="10" stroke-width="1.3612669416666667" stroke-dasharray=""/></g><g><text fill="black" stroke="none" font-family="sans-serif" font-size="11pt" font-style="normal" font-weight="normal" text-decoration="normal" x="185.93363647226306" y="106.42384949950002" text-anchor="start" dominant-baseline="alphabetic" xml:space="preserve">WebAPI</text><text fill="black" stroke="none" font-family="sans-serif" font-size="11pt" font-style="normal" font-weight="normal" text-decoration="normal" x="185.93363647226306" y="122.75905279950003" text-anchor="start" dominant-baseline="alphabetic" xml:space="preserve">Layer</text></g><g><path fill="none" stroke="black" paint-order="fill stroke markers" d=" M 286.6891058137982 67.2193615795 L 532.043769223103 67.2193615795 L 532.043769223103 950.5454800269996 L 286.6891058137982 950.5454800269996 L 286.6891058137982 67.2193615795" stroke-miterlimit="10" stroke-width="1.3612669416666667" stroke-dasharray=""/></g><g><text fill="black" stroke="none" font-family="sans-serif" font-size="11pt" font-style="normal" font-weight="normal" text-decoration="normal" x="373.50747450575534" y="90.0886461995" text-anchor="start" dominant-baseline="alphabetic" xml:space="preserve">Application</text><text fill="black" stroke="none" font-family="sans-serif" font-size="11pt" font-style="normal" font-weight="normal" text-decoration="normal" x="373.50747450575534" y="106.42384949950001" text-anchor="start" dominant-baseline="alphabetic" xml:space="preserve">Layer</text></g><g><path fill="none" stroke="black" paint-order="fill stroke markers" d=" M 548.3789725231029 67.2193615795 L 770.111626655064 67.2193615795 L 770.111626655064 950.5454800269996 L 548.3789725231029 950.5454800269996 L 548.3789725231029 67.2193615795" stroke-miterlimit="10" stroke-width="1.3612669416666667" stroke-dasharray=""/></g><g><text fill="black" stroke="none" font-family="sans-serif" font-size="11pt" font-style="normal" font-weight="normal" text-decoration="normal" x="633.987609159396" y="90.0886461995" text-anchor="start" dominant-baseline="alphabetic" xml:space="preserve">Domain</text><text fill="black" stroke="none" font-family="sans-serif" font-size="11pt" font-style="normal" font-weight="normal" text-decoration="normal" x="633.987609159396" y="106.42384949950001" text-anchor="start" dominant-baseline="alphabetic" xml:space="preserve">Layer</text></g><g><path fill="none" stroke="black" paint-order="fill stroke markers" d=" M 786.4468299550639 67.2193615795 L 1025.2588908253063 67.2193615795 L 1025.2588908253063 950.5454800269996 L 786.4468299550639 950.5454800269996 L 786.4468299550639 67.2193615795" stroke-miterlimit="10" stroke-width="1.3612669416666667" stroke-dasharray=""/></g><g><text fill="black" stroke="none" font-family="sans-serif" font-size="11pt" font-style="normal" font-weight="normal" text-decoration="normal" x="862.6710671772944" y="90.0886461995" text-anchor="start" dominant-baseline="alphabetic" xml:space="preserve">Infrastructure</text><text fill="black" stroke="none" font-family="sans-serif" font-size="11pt" font-style="normal" font-weight="normal" text-decoration="normal" x="862.6710671772944" y="106.42384949950001" text-anchor="start" dominant-baseline="alphabetic" xml:space="preserve">Layer</text></g></g><g><path fill="none" stroke="black" paint-order="fill stroke markers" d=" M 58.48255241848829 182.790924927 L 58.48255241848829 950.5454800269996" stroke-miterlimit="10" stroke-width="1.3612669416666667" stroke-dasharray="12.565541,5.445067766666667"/><path fill="none" stroke="black" paint-order="fill stroke markers" d=" M 212.68739013437244 182.790924927 L 212.68739013437244 950.5454800269996" stroke-miterlimit="10" stroke-width="1.3612669416666667" stroke-dasharray="12.565541,5.445067766666667"/><path fill="none" stroke="black" paint-order="fill stroke markers" d=" M 348.43936605699355 182.790924927 L 348.43936605699355 950.5454800269996" stroke-miterlimit="10" stroke-width="1.3612669416666667" stroke-dasharray="12.565541,5.445067766666667"/><path fill="none" stroke="black" paint-order="fill stroke markers" d=" M 471.1166977616459 182.790924927 L 471.1166977616459 950.5454800269996" stroke-miterlimit="10" stroke-width="1.3612669416666667" stroke-dasharray="12.565541,5.445067766666667"/><path fill="none" stroke="black" paint-order="fill stroke markers" d=" M 608.096311928896 182.790924927 L 608.096311928896 950.5454800269996" stroke-miterlimit="10" stroke-width="1.3612669416666667" stroke-dasharray="12.565541,5.445067766666667"/><path fill="none" stroke="black" paint-order="fill stroke markers" d=" M 718.9626389948764 182.790924927 L 718.9626389948764 950.5454800269996" stroke-miterlimit="10" stroke-width="1.3612669416666667" stroke-dasharray="12.565541,5.445067766666667"/><path fill="none" stroke="black" paint-order="fill stroke markers" d=" M 855.5199203984546 182.790924927 L 855.5199203984546 950.5454800269996" stroke-miterlimit="10" stroke-width="1.3612669416666667" stroke-dasharray="12.565541,5.445067766666667"/><path fill="none" stroke="black" paint-order="fill stroke markers" d=" M 974.9259508335757 182.790924927 L 974.9259508335757 950.5454800269996" stroke-miterlimit="10" stroke-width="1.3612669416666667" stroke-dasharray="12.565541,5.445067766666667"/><path fill="none" stroke="black" paint-order="fill stroke markers" d=" M 1074.264500725306 182.790924927 L 1074.264500725306 950.5454800269996" stroke-miterlimit="10" stroke-width="1.3612669416666667" stroke-dasharray="12.565541,5.445067766666667"/></g><g><path fill="none" stroke="none"/><g><path fill="white" stroke="black" paint-order="fill stroke markers" d=" M 8.167601650000002 138.84922805000002 L 108.79750318697657 138.84922805000002 L 108.79750318697657 182.79092492700002 L 8.167601650000002 182.79092492700002 L 8.167601650000002 138.84922805000002 Z" stroke-miterlimit="10" stroke-width="2.613632528" stroke-dasharray=""/></g><g><text fill="black" stroke="none" font-family="sans-serif" font-size="11pt" font-style="normal" font-weight="normal" text-decoration="normal" x="25.891297230500008" y="166.455721627" text-anchor="start" dominant-baseline="alphabetic" xml:space="preserve">API Client</text></g><path fill="none" stroke="none"/><g><path fill="white" stroke="black" paint-order="fill stroke markers" d=" M 163.18847940494663 138.84922805000002 L 262.18630086379824 138.84922805000002 L 262.18630086379824 182.79092492700002 L 163.18847940494663 182.79092492700002 L 163.18847940494663 138.84922805000002 Z" stroke-miterlimit="10" stroke-width="2.613632528" stroke-dasharray=""/></g><g><text fill="black" stroke="none" font-family="sans-serif" font-size="11pt" font-style="normal" font-weight="normal" text-decoration="normal" x="180.91217498544665" y="166.455721627" text-anchor="start" dominant-baseline="alphabetic" xml:space="preserve">Controller</text></g><path fill="none" stroke="none"/><g><path fill="white" stroke="black" paint-order="fill stroke markers" d=" M 294.8567074637982 122.51402475 L 402.0220246501889 122.51402475 L 402.0220246501889 182.790924927 L 294.8567074637982 182.790924927 L 294.8567074637982 122.51402475 Z" stroke-miterlimit="10" stroke-width="2.613632528" stroke-dasharray=""/></g><g><text fill="black" stroke="none" font-family="sans-serif" font-size="11pt" font-style="normal" font-weight="normal" text-decoration="normal" x="312.58040304429824" y="150.12051832699998" text-anchor="start" dominant-baseline="alphabetic" xml:space="preserve">Application</text><text fill="black" stroke="none" font-family="sans-serif" font-size="11pt" font-style="normal" font-weight="normal" text-decoration="normal" x="323.9977232957631" y="166.45572162699997" text-anchor="start" dominant-baseline="alphabetic" xml:space="preserve">Service</text></g><path fill="none" stroke="none"/><g><path fill="white" stroke="black" paint-order="fill stroke markers" d=" M 418.35722795018887 138.84922805000002 L 523.876167573103 138.84922805000002 L 523.876167573103 182.79092492700002 L 418.35722795018887 182.79092492700002 L 418.35722795018887 138.84922805000002 Z" stroke-miterlimit="10" stroke-width="2.613632528" stroke-dasharray=""/></g><g><text fill="black" stroke="none" font-family="sans-serif" font-size="11pt" font-style="normal" font-weight="normal" text-decoration="normal" x="436.0809235306889" y="166.455721627" text-anchor="start" dominant-baseline="alphabetic" xml:space="preserve">Repository</text></g><path fill="none" stroke="none"/><g><path fill="white" stroke="black" paint-order="fill stroke markers" d=" M 556.546574173103 122.51402475 L 659.6460496846889 122.51402475 L 659.6460496846889 182.790924927 L 556.546574173103 182.790924927 L 556.546574173103 122.51402475 Z" stroke-miterlimit="10" stroke-width="2.613632528" stroke-dasharray=""/></g><g><text fill="black" stroke="none" font-family="sans-serif" font-size="11pt" font-style="normal" font-weight="normal" text-decoration="normal" x="574.270269753603" y="150.12051832699998" text-anchor="start" dominant-baseline="alphabetic" xml:space="preserve">Aggregate</text><text fill="black" stroke="none" font-family="sans-serif" font-size="11pt" font-style="normal" font-weight="normal" text-decoration="normal" x="592.6131347438373" y="166.45572162699997" text-anchor="start" dominant-baseline="alphabetic" xml:space="preserve">Root</text></g><path fill="none" stroke="none"/><g><path fill="white" stroke="black" paint-order="fill stroke markers" d=" M 675.9812529846889 122.51402475 L 761.944025005064 122.51402475 L 761.944025005064 182.790924927 L 675.9812529846889 182.790924927 L 675.9812529846889 122.51402475 Z" stroke-miterlimit="10" stroke-width="2.613632528" stroke-dasharray=""/></g><g><text fill="black" stroke="none" font-family="sans-serif" font-size="11pt" font-style="normal" font-weight="normal" text-decoration="normal" x="693.7049485651889" y="150.12051832699998" text-anchor="start" dominant-baseline="alphabetic" xml:space="preserve">Domain</text><text fill="black" stroke="none" font-family="sans-serif" font-size="11pt" font-style="normal" font-weight="normal" text-decoration="normal" x="694.520996233646" y="166.45572162699997" text-anchor="start" dominant-baseline="alphabetic" xml:space="preserve">Service</text></g><path fill="none" stroke="none"/><g><path fill="white" stroke="black" paint-order="fill stroke markers" d=" M 794.6144316050639 122.51402475 L 916.4254091918452 122.51402475 L 916.4254091918452 182.790924927 L 794.6144316050639 182.790924927 L 794.6144316050639 122.51402475 Z" stroke-miterlimit="10" stroke-width="2.613632528" stroke-dasharray=""/></g><g><text fill="black" stroke="none" font-family="sans-serif" font-size="11pt" font-style="normal" font-weight="normal" text-decoration="normal" x="812.338127185564" y="150.12051832699998" text-anchor="start" dominant-baseline="alphabetic" xml:space="preserve">Infrastructure</text><text fill="black" stroke="none" font-family="sans-serif" font-size="11pt" font-style="normal" font-weight="normal" text-decoration="normal" x="831.0782776372241" y="166.45572162699997" text-anchor="start" dominant-baseline="alphabetic" xml:space="preserve">Service</text></g><path fill="none" stroke="none"/><g><path fill="white" stroke="black" paint-order="fill stroke markers" d=" M 932.7606124918452 122.51402475 L 1017.0912891753062 122.51402475 L 1017.0912891753062 182.790924927 L 932.7606124918452 182.790924927 L 932.7606124918452 122.51402475 Z" stroke-miterlimit="10" stroke-width="2.613632528" stroke-dasharray=""/></g><g><text fill="black" stroke="none" font-family="sans-serif" font-size="11pt" font-style="normal" font-weight="normal" text-decoration="normal" x="959.4427736485171" y="150.12051832699998" text-anchor="start" dominant-baseline="alphabetic" xml:space="preserve">Data</text><text fill="black" stroke="none" font-family="sans-serif" font-size="11pt" font-style="normal" font-weight="normal" text-decoration="normal" x="950.4843080723452" y="166.45572162699997" text-anchor="start" dominant-baseline="alphabetic" xml:space="preserve">Service</text></g><g><path fill="white" stroke="black" paint-order="fill stroke markers" d=" M 1050.415103907306 150.773926459 L 1050.415103907306 116.469999529 L 1098.1138975433062 116.469999529 L 1098.1138975433062 150.773926459" stroke-miterlimit="10" stroke-width="2.7769845610000004" stroke-dasharray=""/><path fill="white" stroke="black" paint-order="fill stroke markers" d=" M 1098.1138975433062 115.2775296881 L 1098.1127050834025 115.38534023301662 L 1098.1091278229364 115.4931399969686 L 1098.103166119631 115.60091820006936 L 1098.0948205696518 115.7086640645884 L 1098.0840920075466 115.81636681602909 L 1098.0709815061628 115.92401568420601 L 1098.0554903765394 116.03159990432205 L 1098.0376201677768 116.13910871804485 L 1098.0173726668809 116.24653137458266 L 1097.9947498985846 116.3538571317593 L 1097.9697541251462 116.46107525708852 L 1097.9423878461223 116.56817502884712 L 1097.9126537981176 116.67514573714719 L 1097.8805549545125 116.78197668500702 L 1097.8460945251643 116.88865718942087 L 1097.8092759560875 116.99517658242718 L 1097.7701029291084 117.10152421217543 L 1097.7285793614965 117.20768944399126 L 1097.6847094055745 117.31366166143997 L 1097.6384974483012 117.41943026738811 L 1097.5899481108338 117.52498468506323 L 1097.5390662480659 117.63031435911152 L 1097.4858569481407 117.73540875665337 L 1097.4303255319446 117.8402573683366 L 1097.3724775525727 117.94484970938738 L 1097.3123187947745 118.0491753206588 L 1097.2498552743757 118.15322376967667 L 1097.1850932376767 118.25698465168279 L 1097.1180391608266 118.3604475906754 L 1097.0486997491776 118.46360224044686 L 1096.977081936613 118.56643828561813 L 1096.9031928848544 118.6689454426704 L 1096.8270399827452 118.77111346097338 L 1096.7486308455125 118.87293212381039 L 1096.6679733140045 118.97439124939999 L 1096.585075453907 119.07548069191415 L 1096.499945554937 119.17619034249289 L 1096.4125921300138 119.27651013025506 L 1096.3230239144066 119.37643002330549 L 1096.2312498648623 119.47594002973813 L 1096.13727915871 119.57503019863528 L 1096.0411211929415 119.6736906210626 L 1095.9427855832732 119.7719114310601 L 1095.8422821631846 119.8696828066286 L 1095.7396209829333 119.96699497071202 L 1095.6348123085522 120.06383819217507 L 1095.5278666208214 120.16020278677628 L 1095.4187946142206 120.2560791181365 L 1095.3076071958592 120.3514575987025 L 1095.1943154843866 120.4463286907057 L 1095.0789308088797 120.54068290711595 L 1094.9614647077096 120.63451081259025 L 1094.8419289273888 120.72780302441623 L 1094.7203354213955 120.82055021345047 L 1094.596696348979 120.91274310505133 L 1094.4710240739437 121.00437248000651 L 1094.3433311634121 121.09542917545484 L 1094.2136303865693 121.18590408580266 L 1094.0819347133843 121.27578816363435 L 1093.948257313315 121.36507242061701 L 1093.81261155399 121.45374792839937 L 1093.6750109998723 121.54180581950452 L 1093.5354694109024 121.62923728821674 L 1093.3940007411231 121.71603359146202 L 1093.2506191372834 121.80218604968238 L 1093.105338937424 121.88768604770375 L 1092.9581746694444 121.97252503559763 L 1092.8091410496481 122.05669452953589 L 1092.6582529812733 122.1401861126393 L 1092.505525553001 122.22299143581911 L 1092.3509740374466 122.30510221861202 L 1092.194613889633 122.38651025000817 L 1092.0364607454449 122.46720738927226 L 1091.8765304200647 122.5471855667576 L 1091.7148389063914 122.62643678471312 L 1091.551402373442 122.70495311808304 L 1091.3862371647335 122.78272671529945 L 1091.2193597966493 122.85974979906746 L 1091.0507869567869 122.93601466714287 L 1090.8805355022896 123.01151369310242 L 1090.7086224581615 123.08623932710643 L 1090.5350650155635 123.16018409665378 L 1090.359880530095 123.23334060732914 L 1090.183086520059 123.30570154354238 L 1090.004700664709 123.37725966926021 L 1089.8247408024818 123.44800782872969 L 1089.6432249292136 123.51793894719378 L 1089.4601711963408 123.58704603159897 L 1089.2755979090837 123.65532217129439 L 1089.0895235246176 123.72276053872295 L 1088.9019666502256 123.78935439010411 L 1088.712946041439 123.85509706610824 L 1088.522480600161 123.91998199252252 L 1088.3305893727772 123.98400268090838 L 1088.1372915482505 124.04715272925033 L 1087.942606456202 124.10942582259615 L 1087.7465535649787 124.17081573368841 L 1087.5491524797067 124.23131632358717 L 1087.3504229403295 124.29092154228384 L 1087.1503848196357 124.34962542930622 L 1086.9490581212708 124.40742211431454 L 1086.7464629777367 124.46430581768846 L 1086.542619648379 124.52027085110502 L 1086.3375485173606 124.57531161810756 L 1086.131270091624 124.62942261466523 L 1085.9238049988396 124.68259842972344 L 1085.7151739853439 124.73483374574504 L 1085.5053979140644 124.78612333924193 L 1085.2944977624334 124.8364620812975 L 1085.0824946202904 124.8858449380795 L 1084.8694096877728 124.93426697134342 L 1084.6552642731963 124.98172333892626 L 1084.440079790924 125.02820929523081 L 1084.223877759225 125.0737201917002 L 1084.0066797981217 125.11825147728268 L 1083.7885076272296 125.16179869888683 L 1083.5693830635842 125.20435750182676 L 1083.3493280194589 125.24592363025765 L 1083.1283645001747 125.28649292760129 L 1082.9065146018997 125.32606133696174 L 1082.6838005094387 125.36462490153107 L 1082.4602444940153 125.40217976498494 L 1082.2358689110447 125.43872217186829 L 1082.0106961978984 125.47424846797091 L 1081.78474887166 125.50875510069277 L 1081.558049526874 125.54223861939937 L 1081.3306208332854 125.57469567576673 L 1081.1024855335747 125.60612302411627 L 1080.8736664410812 125.63651752173934 L 1080.644186437524 125.66587612921151 L 1080.414068470712 125.6941959106965 L 1080.18333555225 125.72147403423973 L 1079.9520107552376 125.74770777205163 L 1079.7201172119617 125.77289450078025 L 1079.4876781115836 125.7970317017737 L 1079.2547166978195 125.82011696133202 L 1079.0212562666165 125.84214797094847 L 1078.7873201638236 125.86312252754045 L 1078.5529317828557 125.88303853366979 L 1078.3181145623557 125.90189399775247 L 1078.08289198385 125.91968703425778 L 1077.8472875694004 125.93641586389691 L 1077.6113248792522 125.95207881380085 L 1077.3750275094774 125.96667431768763 L 1077.1384190896163 125.98020091601906 L 1076.9015232803138 125.99265725614656 L 1076.6643637709533 126.00404209244648 L 1076.426964277288 126.01435428644471 L 1076.1893485390697 126.02359280693042 L 1075.951540317674 126.03175673005929 L 1075.713563393725 126.03884523944578 L 1075.4754415647167 126.04485762624486 L 1075.2371986426333 126.04979328922288 L 1074.998858451569 126.05365173481763 L 1074.760444825344 126.05643257718779 L 1074.5219816051224 126.05813553825143 L 1074.2834926370272 126.05876044771387 L 1074.0450017697567 126.05830724308466 L 1073.8065328521989 126.05677596968391 L 1073.5681097310467 126.05416678063769 L 1073.3297562484136 126.0504799368627 L 1073.0914962394493 126.04571580704027 L 1072.853353529956 126.0398748675794 L 1072.6153519340062 126.03295770256918 L 1072.3775152515614 126.02496500372034 L 1072.1398672660914 126.01589757029609 L 1071.902431742197 126.00575630903225 L 1071.6652324232323 125.99454223404646 L 1071.4282930289319 125.9822564667369 L 1071.1916372530375 125.96890023567005 L 1070.9552887609298 125.95447487645788 L 1070.7192711872608 125.93898183162432 L 1070.4836081335911 125.9224226504609 L 1070.24832316603 125.90479898887196 L 1070.013439812878 125.88611260920898 L 1069.7789815622748 125.86636538009435 L 1069.5449718598497 125.84555927623451 L 1069.3114341063786 125.82369637822252 L 1069.0783916554415 125.80077887232996 L 1068.8458678110899 125.77680905028832 L 1068.613885825514 125.75178930905984 L 1068.3824688967193 125.72572215059779 L 1068.1516401662059 125.69861018159627 L 1067.9214227166542 125.67045611322962 L 1067.6918395696177 125.64126276088119 L 1067.4629136832195 125.61103304386191 L 1067.2346679498576 125.57976998511826 L 1067.0071251939148 125.54747671093008 L 1066.7803081694776 125.5141564505979 L 1066.554239558059 125.47981253611995 L 1066.328941966332 125.44444840185908 L 1066.104437923868 125.40806758419922 L 1065.8807498808842 125.37067372119185 L 1065.6579002059982 125.3322705521921 L 1065.4359111839922 125.29286191748486 L 1065.214805013583 125.25245175790076 L 1064.9946038052037 125.21104411442208 L 1064.7753295787913 125.16864312777868 L 1064.5570042615861 125.12525303803388 L 1064.339649685938 125.0808781841605 L 1064.1232875871228 125.03552300360693 L 1063.9079396011705 124.98919203185345 L 1063.6936272627001 124.94188990195862 L 1063.4803720027671 124.893621344096 L 1063.2681951467196 124.84439118508118 L 1063.0571179120664 124.79420434788902 L 1062.847161406355 124.7430658511614 L 1062.638346625061 124.69098080870542 L 1062.4306944494888 124.63795442898189 L 1062.2242256446825 124.58399201458458 L 1062.018960857351 124.52909896170999 L 1061.8149206138014 124.47328075961767 L 1061.6121253178885 124.41654299008127 L 1061.4105952489729 124.3588913268305 L 1061.210350559893 124.30033153498366 L 1061.0114112749516 124.24086947047108 L 1060.8137972879108 124.1805110794497 L 1060.6175283600048 124.1192623977083 L 1060.422624117963 124.05712955006403 L 1060.229104052047 123.99411874974987 L 1060.0369875141023 123.93023629779336 L 1059.8462937156226 123.86548858238643 L 1059.6570417258285 123.79988207824668 L 1059.4692504697616 123.73342334596987 L 1059.282938726391 123.66611903137381 L 1059.0981251267356 123.5979758648339 L 1058.9148281520015 123.52900066061 L 1058.7330661317333 123.45920031616504 L 1058.5528572419817 123.3885818114753 L 1058.3742195034854 123.31715220833243 L 1058.1971707798696 123.2449186496372 L 1058.0217287758587 123.17188835868528 L 1057.8479110355072 123.09806863844491 L 1057.6757349404443 123.02346687082661 L 1057.5052177081361 122.94809051594495 L 1057.3363763901634 122.87194711137262 L 1057.1692278705175 122.79504427138663 L 1057.003788863911 122.71738968620689 L 1056.840075914107 122.63899112122719 L 1056.6781053922637 122.55985641623872 L 1056.5178934952983 122.479993484646 L 1056.3594562442672 122.39941031267568 L 1056.2028094827635 122.31811495857778 L 1056.0479688753326 122.23611555181996 L 1055.8949499059063 122.15342029227457 L 1055.743767876254 122.07003744939865 L 1055.5944379044527 121.98597536140701 L 1055.4469749233751 121.9012424344384 L 1055.3013936791967 121.8158471417149 L 1055.1577087299202 121.7297980226946 L 1055.015934443921 121.64310368221773 L 1054.8760849985094 121.55577278964606 L 1054.7381743785138 121.4678140779961 L 1054.6022163748808 121.3792363430657 L 1054.4682245832978 121.29004844255454 L 1054.336212402832 121.20025929517834 L 1054.2061930345917 121.10987787977703 L 1054.0781794804052 121.01891323441684 L 1053.9521845415213 120.92737445548647 L 1053.8282208173289 120.83527069678756 L 1053.7063007040972 120.74261116861922 L 1053.5864363937358 120.64940513685704 L 1053.4686398725757 120.55566192202654 L 1053.3529229201713 120.46139089837106 L 1053.2392971081213 120.36660149291444 L 1053.1277737989117 120.27130318451822 L 1053.0183641447811 120.17550550293382 L 1052.9110790866034 120.07921802784955 L 1052.8059293527951 119.98245038793272 L 1052.7029254582421 119.88521225986665 L 1052.602077703248 119.78751336738313 L 1052.5033961725037 119.68936348028998 L 1052.406890734081 119.59077241349414 L 1052.3125710384422 119.49175002602011 L 1052.2204465174793 119.39230622002414 L 1052.130526383567 119.29245093980393 L 1052.042819628644 119.19219417080431 L 1051.957335023313 119.09154593861864 L 1051.8740811159626 118.99051630798624 L 1051.7930662319147 118.889115381786 L 1051.71429847259 118.78735330002604 L 1051.6377857146986 118.68524023882972 L 1051.5635356094529 118.58278640941809 L 1051.491555581801 118.4800020570887 L 1051.4218528296865 118.37689746019112 L 1051.354434323326 118.27348292909913 L 1051.289306804514 118.16976880517967 L 1051.226476785948 118.06576545975868 L 1051.165950550578 117.96148329308406 L 1051.1077341509765 117.85693273328555 L 1051.051833408735 117.75212423533202 L 1050.9982539138816 117.64706827998593 L 1050.947001024321 117.54177537275525 L 1050.898079865299 117.43625604284297 L 1050.8514953288914 117.33052084209415 L 1050.8072520735122 117.22458034394076 L 1050.765354523451 117.11844514234431 L 1050.725806868427 117.01212585073652 L 1050.6886130631735 116.90563310095798 L 1050.6537768270396 116.79897754219489 L 1050.62130164362 116.69216983991427 L 1050.5911907604059 116.58522067479731 L 1050.5634471884607 116.47814074167144 L 1050.5380737021183 116.37094074844072 L 1050.5150728387064 116.26363141501513 L 1050.494446898292 116.1562234722386 L 1050.4761979434518 116.04872766081589 L 1050.4603277990664 115.94115473023857 L 1050.4468380521369 115.83351543771006 L 1050.4357300516267 115.72582054706992 L 1050.4270049083266 115.61808082771745 L 1050.4206634947436 115.5103070535348 L 1050.416706445014 115.4025100018096 L 1050.4151341548393 115.29470045215717 L 1050.4159467814472 115.18688918544265 L 1050.4191442435758 115.07908698270286 L 1050.4247262214815 114.97130462406824 L 1050.4326921569711 114.86355288768483 L 1050.443041253458 114.7558425486365 L 1050.4557724760407 114.64818437786737 L 1050.470884551608 114.5405891411048 L 1050.4883759689644 114.43306759778282 L 1050.5082449789832 114.32563049996617 L 1050.53048959478 114.21828859127507 L 1050.5551075919113 114.11105260581097 L 1050.5820965085984 114.00393326708301 L 1050.6114536459718 113.89694128693586 L 1050.6431760683422 113.79008736447831 L 1050.677260603494 113.68338218501361 L 1050.7137038430021 113.57683641897076 L 1050.752502142573 113.47046072083758 L 1050.7936516224086 113.36426572809525 L 1050.8371481675956 113.25826206015454 L 1050.8829874285157 113.15246031729389 L 1050.9311648212808 113.04687107959944 L 1050.981675528192 112.94150490590698 L 1051.0345144982207 112.83637233274605 L 1051.0896764475137 112.73148387328636 L 1051.1471558599223 112.62685001628645 L 1051.2069469875532 112.52248122504484 L 1051.2690438513432 112.41838793635367 L 1051.3334402416576 112.31458055945505 L 1051.4001297189113 112.21106947500019 L 1051.4691056142121 112.10786503401127 L 1051.540361030028 112.00497755684637 L 1051.6138888408766 111.90241733216747 L 1051.6896816940382 111.8001946159116 L 1051.7677320102907 111.69831963026517 L 1051.8480319846674 111.59680256264186 L 1051.9305735872379 111.49565356466383 L 1052.0153485639107 111.39488275114658 L 1052.1023484372586 111.29450019908752 L 1052.191564507367 111.19451594665817 L 1052.282987852703 111.09493999220047 L 1052.3766093310085 110.99578229322687 L 1052.4724195802137 110.89705276542465 L 1052.5704090193733 110.79876128166431 L 1052.670567849625 110.70091767101232 L 1052.7728860551695 110.60353171774821 L 1052.8773534042714 110.50661316038615 L 1052.9839594502828 110.4101716907011 L 1053.0926935326881 110.3142169527597 L 1053.2035447781695 110.21875854195572 L 1053.3165021016948 110.12380600405075 L 1053.4315542076258 110.02936883421941 L 1053.548689590848 109.93545647610003 L 1053.6678965379206 109.84207832085012 L 1053.789163128248 109.74924370620741 L 1053.9124772352723 109.656961915556 L 1054.0378265276859 109.56524217699805 L 1054.1651984706634 109.47409366243099 L 1054.2945803271173 109.38352548663032 L 1054.4259591589694 109.29354670633813 L 1054.559321828446 109.2041663193575 L 1054.6946549993913 109.1153932636526 L 1054.8319451386012 109.02723641645508 L 1054.971178517176 108.93970459337615 L 1055.1123412118939 108.85280654752518 L 1055.255419106603 108.76655096863436 L 1055.4003978936332 108.68094648218968 L 1055.5472630752265 108.59600164856846 L 1055.695999964987 108.51172496218328 L 1055.8465936893501 108.42812485063253 L 1055.9990291890683 108.34520967385771 L 1056.1532912207192 108.2629877233074 L 1056.3093643582279 108.18146722110814 L 1056.4672329944108 108.1006563192422 L 1056.6268813425356 108.02056309873245 L 1056.7882934379008 107.94119556883419 L 1056.9514531394311 107.86256166623426 L 1057.1163441312929 107.7846692542574 L 1057.2829499245238 107.70752612207988 L 1057.4512538586835 107.63113998395067 L 1057.6212391035187 107.55551847841988 L 1057.7928886606471 107.48066916757509 L 1057.9661853652553 107.40659953628499 L 1058.141111887818 107.33331699145097 L 1058.317650735828 107.26082886126648 L 1058.4957842555482 107.1891423944841 L 1058.6754946337746 107.11826475969077 L 1058.8567638996196 107.04820304459093 L 1059.0395739263074 106.97896425529768 L 1059.2239064329876 106.91055531563228 L 1059.4097429865633 106.84298306643166 L 1059.5970650035338 106.77625426486443 L 1059.785853751854 106.71037558375518 L 1059.9760903528056 106.64535361091707 L 1060.1677557828878 106.58119484849323 L 1060.3608308757168 106.51790571230643 L 1060.5552963239445 106.45549253121754 L 1060.751132681188 106.39396154649268 L 1060.948320363975 106.33331891117902 L 1061.1468396537011 106.27357068948956 L 1061.346670698603 106.2147228561967 L 1061.547793515743 106.15678129603472 L 1061.7501879930066 106.09975180311135 L 1061.9538338911148 106.04364008032834 L 1062.1587108456476 105.98845173881124 L 1062.3647983690803 105.93419229734818 L 1062.5720758528323 105.88086718183811 L 1062.7805225693278 105.82848172474814 L 1062.9901176740689 105.77704116458034 L 1063.20084020772 105.72655064534784 L 1063.412669098203 105.67701521606048 L 1063.6255831628055 105.62843983021993 L 1063.8395611102985 105.58082934532429 L 1064.0545815430658 105.53418852238237 L 1064.270622959243 105.48852202543759 L 1064.4876637548687 105.4438344211016 L 1064.7056822260438 105.4001301780976 L 1064.9246565711035 105.35741366681344 L 1065.1445648927952 105.3156891588647 L 1065.3653852004704 105.27496082666737 L 1065.587095412282 105.23523274302073 L 1065.8096733573939 105.19650888070004 L 1066.033096778197 105.15879311205927 L 1066.2573433325351 105.12208920864386 L 1066.4823905959402 105.08640084081355 L 1066.708216063873 105.05173157737539 L 1066.9347971539748 105.01808488522684 L 1067.162111208326 104.98546412900906 L 1067.3901354957102 104.9538725707705 L 1067.6188472138886 104.92331336964065 L 1067.8482234918802 104.89378958151417 L 1068.0782413922482 104.86530415874525 L 1068.3088779133943 104.83785994985244 L 1068.5401099918588 104.81145969923377 L 1068.7719145046262 104.78610604689229 L 1069.0042682714386 104.76180152817209 L 1069.2371480571128 104.73854857350481 L 1069.4705305738644 104.71634950816654 L 1069.704392483636 104.6952065520453 L 1069.9387104004318 104.67512181941912 L 1070.1734608926554 104.65609731874447 L 1070.408620485453 104.6381349524556 L 1070.6441656630614 104.62123651677416 L 1070.880072871159 104.60540370152964 L 1071.1163185192217 104.59063808999038 L 1071.3528789828815 104.5769411587052 L 1071.5897306062893 104.56431427735583 L 1071.8268497044799 104.5527587086199 L 1072.0642125657414 104.54227560804463 L 1072.301795453985 104.53286602393135 L 1072.5395746111205 104.52453089723063 L 1072.7775262594298 104.5172710614482 L 1073.0156266039467 104.51108724256159 L 1073.2538518348347 104.5059800589475 L 1073.4921781297696 104.50195002132008 L 1073.7305816563207 104.49899753267972 L 1073.9690385743336 104.49712288827283 L 1074.2075250383155 104.49632627556227 L 1074.4460171998185 104.49660777420866 L 1074.6844912098254 104.49796735606236 L 1074.9229232211337 104.50040488516633 L 1075.161289390741 104.5039201177697 L 1075.3995658822296 104.5085127023521 L 1075.6377288681479 104.51418217965895 L 1075.8757545323965 104.5209279827472 L 1076.113619072607 104.52874943704218 L 1076.3512987025238 104.53764576040498 L 1076.5887696543816 104.54761606321068 L 1076.8260081812837 104.5586593484373 L 1077.0629905595747 104.57077451176553 L 1077.2996930912143 104.58396034168912 L 1077.5360921061465 104.59821551963608 L 1077.772163964667 104.61353862010048 L 1078.0078850597868 104.62992811078506 L 1078.2432318195924 104.64738235275439 L 1078.4781807096042 104.66589960059883 L 1078.7127082351292 104.68547800260903 L 1078.9467909436098 104.7061156009611 L 1079.1804054269705 104.7278103319124 L 1079.4135283239577 104.7505600260079 L 1079.6461363224757 104.77436240829718 L 1079.8782061619188 104.79921509856183 L 1080.1097146354964 104.82511561155353 L 1080.3406385925537 104.85206135724258 L 1080.570954940888 104.88004964107684 L 1080.8006406490558 104.90907766425126 L 1081.0296727486782 104.93914252398773 L 1081.2580283367358 104.9702412138253 L 1081.4856845778604 105.00237062392094 L 1081.7126187066171 105.03552754136038 L 1081.9388080297826 105.06970865047953 L 1082.1642299286127 105.10491053319595 L 1082.3888618611059 105.1411296693507 L 1082.6126813642554 105.17836243706036 L 1082.835666056298 105.21660511307917 L 1083.05779363895 105.25585387317142 L 1083.2790418996385 105.29610479249378 L 1083.4993887137216 105.33735384598788 L 1083.7188120467015 105.37959690878274 L 1083.937289956428 105.42282975660729 L 1084.1548005952918 105.46704806621275 L 1084.3713222124106 105.51224741580504 L 1084.586833155803 105.55842328548684 L 1084.8013118745544 105.60557105770968 L 1085.0147369209712 105.65368601773561 L 1085.2270869527272 105.70276335410874 L 1085.4383407349958 105.75279815913633 L 1085.648477142575 105.80378542937956 L 1085.8574751619992 105.8557200661539 L 1086.0653138936402 105.90859687603896 L 1086.2719725537986 105.9624105713978 L 1086.4774304767802 106.01715577090575 L 1086.6816671169643 106.07282700008845 L 1086.8846620508566 106.12941869186939 L 1087.0863949791333 106.18692518712656 L 1087.2868457286693 106.24534073525835 L 1087.485994254557 106.30465949475862 L 1087.6838206421096 106.36487553380087 L 1087.8803051088532 106.42598283083136 L 1088.0754280065048 106.48797527517131 L 1088.2691698229376 106.55084666762794 L 1088.461511184131 106.61459072111441 L 1088.6524328561095 106.67920106127849 L 1088.8419157468647 106.74467122714 L 1089.0299409082656 106.8109946717369 L 1089.2164895379526 106.87816476278005 L 1089.4015429812184 106.94617478331625 L 1089.5850827328727 107.01501793240017 L 1089.7670904390934 107.08468732577425 L 1089.9475478992613 107.15517599655723 L 1090.1264370677811 107.22647689594075 L 1090.303740055885 107.29858289389429 L 1090.4794391334217 107.37148677987817 L 1090.6535167306301 107.4451812635645 L 1090.8259554398953 107.51965897556637 L 1090.9967380174903 107.59491246817461 L 1091.1658473852997 107.6709342161027 L 1091.3332666325273 107.74771661723916 L 1091.4989790173881 107.82525199340789 L 1091.662967968782 107.90353259113589 L 1091.8252170879498 107.98255058242859 L 1091.9857101501154 108.06229806555274 L 1092.1444311061061 108.14276706582646 L 1092.3013640839588 108.2239495364168 L 1092.4564933905062 108.30583735914435 L 1092.6098035129469 108.38842234529507 L 1092.7612791203967 108.47169623643916 L 1092.9109050654208 108.55565070525691 L 1093.0586663855497 108.6402773563714 L 1093.204548304774 108.72556772718804 L 1093.348536235024 108.8115132887408 L 1093.4906157776263 108.89810544654519 L 1093.630772724745 108.98533554145756 L 1093.7689930608021 109.07319485054111 L 1093.9052629638795 109.16167458793817 L 1094.0395688071003 109.2507659057487 L 1094.171897159992 109.34045989491518 L 1094.3022347898298 109.43074758611344 L 1094.430568662959 109.52161995064961 L 1094.5568859460998 109.61306790136292 L 1094.6811740076284 109.70508229353456 L 1094.803420418843 109.79765392580197 L 1094.9236129552037 109.89077354107904 L 1095.0417395975571 109.98443182748187 L 1095.157788533338 110.07861941925987 L 1095.2717481577488 110.17332689773234 L 1095.3836070749223 110.26854479223036 L 1095.4933540990603 110.36426358104383 L 1095.6009782555514 110.46047369237363 L 1095.7064687820698 110.5571655052888 L 1095.809815129651 110.65432935068861 L 1095.9110069637459 110.75195551226952 L 1096.0100341652558 110.85003422749672 L 1096.1068868315429 110.94855568858041 L 1096.2015552774212 111.04751004345658 L 1096.2940300361252 111.14688739677221 L 1096.3843018602558 111.2466778108748 L 1096.4723617227062 111.34687130680607 L 1096.5582008175634 111.44745786529992 L 1096.6418105609891 111.54842742778435 L 1096.7231825920792 111.64976989738723 L 1096.802308773698 111.75147513994605 L 1096.8791811932936 111.85353298502133 L 1096.9537921636877 111.95593322691359 L 1097.0261342238457 112.05866562568397 L 1097.096200139622 112.16171990817823 L 1097.163982904483 112.26508576905398 L 1097.229475740209 112.36875287181127 L 1097.2926720975709 112.47271084982621 L 1097.3535656569854 112.57694930738765 L 1097.412150329148 112.68145782073668 L 1097.4684202556396 112.78622593910906 L 1097.5223698095149 112.89124318578025 L 1097.573993595863 112.99649905911312 L 1097.6232864523488 113.10198303360804 L 1097.6702434497272 113.20768456095544 L 1097.7148598923382 113.31359307109071 L 1097.7571313185742 113.41969797325106 L 1097.797053501328 113.52598865703472 L 1097.8346224484146 113.63245449346185 L 1097.8698344029708 113.73908483603756 L 1097.90268584383 113.84586902181645 L 1097.9331734858758 113.95279637246892 L 1097.9612942803697 114.05985619534903 L 1097.9870454152551 114.16703778456366 L 1098.01042431544 114.27433042204326 L 1098.0314286430546 114.38172337861346 L 1098.0500562976827 114.4892059150681 L 1098.066305416575 114.59676728324311 L 1098.080174374833 114.70439672709132 L 1098.0916617855721 114.812083483758 L 1098.1007665000614 114.91981678465726 L 1098.1074876078364 115.02758585654877 L 1098.1118244367926 115.13537992261514 L 1098.11377655325 115.24318820353962 M 1098.1138975433062 149.5814566181 L 1098.1127050834025 149.6892671630166 L 1098.1091278229364 149.7970669269686 L 1098.103166119631 149.90484513006933 L 1098.0948205696518 150.0125909945884 L 1098.0840920075466 150.12029374602906 L 1098.0709815061628 150.227942614206 L 1098.0554903765394 150.33552683432202 L 1098.0376201677768 150.44303564804486 L 1098.0173726668809 150.55045830458263 L 1097.9947498985846 150.6577840617593 L 1097.9697541251462 150.7650021870885 L 1097.9423878461223 150.8721019588471 L 1097.9126537981176 150.97907266714716 L 1097.8805549545125 151.085903615007 L 1097.8460945251643 151.19258411942084 L 1097.8092759560875 151.29910351242717 L 1097.7701029291084 151.40545114217542 L 1097.7285793614965 151.51161637399125 L 1097.6847094055745 151.61758859143995 L 1097.6384974483012 151.72335719738808 L 1097.5899481108338 151.82891161506322 L 1097.5390662480659 151.93424128911153 L 1097.4858569481407 152.03933568665337 L 1097.4303255319446 152.14418429833657 L 1097.3724775525727 152.2487766393874 L 1097.3123187947745 152.3531022506588 L 1097.2498552743757 152.45715069967667 L 1097.1850932376767 152.56091158168277 L 1097.1180391608266 152.6643745206754 L 1097.0486997491776 152.76752917044686 L 1096.977081936613 152.87036521561814 L 1096.9031928848544 152.9728723726704 L 1096.8270399827452 153.07504039097338 L 1096.7486308455125 153.17685905381038 L 1096.6679733140045 153.27831817939997 L 1096.585075453907 153.37940762191414 L 1096.499945554937 153.48011727249286 L 1096.4125921300138 153.58043706025504 L 1096.3230239144066 153.68035695330548 L 1096.2312498648623 153.77986695973811 L 1096.13727915871 153.87895712863528 L 1096.0411211929415 153.9776175510626 L 1095.9427855832732 154.07583836106008 L 1095.8422821631846 154.17360973662858 L 1095.7396209829333 154.270921900712 L 1095.6348123085522 154.36776512217506 L 1095.5278666208214 154.46412971677626 L 1095.4187946142206 154.5600060481365 L 1095.3076071958592 154.65538452870248 L 1095.1943154843866 154.75025562070567 L 1095.0789308088797 154.84460983711594 L 1094.9614647077096 154.93843774259025 L 1094.8419289273888 155.03172995441622 L 1094.7203354213955 155.12447714345046 L 1094.596696348979 155.21667003505132 L 1094.4710240739437 155.3082994100065 L 1094.3433311634121 155.3993561054548 L 1094.2136303865693 155.48983101580265 L 1094.0819347133843 155.57971509363435 L 1093.948257313315 155.668999350617 L 1093.81261155399 155.75767485839935 L 1093.6750109998723 155.8457327495045 L 1093.5354694109024 155.93316421821672 L 1093.3940007411231 156.019960521462 L 1093.2506191372834 156.10611297968236 L 1093.105338937424 156.19161297770376 L 1092.9581746694444 156.27645196559763 L 1092.8091410496481 156.36062145953588 L 1092.6582529812733 156.4441130426393 L 1092.505525553001 156.5269183658191 L 1092.3509740374466 156.60902914861202 L 1092.194613889633 156.69043718000816 L 1092.0364607454449 156.77113431927225 L 1091.8765304200647 156.8511124967576 L 1091.7148389063914 156.9303637147131 L 1091.551402373442 157.00888004808303 L 1091.3862371647335 157.08665364529944 L 1091.2193597966493 157.16367672906745 L 1091.0507869567869 157.23994159714286 L 1090.8805355022896 157.3154406231024 L 1090.7086224581615 157.39016625710642 L 1090.5350650155635 157.46411102665377 L 1090.359880530095 157.53726753732911 L 1090.183086520059 157.6096284735424 L 1090.004700664709 157.6811865992602 L 1089.8247408024818 157.75193475872967 L 1089.6432249292136 157.82186587719377 L 1089.4601711963408 157.89097296159898 L 1089.2755979090837 157.95924910129438 L 1089.0895235246176 158.02668746872294 L 1088.9019666502256 158.0932813201041 L 1088.712946041439 158.15902399610823 L 1088.522480600161 158.22390892252253 L 1088.3305893727772 158.28792961090838 L 1088.1372915482505 158.3510796592503 L 1087.942606456202 158.41335275259615 L 1087.7465535649787 158.4747426636884 L 1087.5491524797067 158.53524325358717 L 1087.3504229403295 158.59484847228381 L 1087.1503848196357 158.65355235930622 L 1086.9490581212708 158.71134904431452 L 1086.7464629777367 158.76823274768844 L 1086.542619648379 158.82419778110503 L 1086.3375485173606 158.87923854810757 L 1086.131270091624 158.93334954466522 L 1085.9238049988396 158.98652535972343 L 1085.7151739853439 159.03876067574504 L 1085.5053979140644 159.0900502692419 L 1085.2944977624334 159.1403890112975 L 1085.0824946202904 159.1897718680795 L 1084.8694096877728 159.2381939013434 L 1084.6552642731963 159.28565026892625 L 1084.440079790924 159.3321362252308 L 1084.223877759225 159.3776471217002 L 1084.0066797981217 159.42217840728267 L 1083.7885076272296 159.46572562888682 L 1083.5693830635842 159.50828443182675 L 1083.3493280194589 159.54985056025762 L 1083.1283645001747 159.59041985760126 L 1082.9065146018997 159.62998826696173 L 1082.6838005094387 159.66855183153106 L 1082.4602444940153 159.70610669498492 L 1082.2358689110447 159.7426491018683 L 1082.0106961978984 159.7781753979709 L 1081.78474887166 159.81268203069277 L 1081.558049526874 159.84616554939936 L 1081.3306208332854 159.8786226057667 L 1081.1024855335747 159.91004995411626 L 1080.8736664410812 159.94044445173932 L 1080.644186437524 159.9698030592115 L 1080.414068470712 159.99812284069648 L 1080.18333555225 160.02540096423974 L 1079.9520107552376 160.05163470205162 L 1079.7201172119617 160.07682143078023 L 1079.4876781115836 160.1009586317737 L 1079.2547166978195 160.124043891332 L 1079.0212562666165 160.14607490094846 L 1078.7873201638236 160.16704945754043 L 1078.5529317828557 160.18696546366976 L 1078.3181145623557 160.20582092775246 L 1078.08289198385 160.22361396425777 L 1077.8472875694004 160.2403427938969 L 1077.6113248792522 160.25600574380084 L 1077.3750275094774 160.27060124768764 L 1077.1384190896163 160.28412784601906 L 1076.9015232803138 160.29658418614653 L 1076.6643637709533 160.30796902244649 L 1076.426964277288 160.3182812164447 L 1076.1893485390697 160.3275197369304 L 1075.951540317674 160.3356836600593 L 1075.713563393725 160.34277216944577 L 1075.4754415647167 160.34878455624485 L 1075.2371986426333 160.35372021922285 L 1074.998858451569 160.35757866481762 L 1074.760444825344 160.36035950718778 L 1074.5219816051224 160.36206246825142 L 1074.2834926370272 160.36268737771385 L 1074.0450017697567 160.36223417308466 L 1073.8065328521989 160.3607028996839 L 1073.5681097310467 160.35809371063766 L 1073.3297562484136 160.3544068668627 L 1073.0914962394493 160.34964273704026 L 1072.853353529956 160.3438017975794 L 1072.6153519340062 160.33688463256917 L 1072.3775152515614 160.3288919337203 L 1072.1398672660914 160.31982450029608 L 1071.902431742197 160.30968323903224 L 1071.6652324232323 160.29846916404645 L 1071.4282930289319 160.28618339673687 L 1071.1916372530375 160.27282716567004 L 1070.9552887609298 160.25840180645787 L 1070.7192711872608 160.2429087616243 L 1070.4836081335911 160.2263495804609 L 1070.24832316603 160.20872591887195 L 1070.013439812878 160.19003953920898 L 1069.7789815622748 160.17029231009434 L 1069.5449718598497 160.14948620623449 L 1069.3114341063786 160.1276233082225 L 1069.0783916554415 160.10470580232996 L 1068.8458678110899 160.08073598028832 L 1068.613885825514 160.05571623905982 L 1068.3824688967193 160.02964908059778 L 1068.1516401662059 160.00253711159627 L 1067.9214227166542 159.9743830432296 L 1067.6918395696177 159.9451896908812 L 1067.4629136832195 159.9149599738619 L 1067.2346679498576 159.88369691511826 L 1067.0071251939148 159.85140364093007 L 1066.7803081694776 159.8180833805979 L 1066.554239558059 159.78373946611993 L 1066.328941966332 159.74837533185905 L 1066.104437923868 159.7119945141992 L 1065.8807498808842 159.67460065119184 L 1065.6579002059982 159.63619748219207 L 1065.4359111839922 159.59678884748485 L 1065.214805013583 159.55637868790075 L 1064.9946038052037 159.51497104442208 L 1064.7753295787913 159.47257005777868 L 1064.5570042615861 159.42917996803388 L 1064.339649685938 159.38480511416049 L 1064.1232875871228 159.33944993360691 L 1063.9079396011705 159.29311896185345 L 1063.6936272627001 159.24581683195862 L 1063.4803720027671 159.197548274096 L 1063.2681951467196 159.14831811508117 L 1063.0571179120664 159.098131277889 L 1062.847161406355 159.0469927811614 L 1062.638346625061 158.9949077387054 L 1062.4306944494888 158.94188135898187 L 1062.2242256446825 158.88791894458456 L 1062.018960857351 158.83302589170998 L 1061.8149206138014 158.77720768961765 L 1061.6121253178885 158.72046992008126 L 1061.4105952489729 158.6628182568305 L 1061.210350559893 158.60425846498364 L 1061.0114112749516 158.54479640047106 L 1060.8137972879108 158.4844380094497 L 1060.6175283600048 158.4231893277083 L 1060.422624117963 158.361056480064 L 1060.229104052047 158.29804567974986 L 1060.0369875141023 158.23416322779335 L 1059.8462937156226 158.16941551238642 L 1059.6570417258285 158.10380900824669 L 1059.4692504697616 158.03735027596986 L 1059.282938726391 157.97004596137378 L 1059.0981251267356 157.9019027948339 L 1058.9148281520015 157.83292759060998 L 1058.7330661317333 157.76312724616503 L 1058.5528572419817 157.6925087414753 L 1058.3742195034854 157.62107913833242 L 1058.1971707798696 157.5488455796372 L 1058.0217287758587 157.47581528868528 L 1057.8479110355072 157.4019955684449 L 1057.6757349404443 157.3273938008266 L 1057.5052177081361 157.25201744594494 L 1057.3363763901634 157.17587404137262 L 1057.1692278705175 157.09897120138663 L 1057.003788863911 157.0213166162069 L 1056.840075914107 156.94291805122717 L 1056.6781053922637 156.8637833462387 L 1056.5178934952983 156.783920414646 L 1056.3594562442672 156.70333724267567 L 1056.2028094827635 156.62204188857777 L 1056.0479688753326 156.54004248181994 L 1055.8949499059063 156.45734722227456 L 1055.743767876254 156.37396437939864 L 1055.5944379044527 156.289902291407 L 1055.4469749233751 156.2051693644384 L 1055.3013936791967 156.1197740717149 L 1055.1577087299202 156.0337249526946 L 1055.015934443921 155.9470306122177 L 1054.8760849985094 155.85969971964604 L 1054.7381743785138 155.77174100799607 L 1054.6022163748808 155.68316327306567 L 1054.4682245832978 155.59397537255452 L 1054.336212402832 155.50418622517833 L 1054.2061930345917 155.41380480977702 L 1054.0781794804052 155.32284016441682 L 1053.9521845415213 155.23130138548646 L 1053.8282208173289 155.13919762678756 L 1053.7063007040972 155.0465380986192 L 1053.5864363937358 154.95333206685703 L 1053.4686398725757 154.85958885202652 L 1053.3529229201713 154.76531782837105 L 1053.2392971081213 154.67052842291443 L 1053.1277737989117 154.5752301145182 L 1053.0183641447811 154.4794324329338 L 1052.9110790866034 154.38314495784954 L 1052.8059293527951 154.2863773179327 L 1052.7029254582421 154.18913918986664 L 1052.602077703248 154.09144029738312 L 1052.5033961725037 153.99329041028997 L 1052.406890734081 153.89469934349412 L 1052.3125710384422 153.79567695602012 L 1052.2204465174793 153.6962331500241 L 1052.130526383567 153.59637786980392 L 1052.042819628644 153.4961211008043 L 1051.957335023313 153.3954728686186 L 1051.8740811159626 153.29444323798623 L 1051.7930662319147 153.193042311786 L 1051.71429847259 153.09128023002603 L 1051.6377857146986 152.9891671688297 L 1051.5635356094529 152.8867133394181 L 1051.491555581801 152.7839289870887 L 1051.4218528296865 152.6808243901911 L 1051.354434323326 152.57740985909913 L 1051.289306804514 152.47369573517966 L 1051.226476785948 152.36969238975868 L 1051.165950550578 152.26541022308405 L 1051.1077341509765 152.16085966328555 L 1051.051833408735 152.056051165332 L 1050.9982539138816 151.9509952099859 L 1050.947001024321 151.84570230275523 L 1050.898079865299 151.74018297284294 L 1050.8514953288914 151.63444777209415 L 1050.8072520735122 151.52850727394073 L 1050.765354523451 151.4223720723443 L 1050.725806868427 151.31605278073653 L 1050.6886130631735 151.20956003095796 L 1050.6537768270396 151.1029044721949 L 1050.62130164362 150.99609676991426 L 1050.5911907604059 150.8891476047973 L 1050.5634471884607 150.78206767167143 L 1050.5380737021183 150.6748676784407 L 1050.5150728387064 150.5675583450151 L 1050.494446898292 150.46015040223858 L 1050.4761979434518 150.35265459081586 L 1050.4603277990664 150.24508166023855 L 1050.4468380521369 150.13744236771007 L 1050.4357300516267 150.0297474770699 L 1050.4270049083266 149.92200775771744 L 1050.4206634947436 149.8142339835348 L 1050.416706445014 149.70643693180958 L 1050.4151341548393 149.59862738215716" stroke-miterlimit="10" stroke-width="2.7769845610000004" stroke-dasharray=""/></g><g><g/><text fill="black" stroke="none" font-family="sans-serif" font-size="11pt" font-style="normal" font-weight="normal" text-decoration="normal" x="1042.886555779017" y="177.890363937" text-anchor="start" dominant-baseline="alphabetic" xml:space="preserve">Database</text></g></g><g><path fill="white" stroke="black" paint-order="fill stroke markers" d=" M 204.51978848437244 236.697095817 L 220.85499178437243 236.697095817 L 220.85499178437243 904.8069107869995 L 204.51978848437244 904.8069107869995 L 204.51978848437244 236.697095817" stroke-miterlimit="10" stroke-width="1.3612669416666667" stroke-dasharray=""/><path fill="white" stroke="black" paint-order="fill stroke markers" d=" M 340.27176440699355 282.435665057 L 356.60696770699354 282.435665057 L 356.60696770699354 859.0683415469996 L 340.27176440699355 859.0683415469996 L 340.27176440699355 282.435665057" stroke-miterlimit="10" stroke-width="1.3612669416666667" stroke-dasharray=""/><path fill="white" stroke="black" paint-order="fill stroke markers" d=" M 462.94909611164593 336.341835947 L 479.2842994116459 336.341835947 L 479.2842994116459 538.898356867 L 462.94909611164593 538.898356867 L 462.94909611164593 336.341835947" stroke-miterlimit="10" stroke-width="1.3612669416666667" stroke-dasharray=""/><path fill="white" stroke="black" paint-order="fill stroke markers" d=" M 966.7583491835757 390.248006837 L 983.0935524835758 390.248006837 L 983.0935524835758 538.898356867 L 966.7583491835757 538.898356867 L 966.7583491835757 390.248006837" stroke-miterlimit="10" stroke-width="1.3612669416666667" stroke-dasharray=""/><path fill="white" stroke="black" paint-order="fill stroke markers" d=" M 599.9287102788959 573.202283797 L 616.263913578896 573.202283797 L 616.263913578896 721.8526338269997 L 599.9287102788959 721.8526338269997 L 599.9287102788959 573.202283797" stroke-miterlimit="10" stroke-width="1.3612669416666667" stroke-dasharray=""/><path fill="white" stroke="black" paint-order="fill stroke markers" d=" M 710.7950373448764 664.6794222769998 L 727.1302406448765 664.6794222769998 L 727.1302406448765 721.8526338269997 L 710.7950373448764 721.8526338269997 L 710.7950373448764 664.6794222769998" stroke-miterlimit="10" stroke-width="1.3612669416666667" stroke-dasharray=""/><path fill="white" stroke="black" paint-order="fill stroke markers" d=" M 847.3523187484545 756.1565607569997 L 863.6875220484546 756.1565607569997 L 863.6875220484546 859.0683415469996 L 847.3523187484545 859.0683415469996 L 847.3523187484545 756.1565607569997" stroke-miterlimit="10" stroke-width="1.3612669416666667" stroke-dasharray=""/><g><text fill="black" stroke="none" font-family="sans-serif" font-size="11pt" font-style="normal" font-weight="normal" text-decoration="normal" x="131.50117045143037" y="230.16301449699998" text-anchor="start" dominant-baseline="alphabetic" xml:space="preserve"></text></g><g><path fill="none" stroke="black" paint-order="fill stroke markers" d=" M 58.48255241848829 236.697095817 L 191.0704711007058 236.697095817" stroke-miterlimit="10" stroke-width="1.3612669416666667" stroke-dasharray=""/><g transform="translate(204.51978848437244,236.697095817) translate(-204.51978848437244,-236.697095817)"><path fill="black" stroke="none" paint-order="stroke fill markers" d=" M 190.90711906770576 229.89076110866665 L 204.51978848437244 236.697095817 L 190.90711906770576 243.50343052533333 Z"/></g></g><g><text fill="black" stroke="none" font-family="sans-serif" font-size="11pt" font-style="normal" font-weight="normal" text-decoration="normal" x="280.563378095683" y="275.90158373699995" text-anchor="start" dominant-baseline="alphabetic" xml:space="preserve"></text></g><g><path fill="none" stroke="black" paint-order="fill stroke markers" d=" M 220.85499178437243 282.435665057 L 326.8224470233269 282.435665057" stroke-miterlimit="10" stroke-width="1.3612669416666667" stroke-dasharray=""/><g transform="translate(340.27176440699355,282.435665057) translate(-340.27176440699355,-282.435665057)"><path fill="black" stroke="none" paint-order="stroke fill markers" d=" M 326.6590949903269 275.62933034866666 L 340.27176440699355 282.435665057 L 326.6590949903269 289.24199976533333 Z"/></g></g><g><text fill="black" stroke="none" font-family="sans-serif" font-size="11pt" font-style="normal" font-weight="normal" text-decoration="normal" x="409.77803190931974" y="321.64015297699996" text-anchor="start" dominant-baseline="alphabetic" xml:space="preserve"></text></g><g><path fill="none" stroke="black" paint-order="fill stroke markers" d=" M 356.60696770699354 320.006632647 L 449.6556998031708 334.2998387206504" stroke-miterlimit="10" stroke-width="1.3612669416666667" stroke-dasharray=""/><g transform="translate(462.94909611164593,336.341835947) rotate(8.732938208308173,0,0) translate(-462.94909611164593,-336.341835947)"><path fill="black" stroke="none" paint-order="stroke fill markers" d=" M 449.33642669497925 329.53550123866665 L 462.94909611164593 336.341835947 L 449.33642669497925 343.14817065533333 Z"/><g transform="rotate(-8.732938208308173,0,0)"/></g></g><g><text fill="black" stroke="none" font-family="sans-serif" font-size="11pt" font-style="normal" font-weight="normal" text-decoration="normal" x="723.0213242976108" y="375.54632386699996" text-anchor="start" dominant-baseline="alphabetic" xml:space="preserve"></text></g><g><path fill="none" stroke="black" paint-order="fill stroke markers" d=" M 479.2842994116459 373.912803537 L 953.316576652579 389.7975744763258" stroke-miterlimit="10" stroke-width="1.3612669416666667" stroke-dasharray=""/><g transform="translate(966.7583491835757,390.248006837) rotate(1.9192572756466144,0,0) translate(-966.7583491835757,-390.248006837)"><path fill="black" stroke="none" paint-order="stroke fill markers" d=" M 953.145679766909 383.44167212866665 L 966.7583491835757 390.248006837 L 953.145679766909 397.05434154533333 Z"/><g transform="rotate(-1.9192572756466144,0,0)"/></g></g><g><text fill="black" stroke="none" font-family="sans-serif" font-size="11pt" font-style="normal" font-weight="normal" text-decoration="normal" x="1028.6790266044409" y="429.45249475699995" text-anchor="start" dominant-baseline="alphabetic" xml:space="preserve"></text></g><g><path fill="none" stroke="black" paint-order="fill stroke markers" d=" M 983.0935524835758 435.986576077 L 1060.8151833416393 435.986576077" stroke-miterlimit="10" stroke-width="1.3612669416666667" stroke-dasharray=""/><g transform="translate(1074.264500725306,435.986576077) translate(-1074.264500725306,-435.986576077)"><path fill="black" stroke="none" paint-order="stroke fill markers" d=" M 1060.6518313086394 429.18024136866666 L 1074.264500725306 435.986576077 L 1060.6518313086394 442.79291078533333 Z"/></g></g><g><text fill="black" stroke="none" font-family="sans-serif" font-size="11pt" font-style="normal" font-weight="normal" text-decoration="normal" x="1028.6790266044409" y="475.19106399699996" text-anchor="start" dominant-baseline="alphabetic" xml:space="preserve"></text></g><g><path fill="none" stroke="black" paint-order="fill stroke markers" d=" M 1074.264500725306 481.725145317 L 996.5428698672424 481.725145317" stroke-miterlimit="10" stroke-width="1.3612669416666667" stroke-dasharray="6.53408132"/><g transform="translate(983.0935524835758,481.725145317) translate(-983.0935524835758,-481.725145317)"><path fill="black" stroke="none" paint-order="stroke fill markers" d=" M 996.7062219002424 474.91881060866666 L 983.0935524835758 481.725145317 L 996.7062219002424 488.53148002533334 Z"/></g></g><g><text fill="black" stroke="none" font-family="sans-serif" font-size="11pt" font-style="normal" font-weight="normal" text-decoration="normal" x="723.0213242976108" y="520.929633237" text-anchor="start" dominant-baseline="alphabetic" xml:space="preserve"></text></g><g><path fill="none" stroke="black" paint-order="fill stroke markers" d=" M 966.7583491835757 527.463714557 L 492.73361679531257 527.463714557" stroke-miterlimit="10" stroke-width="1.3612669416666667" stroke-dasharray="6.53408132"/><g transform="translate(479.2842994116459,527.463714557) translate(-479.2842994116459,-527.463714557)"><path fill="black" stroke="none" paint-order="stroke fill markers" d=" M 492.8969688283126 520.6573798486667 L 479.2842994116459 527.463714557 L 492.8969688283126 534.2700492653333 Z"/></g></g><g><text fill="black" stroke="none" font-family="sans-serif" font-size="11pt" font-style="normal" font-weight="normal" text-decoration="normal" x="478.2678389929447" y="566.6682024769999" text-anchor="start" dominant-baseline="alphabetic" xml:space="preserve"></text></g><g><path fill="none" stroke="black" paint-order="fill stroke markers" d=" M 356.60696770699354 573.202283797 L 586.4793928952292 573.202283797" stroke-miterlimit="10" stroke-width="1.3612669416666667" stroke-dasharray=""/><g transform="translate(599.9287102788959,573.202283797) translate(-599.9287102788959,-573.202283797)"><path fill="black" stroke="none" paint-order="stroke fill markers" d=" M 586.3160408622292 566.3959490886666 L 599.9287102788959 573.202283797 L 586.3160408622292 580.0086185053333 Z"/></g></g><g><text fill="black" stroke="none" font-family="sans-serif" font-size="11pt" font-style="normal" font-weight="normal" text-decoration="normal" x="478.2678389929447" y="612.4067717169999" text-anchor="start" dominant-baseline="alphabetic" xml:space="preserve"></text></g><g><path fill="none" stroke="black" paint-order="fill stroke markers" d=" M 599.9287102788959 618.9408530369999 L 370.0562850906602 618.9408530369999" stroke-miterlimit="10" stroke-width="1.3612669416666667" stroke-dasharray="6.53408132"/><g transform="translate(356.60696770699354,618.9408530369999) translate(-356.60696770699354,-618.9408530369999)"><path fill="black" stroke="none" paint-order="stroke fill markers" d=" M 370.2196371236602 612.1345183286666 L 356.60696770699354 618.9408530369999 L 370.2196371236602 625.7471877453332 Z"/></g></g><g><text fill="black" stroke="none" font-family="sans-serif" font-size="11pt" font-style="normal" font-weight="normal" text-decoration="normal" x="533.701002525935" y="658.1453409569998" text-anchor="start" dominant-baseline="alphabetic" xml:space="preserve"></text></g><g><path fill="none" stroke="black" paint-order="fill stroke markers" d=" M 356.60696770699354 664.6794222769998 L 697.3457199612097 664.6794222769998" stroke-miterlimit="10" stroke-width="1.3612669416666667" stroke-dasharray=""/><g transform="translate(710.7950373448764,664.6794222769998) translate(-710.7950373448764,-664.6794222769998)"><path fill="black" stroke="none" paint-order="stroke fill markers" d=" M 697.1823679282097 657.8730875686665 L 710.7950373448764 664.6794222769998 L 697.1823679282097 671.4857569853332 Z"/></g></g><g><text fill="black" stroke="none" font-family="sans-serif" font-size="11pt" font-style="normal" font-weight="normal" text-decoration="normal" x="533.701002525935" y="703.8839101969998" text-anchor="start" dominant-baseline="alphabetic" xml:space="preserve"></text></g><g><path fill="none" stroke="black" paint-order="fill stroke markers" d=" M 710.7950373448764 710.4179915169998 L 370.0562850906602 710.4179915169998" stroke-miterlimit="10" stroke-width="1.3612669416666667" stroke-dasharray=""/><g transform="translate(356.60696770699354,710.4179915169998) translate(-356.60696770699354,-710.4179915169998)"><path fill="black" stroke="none" paint-order="stroke fill markers" d=" M 370.2196371236602 703.6116568086665 L 356.60696770699354 710.4179915169998 L 370.2196371236602 717.2243262253331 Z"/></g></g><g><text fill="black" stroke="none" font-family="sans-serif" font-size="11pt" font-style="normal" font-weight="normal" text-decoration="normal" x="601.9796432277241" y="749.6224794369997" text-anchor="start" dominant-baseline="alphabetic" xml:space="preserve"></text></g><g><path fill="none" stroke="black" paint-order="fill stroke markers" d=" M 356.60696770699354 756.1565607569997 L 833.9030013647879 756.1565607569997" stroke-miterlimit="10" stroke-width="1.3612669416666667" stroke-dasharray=""/><g transform="translate(847.3523187484545,756.1565607569997) translate(-847.3523187484545,-756.1565607569997)"><path fill="black" stroke="none" paint-order="stroke fill markers" d=" M 833.7396493317879 749.3502260486664 L 847.3523187484545 756.1565607569997 L 833.7396493317879 762.9628954653331 Z"/></g></g><g><text fill="black" stroke="none" font-family="sans-serif" font-size="11pt" font-style="normal" font-weight="normal" text-decoration="normal" x="601.9796432277241" y="795.3610486769996" text-anchor="start" dominant-baseline="alphabetic" xml:space="preserve"></text></g><g><path fill="none" stroke="black" paint-order="fill stroke markers" d=" M 847.3523187484545 801.8951299969997 L 370.0562850906602 801.8951299969997" stroke-miterlimit="10" stroke-width="1.3612669416666667" stroke-dasharray="6.53408132"/><g transform="translate(356.60696770699354,801.8951299969997) translate(-356.60696770699354,-801.8951299969997)"><path fill="black" stroke="none" paint-order="stroke fill markers" d=" M 370.2196371236602 795.0887952886663 L 356.60696770699354 801.8951299969997 L 370.2196371236602 808.701464705333 Z"/></g></g><g><text fill="black" stroke="none" font-family="sans-serif" font-size="11pt" font-style="normal" font-weight="normal" text-decoration="normal" x="280.563378095683" y="841.0996179169996" text-anchor="start" dominant-baseline="alphabetic" xml:space="preserve"></text></g><g><path fill="none" stroke="black" paint-order="fill stroke markers" d=" M 340.27176440699355 847.6336992369996 L 234.30430916803908 847.6336992369996" stroke-miterlimit="10" stroke-width="1.3612669416666667" stroke-dasharray="6.53408132"/><g transform="translate(220.85499178437243,847.6336992369996) translate(-220.85499178437243,-847.6336992369996)"><path fill="black" stroke="none" paint-order="stroke fill markers" d=" M 234.4676612010391 840.8273645286663 L 220.85499178437243 847.6336992369996 L 234.4676612010391 854.440033945333 Z"/></g></g><g><text fill="black" stroke="none" font-family="sans-serif" font-size="11pt" font-style="normal" font-weight="normal" text-decoration="normal" x="105.01227884986787" y="886.8381871569995" text-anchor="start" dominant-baseline="alphabetic" xml:space="preserve">respond</text></g><g><path fill="none" stroke="black" paint-order="fill stroke markers" d=" M 204.51978848437244 893.3722684769996 L 71.93186980215495 893.3722684769996" stroke-miterlimit="10" stroke-width="1.3612669416666667" stroke-dasharray="6.53408132"/><g transform="translate(58.48255241848829,893.3722684769996) translate(-58.48255241848829,-893.3722684769996)"><path fill="black" stroke="none" paint-order="stroke fill markers" d=" M 72.09522183515496 886.5659337686662 L 58.48255241848829 893.3722684769996 L 72.09522183515496 900.1786031853329 Z"/></g></g></g><g/></g></svg>