<svg version="1.1" xmlns="http://www.w3.org/2000/svg" xmlns:xlink="http://www.w3.org/1999/xlink" width="1012" height="867"><desc>title%20Generic%20Domain-Driven%20Scenario%0A%0Aparticipant%20%22API%20Client%22%20as%20client%0Aparticipantgroup%20WebAPI%5CnLayer%0Aparticipant%20%22Controller%22%20as%20api%0Aend%0Aparticipantgroup%20Application%5CnLayer%0Aparticipant%20%22Application%5CnService%22%20as%20appservice%0Aparticipant%20%22Repository%22%20as%20repository%0Aend%0Aparticipantgroup%20Domain%5CnLayer%0Aparticipant%20%22Aggregate%5CnRoot%22%20as%20aggregateroot%0Aend%0Aparticipantgroup%20Infrastructure%5CnLayer%0Aparticipant%20%22Infrastructure%5CnService%22%20as%20infservice%0Aparticipant%20%22Data%5CnService%22%20as%20dataservice%0Aend%0Adatabase%20Database%0A%0Aclient-%3Eapi%3A%0Aactivate%20api%0Aapi-%3Eappservice%3A%0Aactivate%20appservice%0Aappservice-%3E(1)repository%3A%0Aactivate%20repository%0Arepository-%3E(1)dataservice%3A%0Aactivate%20dataservice%0Adataservice-%3EDatabase%3A%0Adataservice%3C--Database%3A%0Arepository%3C--dataservice%3A%0Adeactivateafter%20dataservice%0Adeactivateafter%20repository%0Aappservice-%3Eaggregateroot%3A%0Aactivate%20aggregateroot%0Aappservice%3C--aggregateroot%3A%0Adeactivateafter%20aggregateroot%0Aappservice-%3Einfservice%3A%0Aactivate%20infservice%0Aappservice%3C--infservice%3A%0Aapi%3C--appservice%3A%0Adeactivateafter%20infservice%0Adeactivateafter%20appservice%0Aclient%3C--api%3Arespond%0Adeactivateafter%20api%0A</desc><defs/><g><g/><g/><g/><g/><g/><g/><g/><g/><g/><g/><g/><g/><g/><g/><g/><g/><g/><g/><g/><g/><g/><g/><g/><g/><g/><g/><g/><g/><g/><g/><g/><g/><g><rect fill="white" stroke="none" x="0" y="0" width="1012" height="867"/></g><g><text fill="black" stroke="none" font-family="sans-serif" font-size="16.5pt" font-style="normal" font-weight="normal" text-decoration="normal" x="345.0062707337156" y="24.50280495" text-anchor="start" dominant-baseline="alphabetic" xml:space="preserve">Generic Domain-Driven Scenario</text></g><g><g><path fill="none" stroke="black" paint-order="fill stroke markers" d=" M 155.02087775494664 83.55456487950002 L 270.35390251379823 83.55456487950002 L 270.35390251379823 859.0683415469997 L 155.02087775494664 859.0683415469997 L 155.02087775494664 83.55456487950002" stroke-miterlimit="10" stroke-width="1.3612669416666667" stroke-dasharray=""/></g><g><text fill="black" stroke="none" font-family="sans-serif" font-size="11pt" font-style="normal" font-weight="normal" text-decoration="normal" x="185.93363647226306" y="106.42384949950002" text-anchor="start" dominant-baseline="alphabetic" xml:space="preserve">WebAPI</text><text fill="black" stroke="none" font-family="sans-serif" font-size="11pt" font-style="normal" font-weight="normal" text-decoration="normal" x="185.93363647226306" y="122.75905279950003" text-anchor="start" dominant-baseline="alphabetic" xml:space="preserve">Layer</text></g><g><path fill="none" stroke="black" paint-order="fill stroke markers" d=" M 286.6891058137982 67.2193615795 L 532.043769223103 67.2193615795 L 532.043769223103 859.0683415469997 L 286.6891058137982 859.0683415469997 L 286.6891058137982 67.2193615795" stroke-miterlimit="10" stroke-width="1.3612669416666667" stroke-dasharray=""/></g><g><text fill="black" stroke="none" font-family="sans-serif" font-size="11pt" font-style="normal" font-weight="normal" text-decoration="normal" x="373.50747450575534" y="90.0886461995" text-anchor="start" dominant-baseline="alphabetic" xml:space="preserve">Application</text><text fill="black" stroke="none" font-family="sans-serif" font-size="11pt" font-style="normal" font-weight="normal" text-decoration="normal" x="373.50747450575534" y="106.42384949950001" text-anchor="start" dominant-baseline="alphabetic" xml:space="preserve">Layer</text></g><g><path fill="none" stroke="black" paint-order="fill stroke markers" d=" M 548.3789725231029 67.2193615795 L 667.813651334689 67.2193615795 L 667.813651334689 859.0683415469997 L 548.3789725231029 859.0683415469997 L 548.3789725231029 67.2193615795" stroke-miterlimit="10" stroke-width="1.3612669416666667" stroke-dasharray=""/></g><g><text fill="black" stroke="none" font-family="sans-serif" font-size="11pt" font-style="normal" font-weight="normal" text-decoration="normal" x="582.8386214992084" y="90.0886461995" text-anchor="start" dominant-baseline="alphabetic" xml:space="preserve">Domain</text><text fill="black" stroke="none" font-family="sans-serif" font-size="11pt" font-style="normal" font-weight="normal" text-decoration="normal" x="582.8386214992084" y="106.42384949950001" text-anchor="start" dominant-baseline="alphabetic" xml:space="preserve">Layer</text></g><g><path fill="none" stroke="black" paint-order="fill stroke markers" d=" M 684.1488546346889 67.2193615795 L 922.9609155049312 67.2193615795 L 922.9609155049312 859.0683415469997 L 684.1488546346889 859.0683415469997 L 684.1488546346889 67.2193615795" stroke-miterlimit="10" stroke-width="1.3612669416666667" stroke-dasharray=""/></g><g><text fill="black" stroke="none" font-family="sans-serif" font-size="11pt" font-style="normal" font-weight="normal" text-decoration="normal" x="760.3730918569195" y="90.0886461995" text-anchor="start" dominant-baseline="alphabetic" xml:space="preserve">Infrastructure</text><text fill="black" stroke="none" font-family="sans-serif" font-size="11pt" font-style="normal" font-weight="normal" text-decoration="normal" x="760.3730918569195" y="106.42384949950001" text-anchor="start" dominant-baseline="alphabetic" xml:space="preserve">Layer</text></g></g><g><path fill="none" stroke="black" paint-order="fill stroke markers" d=" M 58.48255241848829 182.790924927 L 58.48255241848829 859.0683415469997" stroke-miterlimit="10" stroke-width="1.3612669416666667" stroke-dasharray="12.565541,5.445067766666667"/><path fill="none" stroke="black" paint-order="fill stroke markers" d=" M 212.68739013437244 182.790924927 L 212.68739013437244 859.0683415469997" stroke-miterlimit="10" stroke-width="1.3612669416666667" stroke-dasharray="12.565541,5.445067766666667"/><path fill="none" stroke="black" paint-order="fill stroke markers" d=" M 348.43936605699355 182.790924927 L 348.43936605699355 859.0683415469997" stroke-miterlimit="10" stroke-width="1.3612669416666667" stroke-dasharray="12.565541,5.445067766666667"/><path fill="none" stroke="black" paint-order="fill stroke markers" d=" M 471.1166977616459 182.790924927 L 471.1166977616459 859.0683415469997" stroke-miterlimit="10" stroke-width="1.3612669416666667" stroke-dasharray="12.565541,5.445067766666667"/><path fill="none" stroke="black" paint-order="fill stroke markers" d=" M 608.096311928896 182.790924927 L 608.096311928896 859.0683415469997" stroke-miterlimit="10" stroke-width="1.3612669416666667" stroke-dasharray="12.565541,5.445067766666667"/><path fill="none" stroke="black" paint-order="fill stroke markers" d=" M 753.2219450780796 182.790924927 L 753.2219450780796 859.0683415469997" stroke-miterlimit="10" stroke-width="1.3612669416666667" stroke-dasharray="12.565541,5.445067766666667"/><path fill="none" stroke="black" paint-order="fill stroke markers" d=" M 872.6279755132007 182.790924927 L 872.6279755132007 859.0683415469997" stroke-miterlimit="10" stroke-width="1.3612669416666667" stroke-dasharray="12.565541,5.445067766666667"/><path fill="none" stroke="black" paint-order="fill stroke markers" d=" M 971.9665254049312 182.790924927 L 971.9665254049312 859.0683415469997" stroke-miterlimit="10" stroke-width="1.3612669416666667" stroke-dasharray="12.565541,5.445067766666667"/></g><g><path fill="none" stroke="none"/><g><path fill="white" stroke="black" paint-order="fill stroke markers" d=" M 8.167601650000002 138.84922805000002 L 108.79750318697657 138.84922805000002 L 108.79750318697657 182.79092492700002 L 8.167601650000002 182.79092492700002 L 8.167601650000002 138.84922805000002 Z" stroke-miterlimit="10" stroke-width="2.613632528" stroke-dasharray=""/></g><g><text fill="black" stroke="none" font-family="sans-serif" font-size="11pt" font-style="normal" font-weight="normal" text-decoration="normal" x="25.891297230500008" y="166.455721627" text-anchor="start" dominant-baseline="alphabetic" xml:space="preserve">API Client</text></g><path fill="none" stroke="none"/><g><path fill="white" stroke="black" paint-order="fill stroke markers" d=" M 163.18847940494663 138.84922805000002 L 262.18630086379824 138.84922805000002 L 262.18630086379824 182.79092492700002 L 163.18847940494663 182.79092492700002 L 163.18847940494663 138.84922805000002 Z" stroke-miterlimit="10" stroke-width="2.613632528" stroke-dasharray=""/></g><g><text fill="black" stroke="none" font-family="sans-serif" font-size="11pt" font-style="normal" font-weight="normal" text-decoration="normal" x="180.91217498544665" y="166.455721627" text-anchor="start" dominant-baseline="alphabetic" xml:space="preserve">Controller</text></g><path fill="none" stroke="none"/><g><path fill="white" stroke="black" paint-order="fill stroke markers" d=" M 294.8567074637982 122.51402475 L 402.0220246501889 122.51402475 L 402.0220246501889 182.790924927 L 294.8567074637982 182.790924927 L 294.8567074637982 122.51402475 Z" stroke-miterlimit="10" stroke-width="2.613632528" stroke-dasharray=""/></g><g><text fill="black" stroke="none" font-family="sans-serif" font-size="11pt" font-style="normal" font-weight="normal" text-decoration="normal" x="312.58040304429824" y="150.12051832699998" text-anchor="start" dominant-baseline="alphabetic" xml:space="preserve">Application</text><text fill="black" stroke="none" font-family="sans-serif" font-size="11pt" font-style="normal" font-weight="normal" text-decoration="normal" x="323.9977232957631" y="166.45572162699997" text-anchor="start" dominant-baseline="alphabetic" xml:space="preserve">Service</text></g><path fill="none" stroke="none"/><g><path fill="white" stroke="black" paint-order="fill stroke markers" d=" M 418.35722795018887 138.84922805000002 L 523.876167573103 138.84922805000002 L 523.876167573103 182.79092492700002 L 418.35722795018887 182.79092492700002 L 418.35722795018887 138.84922805000002 Z" stroke-miterlimit="10" stroke-width="2.613632528" stroke-dasharray=""/></g><g><text fill="black" stroke="none" font-family="sans-serif" font-size="11pt" font-style="normal" font-weight="normal" text-decoration="normal" x="436.0809235306889" y="166.455721627" text-anchor="start" dominant-baseline="alphabetic" xml:space="preserve">Repository</text></g><path fill="none" stroke="none"/><g><path fill="white" stroke="black" paint-order="fill stroke markers" d=" M 556.546574173103 122.51402475 L 659.6460496846889 122.51402475 L 659.6460496846889 182.790924927 L 556.546574173103 182.790924927 L 556.546574173103 122.51402475 Z" stroke-miterlimit="10" stroke-width="2.613632528" stroke-dasharray=""/></g><g><text fill="black" stroke="none" font-family="sans-serif" font-size="11pt" font-style="normal" font-weight="normal" text-decoration="normal" x="574.270269753603" y="150.12051832699998" text-anchor="start" dominant-baseline="alphabetic" xml:space="preserve">Aggregate</text><text fill="black" stroke="none" font-family="sans-serif" font-size="11pt" font-style="normal" font-weight="normal" text-decoration="normal" x="592.6131347438373" y="166.45572162699997" text-anchor="start" dominant-baseline="alphabetic" xml:space="preserve">Root</text></g><path fill="none" stroke="none"/><g><path fill="white" stroke="black" paint-order="fill stroke markers" d=" M 692.3164562846889 122.51402475 L 814.1274338714702 122.51402475 L 814.1274338714702 182.790924927 L 692.3164562846889 182.790924927 L 692.3164562846889 122.51402475 Z" stroke-miterlimit="10" stroke-width="2.613632528" stroke-dasharray=""/></g><g><text fill="black" stroke="none" font-family="sans-serif" font-size="11pt" font-style="normal" font-weight="normal" text-decoration="normal" x="710.0401518651889" y="150.12051832699998" text-anchor="start" dominant-baseline="alphabetic" xml:space="preserve">Infrastructure</text><text fill="black" stroke="none" font-family="sans-serif" font-size="11pt" font-style="normal" font-weight="normal" text-decoration="normal" x="728.7803023168491" y="166.45572162699997" text-anchor="start" dominant-baseline="alphabetic" xml:space="preserve">Service</text></g><path fill="none" stroke="none"/><g><path fill="white" stroke="black" paint-order="fill stroke markers" d=" M 830.4626371714702 122.51402475 L 914.7933138549312 122.51402475 L 914.7933138549312 182.790924927 L 830.4626371714702 182.790924927 L 830.4626371714702 122.51402475 Z" stroke-miterlimit="10" stroke-width="2.613632528" stroke-dasharray=""/></g><g><text fill="black" stroke="none" font-family="sans-serif" font-size="11pt" font-style="normal" font-weight="normal" text-decoration="normal" x="857.1447983281421" y="150.12051832699998" text-anchor="start" dominant-baseline="alphabetic" xml:space="preserve">Data</text><text fill="black" stroke="none" font-family="sans-serif" font-size="11pt" font-style="normal" font-weight="normal" text-decoration="normal" x="848.1863327519702" y="166.45572162699997" text-anchor="start" dominant-baseline="alphabetic" xml:space="preserve">Service</text></g><g><path fill="white" stroke="black" paint-order="fill stroke markers" d=" M 948.1171285869312 150.773926459 L 948.1171285869312 116.469999529 L 995.8159222229311 116.469999529 L 995.8159222229311 150.773926459" stroke-miterlimit="10" stroke-width="2.7769845610000004" stroke-dasharray=""/><path fill="white" stroke="black" paint-order="fill stroke markers" d=" M 995.8159222229311 115.2775296881 L 995.8147297630275 115.38534023301662 L 995.8111525025614 115.4931399969686 L 995.8051907992561 115.60091820006936 L 995.7968452492768 115.7086640645884 L 995.7861166871716 115.81636681602909 L 995.7730061857877 115.92401568420601 L 995.7575150561645 116.03159990432205 L 995.7396448474019 116.13910871804485 L 995.7193973465058 116.24653137458266 L 995.6967745782097 116.3538571317593 L 995.6717788047713 116.46107525708852 L 995.6444125257473 116.56817502884712 L 995.6146784777427 116.67514573714719 L 995.5825796341376 116.78197668500702 L 995.5481192047895 116.88865718942087 L 995.5113006357127 116.99517658242718 L 995.4721276087333 117.10152421217543 L 995.4306040411216 117.20768944399126 L 995.3867340851996 117.31366166143997 L 995.3405221279262 117.41943026738811 L 995.2919727904589 117.52498468506323 L 995.2410909276908 117.63031435911152 L 995.1878816277659 117.73540875665337 L 995.1323502115697 117.8402573683366 L 995.0745022321977 117.94484970938738 L 995.0143434743995 118.0491753206588 L 994.9518799540009 118.15322376967667 L 994.8871179173017 118.25698465168279 L 994.8200638404517 118.3604475906754 L 994.7507244288028 118.46360224044686 L 994.6791066162381 118.56643828561813 L 994.6052175644794 118.6689454426704 L 994.5290646623704 118.77111346097338 L 994.4506555251376 118.87293212381039 L 994.3699979936295 118.97439124939999 L 994.287100133532 119.07548069191415 L 994.2019702345622 119.17619034249289 L 994.1146168096387 119.27651013025506 L 994.0250485940315 119.37643002330549 L 993.9332745444875 119.47594002973813 L 993.8393038383351 119.57503019863528 L 993.7431458725665 119.6736906210626 L 993.6448102628984 119.7719114310601 L 993.5443068428096 119.8696828066286 L 993.4416456625585 119.96699497071202 L 993.3368369881774 120.06383819217507 L 993.2298913004465 120.16020278677628 L 993.1208192938456 120.2560791181365 L 993.0096318754843 120.3514575987025 L 992.8963401640117 120.4463286907057 L 992.7809554885048 120.54068290711595 L 992.6634893873347 120.63451081259025 L 992.5439536070138 120.72780302441623 L 992.4223601010206 120.82055021345047 L 992.2987210286042 120.91274310505133 L 992.1730487535688 121.00437248000651 L 992.0453558430373 121.09542917545484 L 991.9156550661943 121.18590408580266 L 991.7839593930094 121.27578816363435 L 991.6502819929401 121.36507242061701 L 991.5146362336152 121.45374792839937 L 991.3770356794973 121.54180581950452 L 991.2374940905274 121.62923728821674 L 991.0960254207481 121.71603359146202 L 990.9526438169083 121.80218604968238 L 990.8073636170492 121.88768604770375 L 990.6601993490693 121.97252503559763 L 990.5111657292732 122.05669452953589 L 990.3602776608983 122.1401861126393 L 990.207550232626 122.22299143581911 L 990.0529987170717 122.30510221861202 L 989.8966385692582 122.38651025000817 L 989.7384854250699 122.46720738927226 L 989.5785550996897 122.5471855667576 L 989.4168635860165 122.62643678471312 L 989.2534270530672 122.70495311808304 L 989.0882618443586 122.78272671529945 L 988.9213844762743 122.85974979906746 L 988.7528116364118 122.93601466714287 L 988.5825601819147 123.01151369310242 L 988.4106471377866 123.08623932710643 L 988.2370896951885 123.16018409665378 L 988.0619052097202 123.23334060732914 L 987.8851111996842 123.30570154354238 L 987.7067253443341 123.37725966926021 L 987.5267654821068 123.44800782872969 L 987.3452496088388 123.51793894719378 L 987.1621958759658 123.58704603159897 L 986.9776225887089 123.65532217129439 L 986.7915482042426 123.72276053872295 L 986.6039913298507 123.78935439010411 L 986.414970721064 123.85509706610824 L 986.2245052797862 123.91998199252252 L 986.0326140524023 123.98400268090838 L 985.8393162278755 124.04715272925033 L 985.644631135827 124.10942582259615 L 985.4485782446038 124.17081573368841 L 985.2511771593316 124.23131632358717 L 985.0524476199546 124.29092154228384 L 984.8524094992608 124.34962542930622 L 984.6510828008959 124.40742211431454 L 984.4484876573619 124.46430581768846 L 984.244644328004 124.52027085110502 L 984.0395731969858 124.57531161810756 L 983.833294771249 124.62942261466523 L 983.6258296784647 124.68259842972344 L 983.417198664969 124.73483374574504 L 983.2074225936896 124.78612333924193 L 982.9965224420586 124.8364620812975 L 982.7845192999155 124.8858449380795 L 982.5714343673978 124.93426697134342 L 982.3572889528215 124.98172333892626 L 982.1421044705492 125.02820929523081 L 981.9259024388499 125.0737201917002 L 981.7087044777468 125.11825147728268 L 981.4905323068548 125.16179869888683 L 981.2714077432092 125.20435750182676 L 981.0513526990838 125.24592363025765 L 980.8303891797998 125.28649292760129 L 980.6085392815248 125.32606133696174 L 980.3858251890638 125.36462490153107 L 980.1622691736403 125.40217976498494 L 979.9378935906699 125.43872217186829 L 979.7127208775236 125.47424846797091 L 979.4867735512852 125.50875510069277 L 979.260074206499 125.54223861939937 L 979.0326455129106 125.57469567576673 L 978.8045102131997 125.60612302411627 L 978.5756911207064 125.63651752173934 L 978.3462111171491 125.66587612921151 L 978.1160931503371 125.6941959106965 L 977.885360231875 125.72147403423973 L 977.6540354348626 125.74770777205163 L 977.4221418915868 125.77289450078025 L 977.1897027912087 125.7970317017737 L 976.9567413774446 125.82011696133202 L 976.7232809462416 125.84214797094847 L 976.4893448434486 125.86312252754045 L 976.2549564624807 125.88303853366979 L 976.0201392419807 125.90189399775247 L 975.7849166634751 125.91968703425778 L 975.5493122490254 125.93641586389691 L 975.3133495588771 125.95207881380085 L 975.0770521891025 125.96667431768763 L 974.8404437692415 125.98020091601906 L 974.6035479599389 125.99265725614656 L 974.3663884505784 126.00404209244648 L 974.1289889569132 126.01435428644471 L 973.8913732186948 126.02359280693042 L 973.6535649972991 126.03175673005929 L 973.41558807335 126.03884523944578 L 973.1774662443416 126.04485762624486 L 972.9392233222585 126.04979328922288 L 972.7008831311941 126.05365173481763 L 972.4624695049691 126.05643257718779 L 972.2240062847474 126.05813553825143 L 971.9855173166522 126.05876044771387 L 971.7470264493817 126.05830724308466 L 971.5085575318238 126.05677596968391 L 971.2701344106716 126.05416678063769 L 971.0317809280386 126.0504799368627 L 970.7935209190742 126.04571580704027 L 970.555378209581 126.0398748675794 L 970.3173766136314 126.03295770256918 L 970.0795399311866 126.02496500372034 L 969.8418919457166 126.01589757029609 L 969.6044564218221 126.00575630903225 L 969.3672571028574 125.99454223404646 L 969.130317708557 125.9822564667369 L 968.8936619326627 125.96890023567005 L 968.6573134405548 125.95447487645788 L 968.4212958668858 125.93898183162432 L 968.1856328132162 125.9224226504609 L 967.9503478456551 125.90479898887196 L 967.7154644925031 125.88611260920898 L 967.4810062418998 125.86636538009435 L 967.2469965394749 125.84555927623451 L 967.0134587860035 125.82369637822252 L 966.7804163350667 125.80077887232996 L 966.547892490715 125.77680905028832 L 966.3159105051391 125.75178930905984 L 966.0844935763445 125.72572215059779 L 965.853664845831 125.69861018159627 L 965.6234473962794 125.67045611322962 L 965.3938642492428 125.64126276088119 L 965.1649383628445 125.61103304386191 L 964.9366926294825 125.57976998511826 L 964.7091498735399 125.54747671093008 L 964.4823328491026 125.5141564505979 L 964.2562642376841 125.47981253611995 L 964.0309666459572 125.44444840185908 L 963.8064626034931 125.40806758419922 L 963.5827745605092 125.37067372119185 L 963.3599248856233 125.3322705521921 L 963.1379358636171 125.29286191748486 L 962.9168296932081 125.25245175790076 L 962.6966284848287 125.21104411442208 L 962.4773542584165 125.16864312777868 L 962.2590289412113 125.12525303803388 L 962.0416743655629 125.0808781841605 L 961.8253122667479 125.03552300360693 L 961.6099642807956 124.98919203185345 L 961.3956519423253 124.94188990195862 L 961.1823966823922 124.893621344096 L 960.9702198263448 124.84439118508118 L 960.7591425916914 124.79420434788902 L 960.5491860859801 124.7430658511614 L 960.3403713046862 124.69098080870542 L 960.1327191291139 124.63795442898189 L 959.9262503243077 124.58399201458458 L 959.7209855369761 124.52909896170999 L 959.5169452934266 124.47328075961767 L 959.3141499975136 124.41654299008127 L 959.1126199285978 124.3588913268305 L 958.9123752395182 124.30033153498366 L 958.7134359545765 124.24086947047108 L 958.5158219675358 124.1805110794497 L 958.3195530396299 124.1192623977083 L 958.1246487975881 124.05712955006403 L 957.9311287316722 123.99411874974987 L 957.7390121937274 123.93023629779336 L 957.5483183952476 123.86548858238643 L 957.3590664054536 123.79988207824668 L 957.1712751493867 123.73342334596987 L 956.984963406016 123.66611903137381 L 956.8001498063607 123.5979758648339 L 956.6168528316266 123.52900066061 L 956.4350908113584 123.45920031616504 L 956.2548819216069 123.3885818114753 L 956.0762441831106 123.31715220833243 L 955.8991954594946 123.2449186496372 L 955.7237534554838 123.17188835868528 L 955.5499357151324 123.09806863844491 L 955.3777596200695 123.02346687082661 L 955.2072423877611 122.94809051594495 L 955.0384010697885 122.87194711137262 L 954.8712525501426 122.79504427138663 L 954.7058135435362 122.71738968620689 L 954.542100593732 122.63899112122719 L 954.3801300718887 122.55985641623872 L 954.2199181749235 122.479993484646 L 954.0614809238923 122.39941031267568 L 953.9048341623885 122.31811495857778 L 953.7499935549577 122.23611555181996 L 953.5969745855314 122.15342029227457 L 953.445792555879 122.07003744939865 L 953.2964625840777 121.98597536140701 L 953.1489996030002 121.9012424344384 L 953.0034183588217 121.8158471417149 L 952.8597334095452 121.7297980226946 L 952.717959123546 121.64310368221773 L 952.5781096781346 121.55577278964606 L 952.4401990581389 121.4678140779961 L 952.3042410545058 121.3792363430657 L 952.1702492629228 121.29004844255454 L 952.038237082457 121.20025929517834 L 951.9082177142167 121.10987787977703 L 951.7802041600302 121.01891323441684 L 951.6542092211463 120.92737445548647 L 951.530245496954 120.83527069678756 L 951.4083253837223 120.74261116861922 L 951.2884610733608 120.64940513685704 L 951.170664552201 120.55566192202654 L 951.0549475997965 120.46139089837106 L 950.9413217877462 120.36660149291444 L 950.8297984785369 120.27130318451822 L 950.7203888244062 120.17550550293382 L 950.6131037662285 120.07921802784955 L 950.5079540324202 119.98245038793272 L 950.4049501378672 119.88521225986665 L 950.3041023828729 119.78751336738313 L 950.2054208521288 119.68936348028998 L 950.1089154137059 119.59077241349414 L 950.0145957180674 119.49175002602011 L 949.9224711971044 119.39230622002414 L 949.8325510631922 119.29245093980393 L 949.7448443082693 119.19219417080431 L 949.659359702938 119.09154593861864 L 949.5761057955878 118.99051630798624 L 949.4950909115397 118.889115381786 L 949.4163231522149 118.78735330002604 L 949.3398103943236 118.68524023882972 L 949.2655602890778 118.58278640941809 L 949.1935802614263 118.4800020570887 L 949.1238775093116 118.37689746019112 L 949.0564590029511 118.27348292909913 L 948.9913314841391 118.16976880517967 L 948.9285014655732 118.06576545975868 L 948.867975230203 117.96148329308406 L 948.8097588306015 117.85693273328555 L 948.7538580883603 117.75212423533202 L 948.7002785935068 117.64706827998593 L 948.649025703946 117.54177537275525 L 948.6001045449242 117.43625604284297 L 948.5535200085163 117.33052084209415 L 948.5092767531374 117.22458034394076 L 948.467379203076 117.11844514234431 L 948.4278315480523 117.01212585073652 L 948.3906377427986 116.90563310095798 L 948.3558015066648 116.79897754219489 L 948.323326323245 116.69216983991427 L 948.2932154400311 116.58522067479731 L 948.2654718680858 116.47814074167144 L 948.2400983817435 116.37094074844072 L 948.2170975183315 116.26363141501513 L 948.196471577917 116.1562234722386 L 948.1782226230769 116.04872766081589 L 948.1623524786914 115.94115473023857 L 948.1488627317619 115.83351543771006 L 948.1377547312517 115.72582054706992 L 948.1290295879517 115.61808082771745 L 948.1226881743687 115.5103070535348 L 948.1187311246391 115.4025100018096 L 948.1171588344644 115.29470045215717 L 948.1179714610723 115.18688918544265 L 948.1211689232009 115.07908698270286 L 948.1267509011066 114.97130462406824 L 948.1347168365962 114.86355288768483 L 948.145065933083 114.7558425486365 L 948.1577971556658 114.64818437786737 L 948.1729092312329 114.5405891411048 L 948.1904006485895 114.43306759778282 L 948.2102696586082 114.32563049996617 L 948.2325142744049 114.21828859127507 L 948.2571322715364 114.11105260581097 L 948.2841211882234 114.00393326708301 L 948.3134783255967 113.89694128693586 L 948.3452007479673 113.79008736447831 L 948.3792852831192 113.68338218501361 L 948.4157285226272 113.57683641897076 L 948.454526822198 113.47046072083758 L 948.4956763020336 113.36426572809525 L 948.5391728472207 113.25826206015454 L 948.5850121081407 113.15246031729389 L 948.6331895009059 113.04687107959944 L 948.6837002078172 112.94150490590698 L 948.7365391778458 112.83637233274605 L 948.7917011271389 112.73148387328636 L 948.8491805395475 112.62685001628645 L 948.9089716671783 112.52248122504484 L 948.9710685309682 112.41838793635367 L 949.0354649212827 112.31458055945505 L 949.1021543985365 112.21106947500019 L 949.1711302938373 112.10786503401127 L 949.2423857096531 112.00497755684637 L 949.3159135205018 111.90241733216747 L 949.3917063736634 111.8001946159116 L 949.4697566899158 111.69831963026517 L 949.5500566642926 111.59680256264186 L 949.6325982668629 111.49565356466383 L 949.7173732435357 111.39488275114658 L 949.8043731168837 111.29450019908752 L 949.893589186992 111.19451594665817 L 949.9850125323281 111.09493999220047 L 950.0786340106337 110.99578229322687 L 950.1744442598387 110.89705276542465 L 950.2724336989983 110.79876128166431 L 950.3725925292501 110.70091767101232 L 950.4749107347947 110.60353171774821 L 950.5793780838965 110.50661316038615 L 950.685984129908 110.4101716907011 L 950.7947182123132 110.3142169527597 L 950.9055694577945 110.21875854195572 L 951.0185267813199 110.12380600405075 L 951.133578887251 110.02936883421941 L 951.2507142704732 109.93545647610003 L 951.3699212175455 109.84207832085012 L 951.491187807873 109.74924370620741 L 951.6145019148973 109.656961915556 L 951.7398512073108 109.56524217699805 L 951.8672231502885 109.47409366243099 L 951.9966050067424 109.38352548663032 L 952.1279838385944 109.29354670633813 L 952.261346508071 109.2041663193575 L 952.3966796790164 109.1153932636526 L 952.5339698182263 109.02723641645508 L 952.6732031968011 108.93970459337615 L 952.814365891519 108.85280654752518 L 952.957443786228 108.76655096863436 L 953.1024225732582 108.68094648218968 L 953.2492877548515 108.59600164856846 L 953.3980246446122 108.51172496218328 L 953.5486183689751 108.42812485063253 L 953.7010538686935 108.34520967385771 L 953.8553159003443 108.2629877233074 L 954.011389037853 108.18146722110814 L 954.1692576740357 108.1006563192422 L 954.3289060221607 108.02056309873245 L 954.4903181175258 107.94119556883419 L 954.6534778190563 107.86256166623426 L 954.8183688109178 107.7846692542574 L 954.9849746041488 107.70752612207988 L 955.1532785383085 107.63113998395067 L 955.3232637831438 107.55551847841988 L 955.4949133402721 107.48066916757509 L 955.6682100448805 107.40659953628499 L 955.843136567443 107.33331699145097 L 956.0196754154532 107.26082886126648 L 956.1978089351733 107.1891423944841 L 956.3775193133998 107.11826475969077 L 956.5587885792447 107.04820304459093 L 956.7415986059324 106.97896425529768 L 956.9259311126126 106.91055531563228 L 957.1117676661884 106.84298306643166 L 957.299089683159 106.77625426486443 L 957.4878784314789 106.71037558375518 L 957.6781150324307 106.64535361091707 L 957.8697804625128 106.58119484849323 L 958.0628555553419 106.51790571230643 L 958.2573210035696 106.45549253121754 L 958.4531573608132 106.39396154649268 L 958.6503450435999 106.33331891117902 L 958.8488643333262 106.27357068948956 L 959.0486953782282 106.2147228561967 L 959.249818195368 106.15678129603472 L 959.4522126726316 106.09975180311135 L 959.65585857074 106.04364008032834 L 959.8607355252727 105.98845173881124 L 960.0668230487054 105.93419229734818 L 960.2741005324573 105.88086718183811 L 960.4825472489528 105.82848172474814 L 960.692142353694 105.77704116458034 L 960.9028648873449 105.72655064534784 L 961.1146937778279 105.67701521606048 L 961.3276078424306 105.62843983021993 L 961.5415857899237 105.58082934532429 L 961.756606222691 105.53418852238237 L 961.9726476388681 105.48852202543759 L 962.1896884344936 105.4438344211016 L 962.407706905669 105.4001301780976 L 962.6266812507286 105.35741366681344 L 962.8465895724203 105.3156891588647 L 963.0674098800955 105.27496082666737 L 963.2891200919072 105.23523274302073 L 963.5116980370191 105.19650888070004 L 963.7351214578221 105.15879311205927 L 963.9593680121602 105.12208920864386 L 964.1844152755651 105.08640084081355 L 964.4102407434979 105.05173157737539 L 964.6368218335999 105.01808488522684 L 964.8641358879511 104.98546412900906 L 965.0921601753352 104.9538725707705 L 965.3208718935136 104.92331336964065 L 965.5502481715052 104.89378958151417 L 965.7802660718734 104.86530415874525 L 966.0109025930195 104.83785994985244 L 966.2421346714839 104.81145969923377 L 966.4739391842512 104.78610604689229 L 966.7062929510636 104.76180152817209 L 966.9391727367378 104.73854857350481 L 967.1725552534893 104.71634950816654 L 967.4064171632612 104.6952065520453 L 967.640735080057 104.67512181941912 L 967.8754855722805 104.65609731874447 L 968.110645165078 104.6381349524556 L 968.3461903426864 104.62123651677416 L 968.582097550784 104.60540370152964 L 968.8183431988468 104.59063808999038 L 969.0549036625066 104.5769411587052 L 969.2917552859144 104.56431427735583 L 969.528874384105 104.5527587086199 L 969.7662372453665 104.54227560804463 L 970.0038201336102 104.53286602393135 L 970.2415992907455 104.52453089723063 L 970.4795509390549 104.5172710614482 L 970.7176512835716 104.51108724256159 L 970.9558765144598 104.5059800589475 L 971.1942028093948 104.50195002132008 L 971.4326063359458 104.49899753267972 L 971.6710632539587 104.49712288827283 L 971.9095497179405 104.49632627556227 L 972.1480418794436 104.49660777420866 L 972.3865158894504 104.49796735606236 L 972.6249479007588 104.50040488516633 L 972.8633140703663 104.5039201177697 L 973.1015905618546 104.5085127023521 L 973.3397535477731 104.51418217965895 L 973.5777792120216 104.5209279827472 L 973.8156437522321 104.52874943704218 L 974.0533233821487 104.53764576040498 L 974.2907943340068 104.54761606321068 L 974.5280328609088 104.5586593484373 L 974.7650152391997 104.57077451176553 L 975.0017177708393 104.58396034168912 L 975.2381167857716 104.59821551963608 L 975.4741886442922 104.61353862010048 L 975.7099097394118 104.62992811078506 L 975.9452564992175 104.64738235275439 L 976.1802053892294 104.66589960059883 L 976.4147329147542 104.68547800260903 L 976.6488156232349 104.7061156009611 L 976.8824301065956 104.7278103319124 L 977.1155530035827 104.7505600260079 L 977.3481610021008 104.77436240829718 L 977.5802308415439 104.79921509856183 L 977.8117393151214 104.82511561155353 L 978.0426632721789 104.85206135724258 L 978.2729796205131 104.88004964107684 L 978.502665328681 104.90907766425126 L 978.7316974283034 104.93914252398773 L 978.960053016361 104.9702412138253 L 979.1877092574855 105.00237062392094 L 979.4146433862422 105.03552754136038 L 979.6408327094076 105.06970865047953 L 979.8662546082379 105.10491053319595 L 980.0908865407308 105.1411296693507 L 980.3147060438805 105.17836243706036 L 980.5376907359231 105.21660511307917 L 980.7598183185751 105.25585387317142 L 980.9810665792636 105.29610479249378 L 981.2014133933467 105.33735384598788 L 981.4208367263266 105.37959690878274 L 981.639314636053 105.42282975660729 L 981.8568252749169 105.46704806621275 L 982.0733468920357 105.51224741580504 L 982.2888578354281 105.55842328548684 L 982.5033365541793 105.60557105770968 L 982.7167616005963 105.65368601773561 L 982.9291116323523 105.70276335410874 L 983.140365414621 105.75279815913633 L 983.3505018222002 105.80378542937956 L 983.5594998416242 105.8557200661539 L 983.7673385732654 105.90859687603896 L 983.9739972334237 105.9624105713978 L 984.1794551564054 106.01715577090575 L 984.3836917965893 106.07282700008845 L 984.5866867304817 106.12941869186939 L 984.7884196587582 106.18692518712656 L 984.9888704082944 106.24534073525835 L 985.188018934182 106.30465949475862 L 985.3858453217346 106.36487553380087 L 985.5823297884782 106.42598283083136 L 985.77745268613 106.48797527517131 L 985.9711945025628 106.55084666762794 L 986.1635358637561 106.61459072111441 L 986.3544575357346 106.67920106127849 L 986.5439404264897 106.74467122714 L 986.7319655878906 106.8109946717369 L 986.9185142175777 106.87816476278005 L 987.1035676608434 106.94617478331625 L 987.2871074124977 107.01501793240017 L 987.4691151187184 107.08468732577425 L 987.6495725788865 107.15517599655723 L 987.8284617474063 107.22647689594075 L 988.0057647355101 107.29858289389429 L 988.1814638130469 107.37148677987817 L 988.3555414102552 107.4451812635645 L 988.5279801195205 107.51965897556637 L 988.6987626971155 107.59491246817461 L 988.8678720649248 107.6709342161027 L 989.0352913121524 107.74771661723916 L 989.2010036970132 107.82525199340789 L 989.3649926484069 107.90353259113589 L 989.5272417675749 107.98255058242859 L 989.6877348297405 108.06229806555274 L 989.8464557857313 108.14276706582646 L 990.0033887635839 108.2239495364168 L 990.1585180701312 108.30583735914435 L 990.3118281925721 108.38842234529507 L 990.4633038000218 108.47169623643916 L 990.6129297450459 108.55565070525691 L 990.7606910651747 108.6402773563714 L 990.9065729843992 108.72556772718804 L 991.050560914649 108.8115132887408 L 991.1926404572513 108.89810544654519 L 991.33279740437 108.98533554145756 L 991.4710177404272 109.07319485054111 L 991.6072876435046 109.16167458793817 L 991.7415934867254 109.2507659057487 L 991.8739218396172 109.34045989491518 L 992.0042594694548 109.43074758611344 L 992.1325933425842 109.52161995064961 L 992.2589106257249 109.61306790136292 L 992.3831986872535 109.70508229353456 L 992.5054450984679 109.79765392580197 L 992.6256376348286 109.89077354107904 L 992.7437642771823 109.98443182748187 L 992.859813212963 110.07861941925987 L 992.9737728373739 110.17332689773234 L 993.0856317545475 110.26854479223036 L 993.1953787786854 110.36426358104383 L 993.3030029351766 110.46047369237363 L 993.408493461695 110.5571655052888 L 993.511839809276 110.65432935068861 L 993.613031643371 110.75195551226952 L 993.7120588448809 110.85003422749672 L 993.8089115111678 110.94855568858041 L 993.9035799570462 111.04751004345658 L 993.9960547157501 111.14688739677221 L 994.0863265398809 111.2466778108748 L 994.1743864023313 111.34687130680607 L 994.2602254971883 111.44745786529992 L 994.3438352406143 111.54842742778435 L 994.4252072717043 111.64976989738723 L 994.5043334533232 111.75147513994605 L 994.5812058729186 111.85353298502133 L 994.6558168433128 111.95593322691359 L 994.7281589034708 112.05866562568397 L 994.798224819247 112.16171990817823 L 994.866007584108 112.26508576905398 L 994.931500419834 112.36875287181127 L 994.9946967771959 112.47271084982621 L 995.0555903366106 112.57694930738765 L 995.114175008773 112.68145782073668 L 995.1704449352646 112.78622593910906 L 995.2243944891399 112.89124318578025 L 995.2760182754881 112.99649905911312 L 995.3253111319738 113.10198303360804 L 995.3722681293524 113.20768456095544 L 995.4168845719632 113.31359307109071 L 995.4591559981993 113.41969797325106 L 995.4990781809531 113.52598865703472 L 995.5366471280398 113.63245449346185 L 995.5718590825958 113.73908483603756 L 995.6047105234552 113.84586902181645 L 995.635198165501 113.95279637246892 L 995.6633189599947 114.05985619534903 L 995.6890700948801 114.16703778456366 L 995.7124489950653 114.27433042204326 L 995.7334533226796 114.38172337861346 L 995.7520809773079 114.4892059150681 L 995.7683300962001 114.59676728324311 L 995.782199054458 114.70439672709132 L 995.7936864651973 114.812083483758 L 995.8027911796864 114.91981678465726 L 995.8095122874616 115.02758585654877 L 995.8138491164176 115.13537992261514 L 995.8158012328752 115.24318820353962 M 995.8159222229311 149.5814566181 L 995.8147297630275 149.6892671630166 L 995.8111525025614 149.7970669269686 L 995.8051907992561 149.90484513006933 L 995.7968452492768 150.0125909945884 L 995.7861166871716 150.12029374602906 L 995.7730061857877 150.227942614206 L 995.7575150561645 150.33552683432202 L 995.7396448474019 150.44303564804486 L 995.7193973465058 150.55045830458263 L 995.6967745782097 150.6577840617593 L 995.6717788047713 150.7650021870885 L 995.6444125257473 150.8721019588471 L 995.6146784777427 150.97907266714716 L 995.5825796341376 151.085903615007 L 995.5481192047895 151.19258411942084 L 995.5113006357127 151.29910351242717 L 995.4721276087333 151.40545114217542 L 995.4306040411216 151.51161637399125 L 995.3867340851996 151.61758859143995 L 995.3405221279262 151.72335719738808 L 995.2919727904589 151.82891161506322 L 995.2410909276908 151.93424128911153 L 995.1878816277659 152.03933568665337 L 995.1323502115697 152.14418429833657 L 995.0745022321977 152.2487766393874 L 995.0143434743995 152.3531022506588 L 994.9518799540009 152.45715069967667 L 994.8871179173017 152.56091158168277 L 994.8200638404517 152.6643745206754 L 994.7507244288028 152.76752917044686 L 994.6791066162381 152.87036521561814 L 994.6052175644794 152.9728723726704 L 994.5290646623704 153.07504039097338 L 994.4506555251376 153.17685905381038 L 994.3699979936295 153.27831817939997 L 994.287100133532 153.37940762191414 L 994.2019702345622 153.48011727249286 L 994.1146168096387 153.58043706025504 L 994.0250485940315 153.68035695330548 L 993.9332745444875 153.77986695973811 L 993.8393038383351 153.87895712863528 L 993.7431458725665 153.9776175510626 L 993.6448102628984 154.07583836106008 L 993.5443068428096 154.17360973662858 L 993.4416456625585 154.270921900712 L 993.3368369881774 154.36776512217506 L 993.2298913004465 154.46412971677626 L 993.1208192938456 154.5600060481365 L 993.0096318754843 154.65538452870248 L 992.8963401640117 154.75025562070567 L 992.7809554885048 154.84460983711594 L 992.6634893873347 154.93843774259025 L 992.5439536070138 155.03172995441622 L 992.4223601010206 155.12447714345046 L 992.2987210286042 155.21667003505132 L 992.1730487535688 155.3082994100065 L 992.0453558430373 155.3993561054548 L 991.9156550661943 155.48983101580265 L 991.7839593930094 155.57971509363435 L 991.6502819929401 155.668999350617 L 991.5146362336152 155.75767485839935 L 991.3770356794973 155.8457327495045 L 991.2374940905274 155.93316421821672 L 991.0960254207481 156.019960521462 L 990.9526438169083 156.10611297968236 L 990.8073636170492 156.19161297770376 L 990.6601993490693 156.27645196559763 L 990.5111657292732 156.36062145953588 L 990.3602776608983 156.4441130426393 L 990.207550232626 156.5269183658191 L 990.0529987170717 156.60902914861202 L 989.8966385692582 156.69043718000816 L 989.7384854250699 156.77113431927225 L 989.5785550996897 156.8511124967576 L 989.4168635860165 156.9303637147131 L 989.2534270530672 157.00888004808303 L 989.0882618443586 157.08665364529944 L 988.9213844762743 157.16367672906745 L 988.7528116364118 157.23994159714286 L 988.5825601819147 157.3154406231024 L 988.4106471377866 157.39016625710642 L 988.2370896951885 157.46411102665377 L 988.0619052097202 157.53726753732911 L 987.8851111996842 157.6096284735424 L 987.7067253443341 157.6811865992602 L 987.5267654821068 157.75193475872967 L 987.3452496088388 157.82186587719377 L 987.1621958759658 157.89097296159898 L 986.9776225887089 157.95924910129438 L 986.7915482042426 158.02668746872294 L 986.6039913298507 158.0932813201041 L 986.414970721064 158.15902399610823 L 986.2245052797862 158.22390892252253 L 986.0326140524023 158.28792961090838 L 985.8393162278755 158.3510796592503 L 985.644631135827 158.41335275259615 L 985.4485782446038 158.4747426636884 L 985.2511771593316 158.53524325358717 L 985.0524476199546 158.59484847228381 L 984.8524094992608 158.65355235930622 L 984.6510828008959 158.71134904431452 L 984.4484876573619 158.76823274768844 L 984.244644328004 158.82419778110503 L 984.0395731969858 158.87923854810757 L 983.833294771249 158.93334954466522 L 983.6258296784647 158.98652535972343 L 983.417198664969 159.03876067574504 L 983.2074225936896 159.0900502692419 L 982.9965224420586 159.1403890112975 L 982.7845192999155 159.1897718680795 L 982.5714343673978 159.2381939013434 L 982.3572889528215 159.28565026892625 L 982.1421044705492 159.3321362252308 L 981.9259024388499 159.3776471217002 L 981.7087044777468 159.42217840728267 L 981.4905323068548 159.46572562888682 L 981.2714077432092 159.50828443182675 L 981.0513526990838 159.54985056025762 L 980.8303891797998 159.59041985760126 L 980.6085392815248 159.62998826696173 L 980.3858251890638 159.66855183153106 L 980.1622691736403 159.70610669498492 L 979.9378935906699 159.7426491018683 L 979.7127208775236 159.7781753979709 L 979.4867735512852 159.81268203069277 L 979.260074206499 159.84616554939936 L 979.0326455129106 159.8786226057667 L 978.8045102131997 159.91004995411626 L 978.5756911207064 159.94044445173932 L 978.3462111171491 159.9698030592115 L 978.1160931503371 159.99812284069648 L 977.885360231875 160.02540096423974 L 977.6540354348626 160.05163470205162 L 977.4221418915868 160.07682143078023 L 977.1897027912087 160.1009586317737 L 976.9567413774446 160.124043891332 L 976.7232809462416 160.14607490094846 L 976.4893448434486 160.16704945754043 L 976.2549564624807 160.18696546366976 L 976.0201392419807 160.20582092775246 L 975.7849166634751 160.22361396425777 L 975.5493122490254 160.2403427938969 L 975.3133495588771 160.25600574380084 L 975.0770521891025 160.27060124768764 L 974.8404437692415 160.28412784601906 L 974.6035479599389 160.29658418614653 L 974.3663884505784 160.30796902244649 L 974.1289889569132 160.3182812164447 L 973.8913732186948 160.3275197369304 L 973.6535649972991 160.3356836600593 L 973.41558807335 160.34277216944577 L 973.1774662443416 160.34878455624485 L 972.9392233222585 160.35372021922285 L 972.7008831311941 160.35757866481762 L 972.4624695049691 160.36035950718778 L 972.2240062847474 160.36206246825142 L 971.9855173166522 160.36268737771385 L 971.7470264493817 160.36223417308466 L 971.5085575318238 160.3607028996839 L 971.2701344106716 160.35809371063766 L 971.0317809280386 160.3544068668627 L 970.7935209190742 160.34964273704026 L 970.555378209581 160.3438017975794 L 970.3173766136314 160.33688463256917 L 970.0795399311866 160.3288919337203 L 969.8418919457166 160.31982450029608 L 969.6044564218221 160.30968323903224 L 969.3672571028574 160.29846916404645 L 969.130317708557 160.28618339673687 L 968.8936619326627 160.27282716567004 L 968.6573134405548 160.25840180645787 L 968.4212958668858 160.2429087616243 L 968.1856328132162 160.2263495804609 L 967.9503478456551 160.20872591887195 L 967.7154644925031 160.19003953920898 L 967.4810062418998 160.17029231009434 L 967.2469965394749 160.14948620623449 L 967.0134587860035 160.1276233082225 L 966.7804163350667 160.10470580232996 L 966.547892490715 160.08073598028832 L 966.3159105051391 160.05571623905982 L 966.0844935763445 160.02964908059778 L 965.853664845831 160.00253711159627 L 965.6234473962794 159.9743830432296 L 965.3938642492428 159.9451896908812 L 965.1649383628445 159.9149599738619 L 964.9366926294825 159.88369691511826 L 964.7091498735399 159.85140364093007 L 964.4823328491026 159.8180833805979 L 964.2562642376841 159.78373946611993 L 964.0309666459572 159.74837533185905 L 963.8064626034931 159.7119945141992 L 963.5827745605092 159.67460065119184 L 963.3599248856233 159.63619748219207 L 963.1379358636171 159.59678884748485 L 962.9168296932081 159.55637868790075 L 962.6966284848287 159.51497104442208 L 962.4773542584165 159.47257005777868 L 962.2590289412113 159.42917996803388 L 962.0416743655629 159.38480511416049 L 961.8253122667479 159.33944993360691 L 961.6099642807956 159.29311896185345 L 961.3956519423253 159.24581683195862 L 961.1823966823922 159.197548274096 L 960.9702198263448 159.14831811508117 L 960.7591425916914 159.098131277889 L 960.5491860859801 159.0469927811614 L 960.3403713046862 158.9949077387054 L 960.1327191291139 158.94188135898187 L 959.9262503243077 158.88791894458456 L 959.7209855369761 158.83302589170998 L 959.5169452934266 158.77720768961765 L 959.3141499975136 158.72046992008126 L 959.1126199285978 158.6628182568305 L 958.9123752395182 158.60425846498364 L 958.7134359545765 158.54479640047106 L 958.5158219675358 158.4844380094497 L 958.3195530396299 158.4231893277083 L 958.1246487975881 158.361056480064 L 957.9311287316722 158.29804567974986 L 957.7390121937274 158.23416322779335 L 957.5483183952476 158.16941551238642 L 957.3590664054536 158.10380900824669 L 957.1712751493867 158.03735027596986 L 956.984963406016 157.97004596137378 L 956.8001498063607 157.9019027948339 L 956.6168528316266 157.83292759060998 L 956.4350908113584 157.76312724616503 L 956.2548819216069 157.6925087414753 L 956.0762441831106 157.62107913833242 L 955.8991954594946 157.5488455796372 L 955.7237534554838 157.47581528868528 L 955.5499357151324 157.4019955684449 L 955.3777596200695 157.3273938008266 L 955.2072423877611 157.25201744594494 L 955.0384010697885 157.17587404137262 L 954.8712525501426 157.09897120138663 L 954.7058135435362 157.0213166162069 L 954.542100593732 156.94291805122717 L 954.3801300718887 156.8637833462387 L 954.2199181749235 156.783920414646 L 954.0614809238923 156.70333724267567 L 953.9048341623885 156.62204188857777 L 953.7499935549577 156.54004248181994 L 953.5969745855314 156.45734722227456 L 953.445792555879 156.37396437939864 L 953.2964625840777 156.289902291407 L 953.1489996030002 156.2051693644384 L 953.0034183588217 156.1197740717149 L 952.8597334095452 156.0337249526946 L 952.717959123546 155.9470306122177 L 952.5781096781346 155.85969971964604 L 952.4401990581389 155.77174100799607 L 952.3042410545058 155.68316327306567 L 952.1702492629228 155.59397537255452 L 952.038237082457 155.50418622517833 L 951.9082177142167 155.41380480977702 L 951.7802041600302 155.32284016441682 L 951.6542092211463 155.23130138548646 L 951.530245496954 155.13919762678756 L 951.4083253837223 155.0465380986192 L 951.2884610733608 154.95333206685703 L 951.170664552201 154.85958885202652 L 951.0549475997965 154.76531782837105 L 950.9413217877462 154.67052842291443 L 950.8297984785369 154.5752301145182 L 950.7203888244062 154.4794324329338 L 950.6131037662285 154.38314495784954 L 950.5079540324202 154.2863773179327 L 950.4049501378672 154.18913918986664 L 950.3041023828729 154.09144029738312 L 950.2054208521288 153.99329041028997 L 950.1089154137059 153.89469934349412 L 950.0145957180674 153.79567695602012 L 949.9224711971044 153.6962331500241 L 949.8325510631922 153.59637786980392 L 949.7448443082693 153.4961211008043 L 949.659359702938 153.3954728686186 L 949.5761057955878 153.29444323798623 L 949.4950909115397 153.193042311786 L 949.4163231522149 153.09128023002603 L 949.3398103943236 152.9891671688297 L 949.2655602890778 152.8867133394181 L 949.1935802614263 152.7839289870887 L 949.1238775093116 152.6808243901911 L 949.0564590029511 152.57740985909913 L 948.9913314841391 152.47369573517966 L 948.9285014655732 152.36969238975868 L 948.867975230203 152.26541022308405 L 948.8097588306015 152.16085966328555 L 948.7538580883603 152.056051165332 L 948.7002785935068 151.9509952099859 L 948.649025703946 151.84570230275523 L 948.6001045449242 151.74018297284294 L 948.5535200085163 151.63444777209415 L 948.5092767531374 151.52850727394073 L 948.467379203076 151.4223720723443 L 948.4278315480523 151.31605278073653 L 948.3906377427986 151.20956003095796 L 948.3558015066648 151.1029044721949 L 948.323326323245 150.99609676991426 L 948.2932154400311 150.8891476047973 L 948.2654718680858 150.78206767167143 L 948.2400983817435 150.6748676784407 L 948.2170975183315 150.5675583450151 L 948.196471577917 150.46015040223858 L 948.1782226230769 150.35265459081586 L 948.1623524786914 150.24508166023855 L 948.1488627317619 150.13744236771007 L 948.1377547312517 150.0297474770699 L 948.1290295879517 149.92200775771744 L 948.1226881743687 149.8142339835348 L 948.1187311246391 149.70643693180958 L 948.1171588344644 149.59862738215716" stroke-miterlimit="10" stroke-width="2.7769845610000004" stroke-dasharray=""/></g><g><g/><text fill="black" stroke="none" font-family="sans-serif" font-size="11pt" font-style="normal" font-weight="normal" text-decoration="normal" x="940.5885804586421" y="177.890363937" text-anchor="start" dominant-baseline="alphabetic" xml:space="preserve">Database</text></g></g><g><path fill="white" stroke="black" paint-order="fill stroke markers" d=" M 204.51978848437244 236.697095817 L 220.85499178437243 236.697095817 L 220.85499178437243 813.3297723069996 L 204.51978848437244 813.3297723069996 L 204.51978848437244 236.697095817" stroke-miterlimit="10" stroke-width="1.3612669416666667" stroke-dasharray=""/><path fill="white" stroke="black" paint-order="fill stroke markers" d=" M 340.27176440699355 282.435665057 L 356.60696770699354 282.435665057 L 356.60696770699354 767.5912030669997 L 340.27176440699355 767.5912030669997 L 340.27176440699355 282.435665057" stroke-miterlimit="10" stroke-width="1.3612669416666667" stroke-dasharray=""/><path fill="white" stroke="black" paint-order="fill stroke markers" d=" M 462.94909611164593 336.341835947 L 479.2842994116459 336.341835947 L 479.2842994116459 538.898356867 L 462.94909611164593 538.898356867 L 462.94909611164593 336.341835947" stroke-miterlimit="10" stroke-width="1.3612669416666667" stroke-dasharray=""/><path fill="white" stroke="black" paint-order="fill stroke markers" d=" M 864.4603738632006 390.248006837 L 880.7955771632007 390.248006837 L 880.7955771632007 538.898356867 L 864.4603738632006 538.898356867 L 864.4603738632006 390.248006837" stroke-miterlimit="10" stroke-width="1.3612669416666667" stroke-dasharray=""/><path fill="white" stroke="black" paint-order="fill stroke markers" d=" M 599.9287102788959 573.202283797 L 616.263913578896 573.202283797 L 616.263913578896 630.3754953469999 L 599.9287102788959 630.3754953469999 L 599.9287102788959 573.202283797" stroke-miterlimit="10" stroke-width="1.3612669416666667" stroke-dasharray=""/><path fill="white" stroke="black" paint-order="fill stroke markers" d=" M 745.0543434280795 664.6794222769998 L 761.3895467280796 664.6794222769998 L 761.3895467280796 767.5912030669997 L 745.0543434280795 767.5912030669997 L 745.0543434280795 664.6794222769998" stroke-miterlimit="10" stroke-width="1.3612669416666667" stroke-dasharray=""/><g><text fill="black" stroke="none" font-family="sans-serif" font-size="11pt" font-style="normal" font-weight="normal" text-decoration="normal" x="131.50117045143037" y="230.16301449699998" text-anchor="start" dominant-baseline="alphabetic" xml:space="preserve"></text></g><g><path fill="none" stroke="black" paint-order="fill stroke markers" d=" M 58.48255241848829 236.697095817 L 191.0704711007058 236.697095817" stroke-miterlimit="10" stroke-width="1.3612669416666667" stroke-dasharray=""/><g transform="translate(204.51978848437244,236.697095817) translate(-204.51978848437244,-236.697095817)"><path fill="black" stroke="none" paint-order="stroke fill markers" d=" M 190.90711906770576 229.89076110866665 L 204.51978848437244 236.697095817 L 190.90711906770576 243.50343052533333 Z"/></g></g><g><text fill="black" stroke="none" font-family="sans-serif" font-size="11pt" font-style="normal" font-weight="normal" text-decoration="normal" x="280.563378095683" y="275.90158373699995" text-anchor="start" dominant-baseline="alphabetic" xml:space="preserve"></text></g><g><path fill="none" stroke="black" paint-order="fill stroke markers" d=" M 220.85499178437243 282.435665057 L 326.8224470233269 282.435665057" stroke-miterlimit="10" stroke-width="1.3612669416666667" stroke-dasharray=""/><g transform="translate(340.27176440699355,282.435665057) translate(-340.27176440699355,-282.435665057)"><path fill="black" stroke="none" paint-order="stroke fill markers" d=" M 326.6590949903269 275.62933034866666 L 340.27176440699355 282.435665057 L 326.6590949903269 289.24199976533333 Z"/></g></g><g><text fill="black" stroke="none" font-family="sans-serif" font-size="11pt" font-style="normal" font-weight="normal" text-decoration="normal" x="409.77803190931974" y="321.64015297699996" text-anchor="start" dominant-baseline="alphabetic" xml:space="preserve"></text></g><g><path fill="none" stroke="black" paint-order="fill stroke markers" d=" M 356.60696770699354 320.006632647 L 449.6556998031708 334.2998387206504" stroke-miterlimit="10" stroke-width="1.3612669416666667" stroke-dasharray=""/><g transform="translate(462.94909611164593,336.341835947) rotate(8.732938208308173,0,0) translate(-462.94909611164593,-336.341835947)"><path fill="black" stroke="none" paint-order="stroke fill markers" d=" M 449.33642669497925 329.53550123866665 L 462.94909611164593 336.341835947 L 449.33642669497925 343.14817065533333 Z"/><g transform="rotate(-8.732938208308173,0,0)"/></g></g><g><text fill="black" stroke="none" font-family="sans-serif" font-size="11pt" font-style="normal" font-weight="normal" text-decoration="normal" x="671.8723366374232" y="375.54632386699996" text-anchor="start" dominant-baseline="alphabetic" xml:space="preserve"></text></g><g><path fill="none" stroke="black" paint-order="fill stroke markers" d=" M 479.2842994116459 373.912803537 L 851.0231350454977 389.67813751635134" stroke-miterlimit="10" stroke-width="1.3612669416666667" stroke-dasharray=""/><g transform="translate(864.4603738632006,390.248006837) rotate(2.428441828376671,0,0) translate(-864.4603738632006,-390.248006837)"><path fill="black" stroke="none" paint-order="stroke fill markers" d=" M 850.847704446534 383.44167212866665 L 864.4603738632006 390.248006837 L 850.847704446534 397.05434154533333 Z"/><g transform="rotate(-2.428441828376671,0,0)"/></g></g><g><text fill="black" stroke="none" font-family="sans-serif" font-size="11pt" font-style="normal" font-weight="normal" text-decoration="normal" x="926.381051284066" y="429.45249475699995" text-anchor="start" dominant-baseline="alphabetic" xml:space="preserve"></text></g><g><path fill="none" stroke="black" paint-order="fill stroke markers" d=" M 880.7955771632007 435.986576077 L 958.5172080212645 435.986576077" stroke-miterlimit="10" stroke-width="1.3612669416666667" stroke-dasharray=""/><g transform="translate(971.9665254049312,435.986576077) translate(-971.9665254049312,-435.986576077)"><path fill="black" stroke="none" paint-order="stroke fill markers" d=" M 958.3538559882645 429.18024136866666 L 971.9665254049312 435.986576077 L 958.3538559882645 442.79291078533333 Z"/></g></g><g><text fill="black" stroke="none" font-family="sans-serif" font-size="11pt" font-style="normal" font-weight="normal" text-decoration="normal" x="926.381051284066" y="475.19106399699996" text-anchor="start" dominant-baseline="alphabetic" xml:space="preserve"></text></g><g><path fill="none" stroke="black" paint-order="fill stroke markers" d=" M 971.9665254049312 481.725145317 L 894.2448945468674 481.725145317" stroke-miterlimit="10" stroke-width="1.3612669416666667" stroke-dasharray="6.53408132"/><g transform="translate(880.7955771632007,481.725145317) translate(-880.7955771632007,-481.725145317)"><path fill="black" stroke="none" paint-order="stroke fill markers" d=" M 894.4082465798674 474.91881060866666 L 880.7955771632007 481.725145317 L 894.4082465798674 488.53148002533334 Z"/></g></g><g><text fill="black" stroke="none" font-family="sans-serif" font-size="11pt" font-style="normal" font-weight="normal" text-decoration="normal" x="671.8723366374232" y="520.929633237" text-anchor="start" dominant-baseline="alphabetic" xml:space="preserve"></text></g><g><path fill="none" stroke="black" paint-order="fill stroke markers" d=" M 864.4603738632006 527.463714557 L 492.73361679531257 527.463714557" stroke-miterlimit="10" stroke-width="1.3612669416666667" stroke-dasharray="6.53408132"/><g transform="translate(479.2842994116459,527.463714557) translate(-479.2842994116459,-527.463714557)"><path fill="black" stroke="none" paint-order="stroke fill markers" d=" M 492.8969688283126 520.6573798486667 L 479.2842994116459 527.463714557 L 492.8969688283126 534.2700492653333 Z"/></g></g><g><text fill="black" stroke="none" font-family="sans-serif" font-size="11pt" font-style="normal" font-weight="normal" text-decoration="normal" x="478.2678389929447" y="566.6682024769999" text-anchor="start" dominant-baseline="alphabetic" xml:space="preserve"></text></g><g><path fill="none" stroke="black" paint-order="fill stroke markers" d=" M 356.60696770699354 573.202283797 L 586.4793928952292 573.202283797" stroke-miterlimit="10" stroke-width="1.3612669416666667" stroke-dasharray=""/><g transform="translate(599.9287102788959,573.202283797) translate(-599.9287102788959,-573.202283797)"><path fill="black" stroke="none" paint-order="stroke fill markers" d=" M 586.3160408622292 566.3959490886666 L 599.9287102788959 573.202283797 L 586.3160408622292 580.0086185053333 Z"/></g></g><g><text fill="black" stroke="none" font-family="sans-serif" font-size="11pt" font-style="normal" font-weight="normal" text-decoration="normal" x="478.2678389929447" y="612.4067717169999" text-anchor="start" dominant-baseline="alphabetic" xml:space="preserve"></text></g><g><path fill="none" stroke="black" paint-order="fill stroke markers" d=" M 599.9287102788959 618.9408530369999 L 370.0562850906602 618.9408530369999" stroke-miterlimit="10" stroke-width="1.3612669416666667" stroke-dasharray="6.53408132"/><g transform="translate(356.60696770699354,618.9408530369999) translate(-356.60696770699354,-618.9408530369999)"><path fill="black" stroke="none" paint-order="stroke fill markers" d=" M 370.2196371236602 612.1345183286666 L 356.60696770699354 618.9408530369999 L 370.2196371236602 625.7471877453332 Z"/></g></g><g><text fill="black" stroke="none" font-family="sans-serif" font-size="11pt" font-style="normal" font-weight="normal" text-decoration="normal" x="550.8306555675365" y="658.1453409569998" text-anchor="start" dominant-baseline="alphabetic" xml:space="preserve"></text></g><g><path fill="none" stroke="black" paint-order="fill stroke markers" d=" M 356.60696770699354 664.6794222769998 L 731.6050260444129 664.6794222769998" stroke-miterlimit="10" stroke-width="1.3612669416666667" stroke-dasharray=""/><g transform="translate(745.0543434280795,664.6794222769998) translate(-745.0543434280795,-664.6794222769998)"><path fill="black" stroke="none" paint-order="stroke fill markers" d=" M 731.4416740114128 657.8730875686665 L 745.0543434280795 664.6794222769998 L 731.4416740114128 671.4857569853332 Z"/></g></g><g><text fill="black" stroke="none" font-family="sans-serif" font-size="11pt" font-style="normal" font-weight="normal" text-decoration="normal" x="550.8306555675365" y="703.8839101969998" text-anchor="start" dominant-baseline="alphabetic" xml:space="preserve"></text></g><g><path fill="none" stroke="black" paint-order="fill stroke markers" d=" M 745.0543434280795 710.4179915169998 L 370.0562850906602 710.4179915169998" stroke-miterlimit="10" stroke-width="1.3612669416666667" stroke-dasharray="6.53408132"/><g transform="translate(356.60696770699354,710.4179915169998) translate(-356.60696770699354,-710.4179915169998)"><path fill="black" stroke="none" paint-order="stroke fill markers" d=" M 370.2196371236602 703.6116568086665 L 356.60696770699354 710.4179915169998 L 370.2196371236602 717.2243262253331 Z"/></g></g><g><text fill="black" stroke="none" font-family="sans-serif" font-size="11pt" font-style="normal" font-weight="normal" text-decoration="normal" x="280.563378095683" y="749.6224794369997" text-anchor="start" dominant-baseline="alphabetic" xml:space="preserve"></text></g><g><path fill="none" stroke="black" paint-order="fill stroke markers" d=" M 340.27176440699355 756.1565607569997 L 234.30430916803908 756.1565607569997" stroke-miterlimit="10" stroke-width="1.3612669416666667" stroke-dasharray="6.53408132"/><g transform="translate(220.85499178437243,756.1565607569997) translate(-220.85499178437243,-756.1565607569997)"><path fill="black" stroke="none" paint-order="stroke fill markers" d=" M 234.4676612010391 749.3502260486664 L 220.85499178437243 756.1565607569997 L 234.4676612010391 762.9628954653331 Z"/></g></g><g><text fill="black" stroke="none" font-family="sans-serif" font-size="11pt" font-style="normal" font-weight="normal" text-decoration="normal" x="105.01227884986787" y="795.3610486769996" text-anchor="start" dominant-baseline="alphabetic" xml:space="preserve">respond</text></g><g><path fill="none" stroke="black" paint-order="fill stroke markers" d=" M 204.51978848437244 801.8951299969997 L 71.93186980215495 801.8951299969997" stroke-miterlimit="10" stroke-width="1.3612669416666667" stroke-dasharray="6.53408132"/><g transform="translate(58.48255241848829,801.8951299969997) translate(-58.48255241848829,-801.8951299969997)"><path fill="black" stroke="none" paint-order="stroke fill markers" d=" M 72.09522183515496 795.0887952886663 L 58.48255241848829 801.8951299969997 L 72.09522183515496 808.701464705333 Z"/></g></g></g><g/></g></svg>