<svg version="1.1" xmlns="http://www.w3.org/2000/svg" xmlns:xlink="http://www.w3.org/1999/xlink" width="1591" height="1777"><desc>title%20Generic%20Domain-Driven%20Scenario%0A%0Aactor%20%22API%20Client%22%20as%20client%0Aparticipantgroup%20WebAPI%5CnLayer%0Aparticipant%20%22Controller%22%20as%20api%0Aparticipant%20%22DTO%22%20as%20apiDTO%0Aparticipant%20%22Domain%5Cnobject%22%20as%20domainObject%0Aend%0Aparticipantgroup%20Application%5CnLayer%0Aparticipant%20%22Application%5CnService%22%20as%20appservice%0Aparticipant%20%22Repository%22%20as%20repository%0Aend%0Aparticipantgroup%20Domain%5CnLayer%0Aparticipant%20%22Aggregate%5CnRoot%22%20as%20aggregateroot%0Aparticipant%20%22Domain%5CnService%22%20as%20domainservice%0Aend%0Aparticipantgroup%20Infrastructure%5CnLayer%0Aparticipant%20%22Infrastructure%5CnService%22%20as%20infservice%0Aparticipant%20%22Data%5CnService%22%20as%20dataservice%0Aparticipant%20%22DTO%22%20as%20dataDTO%0Aparticipant%20%22Domain%5Cnobject%22%20as%20dataDomainObject%0Aend%0Adatabase%20Database%0A%0Aclient-%3Eapi%3A%0Aactivate%20api%0Aapi-%3E*domainObject%3Avalidate%20%26%5Cntranslate%0Aapi%3C-domainObject%3A%0Adestroy%20domainObject%0Aapi-%3Eappservice%3A%0Aactivate%20appservice%0Aappservice-%3E(1)repository%3A%0Aactivate%20repository%0Arepository-%3E(1)dataservice%3A%0Aactivate%20dataservice%0A%0Aalt%20upsert%0Adataservice-%3E*dataDTO%3Atranslate%0Adataservice%3C-dataDTO%3A%0Adataservice-%3EDatabase%3Astore%0Adataservice%3C--Database%3A%0Adestroyafter%20dataDTO%0Aelse%20get%0Adataservice-%3EDatabase%3Aretrieve%0Adataservice%3C--Database%3A%0Adataservice-%3E*dataDomainObject%3Atranslate%0Adataservice%3C-dataDomainObject%3A%0Adestroyafter%20dataDomainObject%0Aend%0Arepository%3C--dataservice%3A%0A%0Adeactivateafter%20dataservice%0Adeactivateafter%20repository%0Aappservice-%3Eaggregateroot%3A%0Aactivate%20aggregateroot%0Aappservice%3C--aggregateroot%3A%0Aappservice-%3Edomainservice%3A%0Aactivate%20domainservice%0Aappservice%3C-domainservice%3A%0Adeactivateafter%20domainservice%0Adeactivateafter%20aggregateroot%0Aappservice-%3Einfservice%3A%0Aactivate%20infservice%0Aappservice%3C--infservice%3A%0Aapi%3C--appservice%3A%0Adeactivateafter%20infservice%0Adeactivateafter%20appservice%0Aapi-%3E*apiDTO%3Atranslate%0Aapi%3C-apiDTO%3A%0Adestroy%20apiDTO%0Aclient%3C--api%3Arespond%0Adeactivateafter%20api%0A</desc><defs/><g><g/><g/><g/><g/><g/><g/><g/><g/><g/><g/><g/><g/><g/><g/><g/><g/><g/><g/><g/><g/><g/><g/><g/><g/><g/><g/><g/><g/><g/><g/><g/><g/><g/><g/><g/><g/><g/><g/><g/><g/><g/><g/><g/><g/><g/><g/><g/><g/><g/><g/><g/><g/><g/><g><rect fill="white" stroke="none" x="0" y="0" width="1591" height="1777"/></g><g><text fill="black" stroke="none" font-family="sans-serif" font-size="16.5pt" font-style="normal" font-weight="normal" text-decoration="normal" x="634.177653441377" y="24.50280495" text-anchor="start" dominant-baseline="alphabetic" xml:space="preserve">Generic Domain-Driven Scenario</text></g><g><g><path fill="none" stroke="black" paint-order="fill stroke markers" d=" M 137.29718217444662 67.2193615795 L 479.5124602771745 67.2193615795 L 479.5124602771745 1769.10251739 L 137.29718217444662 1769.10251739 L 137.29718217444662 67.2193615795" stroke-miterlimit="10" stroke-width="1.3612669416666667" stroke-dasharray=""/></g><g><text fill="black" stroke="none" font-family="sans-serif" font-size="11pt" font-style="normal" font-weight="normal" text-decoration="normal" x="281.6510675637012" y="90.0886461995" text-anchor="start" dominant-baseline="alphabetic" xml:space="preserve">WebAPI</text><text fill="black" stroke="none" font-family="sans-serif" font-size="11pt" font-style="normal" font-weight="normal" text-decoration="normal" x="281.6510675637012" y="106.42384949950001" text-anchor="start" dominant-baseline="alphabetic" xml:space="preserve">Layer</text></g><g><path fill="none" stroke="black" paint-order="fill stroke markers" d=" M 495.8476635771745 67.2193615795 L 741.2023269864793 67.2193615795 L 741.2023269864793 1769.10251739 L 495.8476635771745 1769.10251739 L 495.8476635771745 67.2193615795" stroke-miterlimit="10" stroke-width="1.3612669416666667" stroke-dasharray=""/></g><g><text fill="black" stroke="none" font-family="sans-serif" font-size="11pt" font-style="normal" font-weight="normal" text-decoration="normal" x="582.6660322691316" y="90.0886461995" text-anchor="start" dominant-baseline="alphabetic" xml:space="preserve">Application</text><text fill="black" stroke="none" font-family="sans-serif" font-size="11pt" font-style="normal" font-weight="normal" text-decoration="normal" x="582.6660322691316" y="106.42384949950001" text-anchor="start" dominant-baseline="alphabetic" xml:space="preserve">Layer</text></g><g><path fill="none" stroke="black" paint-order="fill stroke markers" d=" M 757.5375302864792 67.2193615795 L 979.2701844184403 67.2193615795 L 979.2701844184403 1769.10251739 L 757.5375302864792 1769.10251739 L 757.5375302864792 67.2193615795" stroke-miterlimit="10" stroke-width="1.3612669416666667" stroke-dasharray=""/></g><g><text fill="black" stroke="none" font-family="sans-serif" font-size="11pt" font-style="normal" font-weight="normal" text-decoration="normal" x="843.1461669227722" y="90.0886461995" text-anchor="start" dominant-baseline="alphabetic" xml:space="preserve">Domain</text><text fill="black" stroke="none" font-family="sans-serif" font-size="11pt" font-style="normal" font-weight="normal" text-decoration="normal" x="843.1461669227722" y="106.42384949950001" text-anchor="start" dominant-baseline="alphabetic" xml:space="preserve">Layer</text></g><g><path fill="none" stroke="black" paint-order="fill stroke markers" d=" M 995.60538771844 67.2193615795 L 1468.6332743202538 67.2193615795 L 1468.6332743202538 1769.10251739 L 995.60538771844 1769.10251739 L 995.60538771844 67.2193615795" stroke-miterlimit="10" stroke-width="1.3612669416666667" stroke-dasharray=""/></g><g><text fill="black" stroke="none" font-family="sans-serif" font-size="11pt" font-style="normal" font-weight="normal" text-decoration="normal" x="1188.9375378064562" y="90.0886461995" text-anchor="start" dominant-baseline="alphabetic" xml:space="preserve">Infrastructure</text><text fill="black" stroke="none" font-family="sans-serif" font-size="11pt" font-style="normal" font-weight="normal" text-decoration="normal" x="1188.9375378064562" y="106.42384949950001" text-anchor="start" dominant-baseline="alphabetic" xml:space="preserve">Layer</text></g></g><g><path fill="none" stroke="black" paint-order="fill stroke markers" d=" M 40.75885683798828 182.790924927 L 40.75885683798828 1769.10251739" stroke-miterlimit="10" stroke-width="1.3612669416666667" stroke-dasharray="12.565541,5.445067766666667"/><path fill="none" stroke="black" paint-order="fill stroke markers" d=" M 194.96369455387241 182.790924927 L 194.96369455387241 1769.10251739" stroke-miterlimit="10" stroke-width="1.3612669416666667" stroke-dasharray="12.565541,5.445067766666667"/><path fill="none" stroke="black" paint-order="fill stroke markers" d=" M 335.9831608708307 1620.45216736 L 335.9831608708307 1666.1907366" stroke-miterlimit="10" stroke-width="1.3612669416666667" stroke-dasharray="12.565541,5.445067766666667"/><path fill="none" stroke="black" paint-order="fill stroke markers" d=" M 428.363472616987 330.29781072599997 L 428.363472616987 376.03637996599997" stroke-miterlimit="10" stroke-width="1.3612669416666667" stroke-dasharray="12.565541,5.445067766666667"/><path fill="none" stroke="black" paint-order="fill stroke markers" d=" M 557.5979238203698 182.790924927 L 557.5979238203698 1769.10251739" stroke-miterlimit="10" stroke-width="1.3612669416666667" stroke-dasharray="12.565541,5.445067766666667"/><path fill="none" stroke="black" paint-order="fill stroke markers" d=" M 680.2752555250222 182.790924927 L 680.2752555250222 1769.10251739" stroke-miterlimit="10" stroke-width="1.3612669416666667" stroke-dasharray="12.565541,5.445067766666667"/><path fill="none" stroke="black" paint-order="fill stroke markers" d=" M 817.2548696922722 182.790924927 L 817.2548696922722 1769.10251739" stroke-miterlimit="10" stroke-width="1.3612669416666667" stroke-dasharray="12.565541,5.445067766666667"/><path fill="none" stroke="black" paint-order="fill stroke markers" d=" M 928.1211967582527 182.790924927 L 928.1211967582527 1769.10251739" stroke-miterlimit="10" stroke-width="1.3612669416666667" stroke-dasharray="12.565541,5.445067766666667"/><path fill="none" stroke="black" paint-order="fill stroke markers" d=" M 1064.6784781618308 182.790924927 L 1064.6784781618308 1769.10251739" stroke-miterlimit="10" stroke-width="1.3612669416666667" stroke-dasharray="12.565541,5.445067766666667"/><path fill="none" stroke="black" paint-order="fill stroke markers" d=" M 1184.0845085969518 182.790924927 L 1184.0845085969518 1769.10251739" stroke-miterlimit="10" stroke-width="1.3612669416666667" stroke-dasharray="12.565541,5.445067766666667"/><path fill="none" stroke="black" paint-order="fill stroke markers" d=" M 1325.1039749139102 644.913826284 L 1325.1039749139102 821.3340219239999" stroke-miterlimit="10" stroke-width="1.3612669416666667" stroke-dasharray="12.565541,5.445067766666667"/><path fill="none" stroke="black" paint-order="fill stroke markers" d=" M 1417.4842866600663 1059.1745819719997 L 1417.4842866600663 1144.1176391319996" stroke-miterlimit="10" stroke-width="1.3612669416666667" stroke-dasharray="12.565541,5.445067766666667"/><path fill="none" stroke="black" paint-order="fill stroke markers" d=" M 1517.6388842202539 182.790924927 L 1517.6388842202539 1769.10251739" stroke-miterlimit="10" stroke-width="1.3612669416666667" stroke-dasharray="12.565541,5.445067766666667"/></g><g><g><path fill="white" stroke="black" paint-order="fill stroke markers" d=" M 50.06992271898828 113.69301496800001 A 9.311065881 9.311065881 0 1 1 50.06991806345573 113.68370390367085 M 40.75885683798828 123.004080849 L 40.75885683798828 142.933028875 M 28.997510461988284 130.191570301 L 52.52020321398828 130.191570301 M 40.75885683798828 142.933028875 L 28.997510461988284 161.555160637 M 40.75885683798828 142.933028875 L 52.52020321398828 161.555160637" stroke-miterlimit="10" stroke-width="2.7769845610000004" stroke-dasharray=""/></g><g><text fill="black" stroke="none" font-family="sans-serif" font-size="11pt" font-style="normal" font-weight="normal" text-decoration="normal" x="8.167601650000002" y="177.890363937" text-anchor="start" dominant-baseline="alphabetic" xml:space="preserve">API Client</text></g><path fill="none" stroke="none"/><g><path fill="white" stroke="black" paint-order="fill stroke markers" d=" M 145.4647838244466 138.84922805000002 L 244.4626052832982 138.84922805000002 L 244.4626052832982 182.79092492700002 L 145.4647838244466 182.79092492700002 L 145.4647838244466 138.84922805000002 Z" stroke-miterlimit="10" stroke-width="2.613632528" stroke-dasharray=""/></g><g><text fill="black" stroke="none" font-family="sans-serif" font-size="11pt" font-style="normal" font-weight="normal" text-decoration="normal" x="163.18847940494663" y="166.455721627" text-anchor="start" dominant-baseline="alphabetic" xml:space="preserve">Controller</text></g><path fill="none" stroke="none"/><g><path fill="white" stroke="black" paint-order="fill stroke markers" d=" M 504.0152652271745 122.51402475 L 611.1805824135652 122.51402475 L 611.1805824135652 182.790924927 L 504.0152652271745 182.790924927 L 504.0152652271745 122.51402475 Z" stroke-miterlimit="10" stroke-width="2.613632528" stroke-dasharray=""/></g><g><text fill="black" stroke="none" font-family="sans-serif" font-size="11pt" font-style="normal" font-weight="normal" text-decoration="normal" x="521.7389608076745" y="150.12051832699998" text-anchor="start" dominant-baseline="alphabetic" xml:space="preserve">Application</text><text fill="black" stroke="none" font-family="sans-serif" font-size="11pt" font-style="normal" font-weight="normal" text-decoration="normal" x="533.1562810591394" y="166.45572162699997" text-anchor="start" dominant-baseline="alphabetic" xml:space="preserve">Service</text></g><path fill="none" stroke="none"/><g><path fill="white" stroke="black" paint-order="fill stroke markers" d=" M 627.5157857135652 138.84922805000002 L 733.0347253364793 138.84922805000002 L 733.0347253364793 182.79092492700002 L 627.5157857135652 182.79092492700002 L 627.5157857135652 138.84922805000002 Z" stroke-miterlimit="10" stroke-width="2.613632528" stroke-dasharray=""/></g><g><text fill="black" stroke="none" font-family="sans-serif" font-size="11pt" font-style="normal" font-weight="normal" text-decoration="normal" x="645.2394812940652" y="166.455721627" text-anchor="start" dominant-baseline="alphabetic" xml:space="preserve">Repository</text></g><path fill="none" stroke="none"/><g><path fill="white" stroke="black" paint-order="fill stroke markers" d=" M 765.7051319364792 122.51402475 L 868.8046074480652 122.51402475 L 868.8046074480652 182.790924927 L 765.7051319364792 182.790924927 L 765.7051319364792 122.51402475 Z" stroke-miterlimit="10" stroke-width="2.613632528" stroke-dasharray=""/></g><g><text fill="black" stroke="none" font-family="sans-serif" font-size="11pt" font-style="normal" font-weight="normal" text-decoration="normal" x="783.4288275169793" y="150.12051832699998" text-anchor="start" dominant-baseline="alphabetic" xml:space="preserve">Aggregate</text><text fill="black" stroke="none" font-family="sans-serif" font-size="11pt" font-style="normal" font-weight="normal" text-decoration="normal" x="801.7716925072136" y="166.45572162699997" text-anchor="start" dominant-baseline="alphabetic" xml:space="preserve">Root</text></g><path fill="none" stroke="none"/><g><path fill="white" stroke="black" paint-order="fill stroke markers" d=" M 885.1398107480652 122.51402475 L 971.1025827684402 122.51402475 L 971.1025827684402 182.790924927 L 885.1398107480652 182.790924927 L 885.1398107480652 122.51402475 Z" stroke-miterlimit="10" stroke-width="2.613632528" stroke-dasharray=""/></g><g><text fill="black" stroke="none" font-family="sans-serif" font-size="11pt" font-style="normal" font-weight="normal" text-decoration="normal" x="902.8635063285652" y="150.12051832699998" text-anchor="start" dominant-baseline="alphabetic" xml:space="preserve">Domain</text><text fill="black" stroke="none" font-family="sans-serif" font-size="11pt" font-style="normal" font-weight="normal" text-decoration="normal" x="903.6795539970223" y="166.45572162699997" text-anchor="start" dominant-baseline="alphabetic" xml:space="preserve">Service</text></g><path fill="none" stroke="none"/><g><path fill="white" stroke="black" paint-order="fill stroke markers" d=" M 1003.7729893684401 122.51402475 L 1125.5839669552213 122.51402475 L 1125.5839669552213 182.790924927 L 1003.7729893684401 182.790924927 L 1003.7729893684401 122.51402475 Z" stroke-miterlimit="10" stroke-width="2.613632528" stroke-dasharray=""/></g><g><text fill="black" stroke="none" font-family="sans-serif" font-size="11pt" font-style="normal" font-weight="normal" text-decoration="normal" x="1021.4966849489401" y="150.12051832699998" text-anchor="start" dominant-baseline="alphabetic" xml:space="preserve">Infrastructure</text><text fill="black" stroke="none" font-family="sans-serif" font-size="11pt" font-style="normal" font-weight="normal" text-decoration="normal" x="1040.2368354006003" y="166.45572162699997" text-anchor="start" dominant-baseline="alphabetic" xml:space="preserve">Service</text></g><path fill="none" stroke="none"/><g><path fill="white" stroke="black" paint-order="fill stroke markers" d=" M 1141.9191702552214 122.51402475 L 1226.2498469386824 122.51402475 L 1226.2498469386824 182.790924927 L 1141.9191702552214 182.790924927 L 1141.9191702552214 122.51402475 Z" stroke-miterlimit="10" stroke-width="2.613632528" stroke-dasharray=""/></g><g><text fill="black" stroke="none" font-family="sans-serif" font-size="11pt" font-style="normal" font-weight="normal" text-decoration="normal" x="1168.6013314118932" y="150.12051832699998" text-anchor="start" dominant-baseline="alphabetic" xml:space="preserve">Data</text><text fill="black" stroke="none" font-family="sans-serif" font-size="11pt" font-style="normal" font-weight="normal" text-decoration="normal" x="1159.6428658357213" y="166.45572162699997" text-anchor="start" dominant-baseline="alphabetic" xml:space="preserve">Service</text></g><g><path fill="white" stroke="black" paint-order="fill stroke markers" d=" M 1493.7894874022538 150.773926459 L 1493.7894874022538 116.469999529 L 1541.488281038254 116.469999529 L 1541.488281038254 150.773926459" stroke-miterlimit="10" stroke-width="2.7769845610000004" stroke-dasharray=""/><path fill="white" stroke="black" paint-order="fill stroke markers" d=" M 1541.488281038254 115.2775296881 L 1541.4870885783503 115.38534023301662 L 1541.4835113178842 115.4931399969686 L 1541.4775496145787 115.60091820006936 L 1541.4692040645996 115.7086640645884 L 1541.4584755024944 115.81636681602909 L 1541.4453650011105 115.92401568420601 L 1541.4298738714872 116.03159990432205 L 1541.4120036627246 116.13910871804485 L 1541.3917561618287 116.24653137458266 L 1541.3691333935324 116.3538571317593 L 1541.344137620094 116.46107525708852 L 1541.31677134107 116.56817502884712 L 1541.2870372930654 116.67514573714719 L 1541.2549384494603 116.78197668500702 L 1541.220478020112 116.88865718942087 L 1541.1836594510353 116.99517658242718 L 1541.1444864240561 117.10152421217543 L 1541.1029628564443 117.20768944399126 L 1541.0590929005223 117.31366166143997 L 1541.012880943249 117.41943026738811 L 1540.9643316057816 117.52498468506323 L 1540.9134497430136 117.63031435911152 L 1540.8602404430885 117.73540875665337 L 1540.8047090268924 117.8402573683366 L 1540.7468610475205 117.94484970938738 L 1540.6867022897222 118.0491753206588 L 1540.6242387693235 118.15322376967667 L 1540.5594767326245 118.25698465168279 L 1540.4924226557744 118.3604475906754 L 1540.4230832441253 118.46360224044686 L 1540.3514654315609 118.56643828561813 L 1540.2775763798022 118.6689454426704 L 1540.201423477693 118.77111346097338 L 1540.1230143404603 118.87293212381039 L 1540.0423568089523 118.97439124939999 L 1539.9594589488547 119.07548069191415 L 1539.8743290498849 119.17619034249289 L 1539.7869756249615 119.27651013025506 L 1539.6974074093544 119.37643002330549 L 1539.60563335981 119.47594002973813 L 1539.5116626536578 119.57503019863528 L 1539.4155046878893 119.6736906210626 L 1539.317169078221 119.7719114310601 L 1539.2166656581323 119.8696828066286 L 1539.114004477881 119.96699497071202 L 1539.0091958035 120.06383819217507 L 1538.9022501157692 120.16020278677628 L 1538.7931781091684 120.2560791181365 L 1538.681990690807 120.3514575987025 L 1538.5686989793344 120.4463286907057 L 1538.4533143038275 120.54068290711595 L 1538.3358482026574 120.63451081259025 L 1538.2163124223366 120.72780302441623 L 1538.0947189163433 120.82055021345047 L 1537.9710798439269 120.91274310505133 L 1537.8454075688915 121.00437248000651 L 1537.71771465836 121.09542917545484 L 1537.588013881517 121.18590408580266 L 1537.456318208332 121.27578816363435 L 1537.3226408082628 121.36507242061701 L 1537.186995048938 121.45374792839937 L 1537.04939449482 121.54180581950452 L 1536.9098529058501 121.62923728821674 L 1536.768384236071 121.71603359146202 L 1536.6250026322311 121.80218604968238 L 1536.4797224323718 121.88768604770375 L 1536.3325581643921 121.97252503559763 L 1536.183524544596 122.05669452953589 L 1536.0326364762211 122.1401861126393 L 1535.8799090479488 122.22299143581911 L 1535.7253575323944 122.30510221861202 L 1535.5689973845808 122.38651025000817 L 1535.4108442403926 122.46720738927226 L 1535.2509139150125 122.5471855667576 L 1535.0892224013392 122.62643678471312 L 1534.9257858683898 122.70495311808304 L 1534.7606206596813 122.78272671529945 L 1534.593743291597 122.85974979906746 L 1534.4251704517346 122.93601466714287 L 1534.2549189972374 123.01151369310242 L 1534.0830059531093 123.08623932710643 L 1533.9094485105113 123.16018409665378 L 1533.7342640250429 123.23334060732914 L 1533.5574700150069 123.30570154354238 L 1533.3790841596567 123.37725966926021 L 1533.1991242974295 123.44800782872969 L 1533.0176084241614 123.51793894719378 L 1532.8345546912885 123.58704603159897 L 1532.6499814040315 123.65532217129439 L 1532.4639070195653 123.72276053872295 L 1532.2763501451734 123.78935439010411 L 1532.0873295363867 123.85509706610824 L 1531.8968640951089 123.91998199252252 L 1531.704972867725 123.98400268090838 L 1531.5116750431982 124.04715272925033 L 1531.3169899511497 124.10942582259615 L 1531.1209370599265 124.17081573368841 L 1530.9235359746544 124.23131632358717 L 1530.7248064352773 124.29092154228384 L 1530.5247683145835 124.34962542930622 L 1530.3234416162186 124.40742211431454 L 1530.1208464726844 124.46430581768846 L 1529.9170031433268 124.52027085110502 L 1529.7119320123084 124.57531161810756 L 1529.5056535865717 124.62942261466523 L 1529.2981884937874 124.68259842972344 L 1529.0895574802917 124.73483374574504 L 1528.8797814090121 124.78612333924193 L 1528.6688812573811 124.8364620812975 L 1528.4568781152382 124.8858449380795 L 1528.2437931827205 124.93426697134342 L 1528.029647768144 124.98172333892626 L 1527.8144632858719 125.02820929523081 L 1527.5982612541727 125.0737201917002 L 1527.3810632930695 125.11825147728268 L 1527.1628911221774 125.16179869888683 L 1526.943766558532 125.20435750182676 L 1526.7237115144067 125.24592363025765 L 1526.5027479951225 125.28649292760129 L 1526.2808980968475 125.32606133696174 L 1526.0581840043865 125.36462490153107 L 1525.8346279889631 125.40217976498494 L 1525.6102524059925 125.43872217186829 L 1525.3850796928461 125.47424846797091 L 1525.1591323666078 125.50875510069277 L 1524.9324330218217 125.54223861939937 L 1524.7050043282331 125.57469567576673 L 1524.4768690285225 125.60612302411627 L 1524.248049936029 125.63651752173934 L 1524.0185699324718 125.66587612921151 L 1523.7884519656598 125.6941959106965 L 1523.5577190471977 125.72147403423973 L 1523.3263942501853 125.74770777205163 L 1523.0945007069095 125.77289450078025 L 1522.8620616065314 125.7970317017737 L 1522.6291001927673 125.82011696133202 L 1522.3956397615643 125.84214797094847 L 1522.1617036587713 125.86312252754045 L 1521.9273152778035 125.88303853366979 L 1521.6924980573035 125.90189399775247 L 1521.4572754787978 125.91968703425778 L 1521.2216710643481 125.93641586389691 L 1520.9857083742 125.95207881380085 L 1520.7494110044252 125.96667431768763 L 1520.512802584564 125.98020091601906 L 1520.2759067752615 125.99265725614656 L 1520.038747265901 126.00404209244648 L 1519.8013477722359 126.01435428644471 L 1519.5637320340174 126.02359280693042 L 1519.3259238126218 126.03175673005929 L 1519.0879468886728 126.03884523944578 L 1518.8498250596645 126.04485762624486 L 1518.611582137581 126.04979328922288 L 1518.3732419465168 126.05365173481763 L 1518.1348283202917 126.05643257718779 L 1517.8963651000702 126.05813553825143 L 1517.657876131975 126.05876044771387 L 1517.4193852647045 126.05830724308466 L 1517.1809163471466 126.05677596968391 L 1516.9424932259944 126.05416678063769 L 1516.7041397433613 126.0504799368627 L 1516.465879734397 126.04571580704027 L 1516.2277370249037 126.0398748675794 L 1515.989735428954 126.03295770256918 L 1515.7518987465091 126.02496500372034 L 1515.5142507610392 126.01589757029609 L 1515.2768152371448 126.00575630903225 L 1515.03961591818 125.99454223404646 L 1514.8026765238797 125.9822564667369 L 1514.5660207479852 125.96890023567005 L 1514.3296722558775 125.95447487645788 L 1514.0936546822086 125.93898183162432 L 1513.857991628539 125.9224226504609 L 1513.6227066609779 125.90479898887196 L 1513.3878233078258 125.88611260920898 L 1513.1533650572226 125.86636538009435 L 1512.9193553547975 125.84555927623451 L 1512.6858176013263 125.82369637822252 L 1512.4527751503892 125.80077887232996 L 1512.2202513060377 125.77680905028832 L 1511.9882693204618 125.75178930905984 L 1511.756852391667 125.72572215059779 L 1511.5260236611537 125.69861018159627 L 1511.295806211602 125.67045611322962 L 1511.0662230645655 125.64126276088119 L 1510.8372971781673 125.61103304386191 L 1510.6090514448053 125.57976998511826 L 1510.3815086888626 125.54747671093008 L 1510.1546916644254 125.5141564505979 L 1509.9286230530067 125.47981253611995 L 1509.7033254612797 125.44444840185908 L 1509.4788214188159 125.40806758419922 L 1509.255133375832 125.37067372119185 L 1509.032283700946 125.3322705521921 L 1508.81029467894 125.29286191748486 L 1508.5891885085307 125.25245175790076 L 1508.3689873001515 125.21104411442208 L 1508.1497130737391 125.16864312777868 L 1507.931387756534 125.12525303803388 L 1507.7140331808857 125.0808781841605 L 1507.4976710820706 125.03552300360693 L 1507.2823230961183 124.98919203185345 L 1507.068010757648 124.94188990195862 L 1506.854755497715 124.893621344096 L 1506.6425786416673 124.84439118508118 L 1506.4315014070141 124.79420434788902 L 1506.2215449013029 124.7430658511614 L 1506.0127301200089 124.69098080870542 L 1505.8050779444366 124.63795442898189 L 1505.5986091396303 124.58399201458458 L 1505.3933443522988 124.52909896170999 L 1505.1893041087492 124.47328075961767 L 1504.9865088128363 124.41654299008127 L 1504.7849787439206 124.3588913268305 L 1504.5847340548407 124.30033153498366 L 1504.3857947698993 124.24086947047108 L 1504.1881807828586 124.1805110794497 L 1503.9919118549526 124.1192623977083 L 1503.7970076129109 124.05712955006403 L 1503.6034875469948 123.99411874974987 L 1503.41137100905 123.93023629779336 L 1503.2206772105703 123.86548858238643 L 1503.0314252207763 123.79988207824668 L 1502.8436339647094 123.73342334596987 L 1502.6573222213387 123.66611903137381 L 1502.4725086216833 123.5979758648339 L 1502.2892116469493 123.52900066061 L 1502.107449626681 123.45920031616504 L 1501.9272407369294 123.3885818114753 L 1501.7486029984332 123.31715220833243 L 1501.5715542748173 123.2449186496372 L 1501.3961122708065 123.17188835868528 L 1501.222294530455 123.09806863844491 L 1501.050118435392 123.02346687082661 L 1500.879601203084 122.94809051594495 L 1500.7107598851112 122.87194711137262 L 1500.5436113654653 122.79504427138663 L 1500.3781723588588 122.71738968620689 L 1500.2144594090548 122.63899112122719 L 1500.0524888872114 122.55985641623872 L 1499.892276990246 122.479993484646 L 1499.733839739215 122.39941031267568 L 1499.5771929777113 122.31811495857778 L 1499.4223523702804 122.23611555181996 L 1499.269333400854 122.15342029227457 L 1499.1181513712017 122.07003744939865 L 1498.9688213994004 121.98597536140701 L 1498.821358418323 121.9012424344384 L 1498.6757771741445 121.8158471417149 L 1498.532092224868 121.7297980226946 L 1498.3903179388687 121.64310368221773 L 1498.2504684934572 121.55577278964606 L 1498.1125578734616 121.4678140779961 L 1497.9765998698285 121.3792363430657 L 1497.8426080782456 121.29004844255454 L 1497.7105958977797 121.20025929517834 L 1497.5805765295395 121.10987787977703 L 1497.452562975353 121.01891323441684 L 1497.326568036469 120.92737445548647 L 1497.2026043122767 120.83527069678756 L 1497.080684199045 120.74261116861922 L 1496.9608198886835 120.64940513685704 L 1496.8430233675235 120.55566192202654 L 1496.727306415119 120.46139089837106 L 1496.613680603069 120.36660149291444 L 1496.5021572938595 120.27130318451822 L 1496.392747639729 120.17550550293382 L 1496.2854625815512 120.07921802784955 L 1496.180312847743 119.98245038793272 L 1496.07730895319 119.88521225986665 L 1495.9764611981957 119.78751336738313 L 1495.8777796674515 119.68936348028998 L 1495.7812742290287 119.59077241349414 L 1495.68695453339 119.49175002602011 L 1495.594830012427 119.39230622002414 L 1495.5049098785148 119.29245093980393 L 1495.417203123592 119.19219417080431 L 1495.3317185182607 119.09154593861864 L 1495.2484646109103 118.99051630798624 L 1495.1674497268625 118.889115381786 L 1495.0886819675377 118.78735330002604 L 1495.0121692096463 118.68524023882972 L 1494.9379191044006 118.58278640941809 L 1494.8659390767489 118.4800020570887 L 1494.7962363246343 118.37689746019112 L 1494.7288178182737 118.27348292909913 L 1494.6636902994617 118.16976880517967 L 1494.6008602808959 118.06576545975868 L 1494.5403340455257 117.96148329308406 L 1494.4821176459243 117.85693273328555 L 1494.4262169036829 117.75212423533202 L 1494.3726374088294 117.64706827998593 L 1494.3213845192688 117.54177537275525 L 1494.2724633602468 117.43625604284297 L 1494.2258788238391 117.33052084209415 L 1494.18163556846 117.22458034394076 L 1494.1397380183987 117.11844514234431 L 1494.1001903633748 117.01212585073652 L 1494.0629965581213 116.90563310095798 L 1494.0281603219873 116.79897754219489 L 1493.9956851385678 116.69216983991427 L 1493.9655742553537 116.58522067479731 L 1493.9378306834085 116.47814074167144 L 1493.912457197066 116.37094074844072 L 1493.8894563336542 116.26363141501513 L 1493.8688303932397 116.1562234722386 L 1493.8505814383996 116.04872766081589 L 1493.8347112940141 115.94115473023857 L 1493.8212215470846 115.83351543771006 L 1493.8101135465745 115.72582054706992 L 1493.8013884032744 115.61808082771745 L 1493.7950469896914 115.5103070535348 L 1493.7910899399617 115.4025100018096 L 1493.789517649787 115.29470045215717 L 1493.790330276395 115.18688918544265 L 1493.7935277385236 115.07908698270286 L 1493.7991097164293 114.97130462406824 L 1493.807075651919 114.86355288768483 L 1493.8174247484058 114.7558425486365 L 1493.8301559709885 114.64818437786737 L 1493.8452680465557 114.5405891411048 L 1493.8627594639122 114.43306759778282 L 1493.882628473931 114.32563049996617 L 1493.9048730897277 114.21828859127507 L 1493.9294910868591 114.11105260581097 L 1493.9564800035462 114.00393326708301 L 1493.9858371409196 113.89694128693586 L 1494.01755956329 113.79008736447831 L 1494.0516440984418 113.68338218501361 L 1494.08808733795 113.57683641897076 L 1494.1268856375207 113.47046072083758 L 1494.1680351173563 113.36426572809525 L 1494.2115316625434 113.25826206015454 L 1494.2573709234634 113.15246031729389 L 1494.3055483162286 113.04687107959944 L 1494.3560590231398 112.94150490590698 L 1494.4088979931685 112.83637233274605 L 1494.4640599424615 112.73148387328636 L 1494.5215393548701 112.62685001628645 L 1494.581330482501 112.52248122504484 L 1494.643427346291 112.41838793635367 L 1494.7078237366054 112.31458055945505 L 1494.774513213859 112.21106947500019 L 1494.84348910916 112.10786503401127 L 1494.9147445249757 112.00497755684637 L 1494.9882723358244 111.90241733216747 L 1495.064065188986 111.8001946159116 L 1495.1421155052385 111.69831963026517 L 1495.2224154796152 111.59680256264186 L 1495.3049570821856 111.49565356466383 L 1495.3897320588585 111.39488275114658 L 1495.4767319322063 111.29450019908752 L 1495.5659480023148 111.19451594665817 L 1495.6573713476507 111.09493999220047 L 1495.7509928259562 110.99578229322687 L 1495.8468030751615 110.89705276542465 L 1495.944792514321 110.79876128166431 L 1496.0449513445728 110.70091767101232 L 1496.1472695501172 110.60353171774821 L 1496.2517368992192 110.50661316038615 L 1496.3583429452306 110.4101716907011 L 1496.467077027636 110.3142169527597 L 1496.5779282731173 110.21875854195572 L 1496.6908855966426 110.12380600405075 L 1496.8059377025736 110.02936883421941 L 1496.9230730857957 109.93545647610003 L 1497.0422800328683 109.84207832085012 L 1497.1635466231958 109.74924370620741 L 1497.28686073022 109.656961915556 L 1497.4122100226336 109.56524217699805 L 1497.5395819656112 109.47409366243099 L 1497.668963822065 109.38352548663032 L 1497.8003426539171 109.29354670633813 L 1497.9337053233937 109.2041663193575 L 1498.069038494339 109.1153932636526 L 1498.206328633549 109.02723641645508 L 1498.3455620121238 108.93970459337615 L 1498.4867247068416 108.85280654752518 L 1498.6298026015509 108.76655096863436 L 1498.774781388581 108.68094648218968 L 1498.9216465701743 108.59600164856846 L 1499.0703834599349 108.51172496218328 L 1499.220977184298 108.42812485063253 L 1499.373412684016 108.34520967385771 L 1499.527674715667 108.2629877233074 L 1499.6837478531756 108.18146722110814 L 1499.8416164893586 108.1006563192422 L 1500.0012648374834 108.02056309873245 L 1500.1626769328486 107.94119556883419 L 1500.325836634379 107.86256166623426 L 1500.4907276262406 107.7846692542574 L 1500.6573334194716 107.70752612207988 L 1500.8256373536312 107.63113998395067 L 1500.9956225984665 107.55551847841988 L 1501.167272155595 107.48066916757509 L 1501.3405688602031 107.40659953628499 L 1501.5154953827657 107.33331699145097 L 1501.6920342307758 107.26082886126648 L 1501.870167750496 107.1891423944841 L 1502.0498781287224 107.11826475969077 L 1502.2311473945674 107.04820304459093 L 1502.4139574212552 106.97896425529768 L 1502.5982899279354 106.91055531563228 L 1502.784126481511 106.84298306643166 L 1502.9714484984815 106.77625426486443 L 1503.1602372468017 106.71037558375518 L 1503.3504738477534 106.64535361091707 L 1503.5421392778355 106.58119484849323 L 1503.7352143706646 106.51790571230643 L 1503.9296798188923 106.45549253121754 L 1504.1255161761358 106.39396154649268 L 1504.3227038589228 106.33331891117902 L 1504.521223148649 106.27357068948956 L 1504.7210541935508 106.2147228561967 L 1504.9221770106908 106.15678129603472 L 1505.1245714879544 106.09975180311135 L 1505.3282173860625 106.04364008032834 L 1505.5330943405954 105.98845173881124 L 1505.739181864028 105.93419229734818 L 1505.94645934778 105.88086718183811 L 1506.1549060642756 105.82848172474814 L 1506.3645011690166 105.77704116458034 L 1506.5752237026677 105.72655064534784 L 1506.7870525931507 105.67701521606048 L 1506.9999666577532 105.62843983021993 L 1507.2139446052463 105.58082934532429 L 1507.4289650380135 105.53418852238237 L 1507.6450064541907 105.48852202543759 L 1507.8620472498164 105.4438344211016 L 1508.0800657209916 105.4001301780976 L 1508.2990400660512 105.35741366681344 L 1508.518948387743 105.3156891588647 L 1508.7397686954182 105.27496082666737 L 1508.9614789072298 105.23523274302073 L 1509.1840568523417 105.19650888070004 L 1509.4074802731448 105.15879311205927 L 1509.631726827483 105.12208920864386 L 1509.856774090888 105.08640084081355 L 1510.0825995588207 105.05173157737539 L 1510.3091806489226 105.01808488522684 L 1510.5364947032738 104.98546412900906 L 1510.764518990658 104.9538725707705 L 1510.9932307088363 104.92331336964065 L 1511.222606986828 104.89378958151417 L 1511.452624887196 104.86530415874525 L 1511.683261408342 104.83785994985244 L 1511.9144934868066 104.81145969923377 L 1512.146297999574 104.78610604689229 L 1512.3786517663864 104.76180152817209 L 1512.6115315520606 104.73854857350481 L 1512.8449140688122 104.71634950816654 L 1513.0787759785837 104.6952065520453 L 1513.3130938953796 104.67512181941912 L 1513.5478443876032 104.65609731874447 L 1513.7830039804007 104.6381349524556 L 1514.0185491580091 104.62123651677416 L 1514.2544563661068 104.60540370152964 L 1514.4907020141695 104.59063808999038 L 1514.7272624778293 104.5769411587052 L 1514.964114101237 104.56431427735583 L 1515.2012331994276 104.5527587086199 L 1515.4385960606892 104.54227560804463 L 1515.6761789489328 104.53286602393135 L 1515.9139581060683 104.52453089723063 L 1516.1519097543776 104.5172710614482 L 1516.3900100988944 104.51108724256159 L 1516.6282353297825 104.5059800589475 L 1516.8665616247174 104.50195002132008 L 1517.1049651512685 104.49899753267972 L 1517.3434220692814 104.49712288827283 L 1517.5819085332632 104.49632627556227 L 1517.8204006947662 104.49660777420866 L 1518.0588747047732 104.49796735606236 L 1518.2973067160815 104.50040488516633 L 1518.5356728856889 104.5039201177697 L 1518.7739493771774 104.5085127023521 L 1519.0121123630956 104.51418217965895 L 1519.2501380273443 104.5209279827472 L 1519.4880025675548 104.52874943704218 L 1519.7256821974715 104.53764576040498 L 1519.9631531493294 104.54761606321068 L 1520.2003916762314 104.5586593484373 L 1520.4373740545225 104.57077451176553 L 1520.674076586162 104.58396034168912 L 1520.9104756010943 104.59821551963608 L 1521.1465474596148 104.61353862010048 L 1521.3822685547345 104.62992811078506 L 1521.6176153145402 104.64738235275439 L 1521.852564204552 104.66589960059883 L 1522.087091730077 104.68547800260903 L 1522.3211744385576 104.7061156009611 L 1522.5547889219183 104.7278103319124 L 1522.7879118189055 104.7505600260079 L 1523.0205198174235 104.77436240829718 L 1523.2525896568666 104.79921509856183 L 1523.4840981304442 104.82511561155353 L 1523.7150220875014 104.85206135724258 L 1523.9453384358358 104.88004964107684 L 1524.1750241440036 104.90907766425126 L 1524.404056243626 104.93914252398773 L 1524.6324118316836 104.9702412138253 L 1524.8600680728082 105.00237062392094 L 1525.087002201565 105.03552754136038 L 1525.3131915247304 105.06970865047953 L 1525.5386134235605 105.10491053319595 L 1525.7632453560536 105.1411296693507 L 1525.9870648592032 105.17836243706036 L 1526.2100495512457 105.21660511307917 L 1526.4321771338978 105.25585387317142 L 1526.6534253945863 105.29610479249378 L 1526.8737722086694 105.33735384598788 L 1527.0931955416493 105.37959690878274 L 1527.3116734513758 105.42282975660729 L 1527.5291840902396 105.46704806621275 L 1527.7457057073584 105.51224741580504 L 1527.9612166507509 105.55842328548684 L 1528.1756953695021 105.60557105770968 L 1528.389120415919 105.65368601773561 L 1528.601470447675 105.70276335410874 L 1528.8127242299436 105.75279815913633 L 1529.0228606375229 105.80378542937956 L 1529.231858656947 105.8557200661539 L 1529.439697388588 105.90859687603896 L 1529.6463560487464 105.9624105713978 L 1529.851813971728 106.01715577090575 L 1530.056050611912 106.07282700008845 L 1530.2590455458044 106.12941869186939 L 1530.460778474081 106.18692518712656 L 1530.661229223617 106.24534073525835 L 1530.8603777495048 106.30465949475862 L 1531.0582041370574 106.36487553380087 L 1531.254688603801 106.42598283083136 L 1531.4498115014526 106.48797527517131 L 1531.6435533178853 106.55084666762794 L 1531.8358946790788 106.61459072111441 L 1532.0268163510573 106.67920106127849 L 1532.2162992418125 106.74467122714 L 1532.4043244032134 106.8109946717369 L 1532.5908730329004 106.87816476278005 L 1532.7759264761662 106.94617478331625 L 1532.9594662278205 107.01501793240017 L 1533.1414739340412 107.08468732577425 L 1533.321931394209 107.15517599655723 L 1533.500820562729 107.22647689594075 L 1533.6781235508329 107.29858289389429 L 1533.8538226283695 107.37148677987817 L 1534.027900225578 107.4451812635645 L 1534.200338934843 107.51965897556637 L 1534.371121512438 107.59491246817461 L 1534.5402308802475 107.6709342161027 L 1534.707650127475 107.74771661723916 L 1534.873362512336 107.82525199340789 L 1535.0373514637297 107.90353259113589 L 1535.1996005828976 107.98255058242859 L 1535.3600936450632 108.06229806555274 L 1535.518814601054 108.14276706582646 L 1535.6757475789066 108.2239495364168 L 1535.830876885454 108.30583735914435 L 1535.9841870078947 108.38842234529507 L 1536.1356626153445 108.47169623643916 L 1536.2852885603686 108.55565070525691 L 1536.4330498804975 108.6402773563714 L 1536.5789317997219 108.72556772718804 L 1536.7229197299719 108.8115132887408 L 1536.864999272574 108.89810544654519 L 1537.0051562196927 108.98533554145756 L 1537.14337655575 109.07319485054111 L 1537.2796464588273 109.16167458793817 L 1537.413952302048 109.2507659057487 L 1537.54628065494 109.34045989491518 L 1537.6766182847775 109.43074758611344 L 1537.8049521579069 109.52161995064961 L 1537.9312694410476 109.61306790136292 L 1538.0555575025762 109.70508229353456 L 1538.1778039137907 109.79765392580197 L 1538.2979964501515 109.89077354107904 L 1538.416123092505 109.98443182748187 L 1538.5321720282857 110.07861941925987 L 1538.6461316526966 110.17332689773234 L 1538.7579905698701 110.26854479223036 L 1538.867737594008 110.36426358104383 L 1538.9753617504991 110.46047369237363 L 1539.0808522770176 110.5571655052888 L 1539.1841986245988 110.65432935068861 L 1539.2853904586937 110.75195551226952 L 1539.3844176602036 110.85003422749672 L 1539.4812703264906 110.94855568858041 L 1539.575938772369 111.04751004345658 L 1539.668413531073 111.14688739677221 L 1539.7586853552036 111.2466778108748 L 1539.846745217654 111.34687130680607 L 1539.9325843125112 111.44745786529992 L 1540.016194055937 111.54842742778435 L 1540.097566087027 111.64976989738723 L 1540.1766922686459 111.75147513994605 L 1540.2535646882413 111.85353298502133 L 1540.3281756586355 111.95593322691359 L 1540.4005177187935 112.05866562568397 L 1540.4705836345697 112.16171990817823 L 1540.5383663994307 112.26508576905398 L 1540.6038592351567 112.36875287181127 L 1540.6670555925186 112.47271084982621 L 1540.7279491519332 112.57694930738765 L 1540.7865338240958 112.68145782073668 L 1540.8428037505873 112.78622593910906 L 1540.8967533044627 112.89124318578025 L 1540.9483770908107 112.99649905911312 L 1540.9976699472966 113.10198303360804 L 1541.044626944675 113.20768456095544 L 1541.089243387286 113.31359307109071 L 1541.131514813522 113.41969797325106 L 1541.1714369962758 113.52598865703472 L 1541.2090059433624 113.63245449346185 L 1541.2442178979186 113.73908483603756 L 1541.277069338778 113.84586902181645 L 1541.3075569808236 113.95279637246892 L 1541.3356777753174 114.05985619534903 L 1541.361428910203 114.16703778456366 L 1541.3848078103879 114.27433042204326 L 1541.4058121380024 114.38172337861346 L 1541.4244397926304 114.4892059150681 L 1541.4406889115228 114.59676728324311 L 1541.4545578697807 114.70439672709132 L 1541.46604528052 114.812083483758 L 1541.4751499950091 114.91981678465726 L 1541.4818711027842 115.02758585654877 L 1541.4862079317404 115.13537992261514 L 1541.4881600481979 115.24318820353962 M 1541.488281038254 149.5814566181 L 1541.4870885783503 149.6892671630166 L 1541.4835113178842 149.7970669269686 L 1541.4775496145787 149.90484513006933 L 1541.4692040645996 150.0125909945884 L 1541.4584755024944 150.12029374602906 L 1541.4453650011105 150.227942614206 L 1541.4298738714872 150.33552683432202 L 1541.4120036627246 150.44303564804486 L 1541.3917561618287 150.55045830458263 L 1541.3691333935324 150.6577840617593 L 1541.344137620094 150.7650021870885 L 1541.31677134107 150.8721019588471 L 1541.2870372930654 150.97907266714716 L 1541.2549384494603 151.085903615007 L 1541.220478020112 151.19258411942084 L 1541.1836594510353 151.29910351242717 L 1541.1444864240561 151.40545114217542 L 1541.1029628564443 151.51161637399125 L 1541.0590929005223 151.61758859143995 L 1541.012880943249 151.72335719738808 L 1540.9643316057816 151.82891161506322 L 1540.9134497430136 151.93424128911153 L 1540.8602404430885 152.03933568665337 L 1540.8047090268924 152.14418429833657 L 1540.7468610475205 152.2487766393874 L 1540.6867022897222 152.3531022506588 L 1540.6242387693235 152.45715069967667 L 1540.5594767326245 152.56091158168277 L 1540.4924226557744 152.6643745206754 L 1540.4230832441253 152.76752917044686 L 1540.3514654315609 152.87036521561814 L 1540.2775763798022 152.9728723726704 L 1540.201423477693 153.07504039097338 L 1540.1230143404603 153.17685905381038 L 1540.0423568089523 153.27831817939997 L 1539.9594589488547 153.37940762191414 L 1539.8743290498849 153.48011727249286 L 1539.7869756249615 153.58043706025504 L 1539.6974074093544 153.68035695330548 L 1539.60563335981 153.77986695973811 L 1539.5116626536578 153.87895712863528 L 1539.4155046878893 153.9776175510626 L 1539.317169078221 154.07583836106008 L 1539.2166656581323 154.17360973662858 L 1539.114004477881 154.270921900712 L 1539.0091958035 154.36776512217506 L 1538.9022501157692 154.46412971677626 L 1538.7931781091684 154.5600060481365 L 1538.681990690807 154.65538452870248 L 1538.5686989793344 154.75025562070567 L 1538.4533143038275 154.84460983711594 L 1538.3358482026574 154.93843774259025 L 1538.2163124223366 155.03172995441622 L 1538.0947189163433 155.12447714345046 L 1537.9710798439269 155.21667003505132 L 1537.8454075688915 155.3082994100065 L 1537.71771465836 155.3993561054548 L 1537.588013881517 155.48983101580265 L 1537.456318208332 155.57971509363435 L 1537.3226408082628 155.668999350617 L 1537.186995048938 155.75767485839935 L 1537.04939449482 155.8457327495045 L 1536.9098529058501 155.93316421821672 L 1536.768384236071 156.019960521462 L 1536.6250026322311 156.10611297968236 L 1536.4797224323718 156.19161297770376 L 1536.3325581643921 156.27645196559763 L 1536.183524544596 156.36062145953588 L 1536.0326364762211 156.4441130426393 L 1535.8799090479488 156.5269183658191 L 1535.7253575323944 156.60902914861202 L 1535.5689973845808 156.69043718000816 L 1535.4108442403926 156.77113431927225 L 1535.2509139150125 156.8511124967576 L 1535.0892224013392 156.9303637147131 L 1534.9257858683898 157.00888004808303 L 1534.7606206596813 157.08665364529944 L 1534.593743291597 157.16367672906745 L 1534.4251704517346 157.23994159714286 L 1534.2549189972374 157.3154406231024 L 1534.0830059531093 157.39016625710642 L 1533.9094485105113 157.46411102665377 L 1533.7342640250429 157.53726753732911 L 1533.5574700150069 157.6096284735424 L 1533.3790841596567 157.6811865992602 L 1533.1991242974295 157.75193475872967 L 1533.0176084241614 157.82186587719377 L 1532.8345546912885 157.89097296159898 L 1532.6499814040315 157.95924910129438 L 1532.4639070195653 158.02668746872294 L 1532.2763501451734 158.0932813201041 L 1532.0873295363867 158.15902399610823 L 1531.8968640951089 158.22390892252253 L 1531.704972867725 158.28792961090838 L 1531.5116750431982 158.3510796592503 L 1531.3169899511497 158.41335275259615 L 1531.1209370599265 158.4747426636884 L 1530.9235359746544 158.53524325358717 L 1530.7248064352773 158.59484847228381 L 1530.5247683145835 158.65355235930622 L 1530.3234416162186 158.71134904431452 L 1530.1208464726844 158.76823274768844 L 1529.9170031433268 158.82419778110503 L 1529.7119320123084 158.87923854810757 L 1529.5056535865717 158.93334954466522 L 1529.2981884937874 158.98652535972343 L 1529.0895574802917 159.03876067574504 L 1528.8797814090121 159.0900502692419 L 1528.6688812573811 159.1403890112975 L 1528.4568781152382 159.1897718680795 L 1528.2437931827205 159.2381939013434 L 1528.029647768144 159.28565026892625 L 1527.8144632858719 159.3321362252308 L 1527.5982612541727 159.3776471217002 L 1527.3810632930695 159.42217840728267 L 1527.1628911221774 159.46572562888682 L 1526.943766558532 159.50828443182675 L 1526.7237115144067 159.54985056025762 L 1526.5027479951225 159.59041985760126 L 1526.2808980968475 159.62998826696173 L 1526.0581840043865 159.66855183153106 L 1525.8346279889631 159.70610669498492 L 1525.6102524059925 159.7426491018683 L 1525.3850796928461 159.7781753979709 L 1525.1591323666078 159.81268203069277 L 1524.9324330218217 159.84616554939936 L 1524.7050043282331 159.8786226057667 L 1524.4768690285225 159.91004995411626 L 1524.248049936029 159.94044445173932 L 1524.0185699324718 159.9698030592115 L 1523.7884519656598 159.99812284069648 L 1523.5577190471977 160.02540096423974 L 1523.3263942501853 160.05163470205162 L 1523.0945007069095 160.07682143078023 L 1522.8620616065314 160.1009586317737 L 1522.6291001927673 160.124043891332 L 1522.3956397615643 160.14607490094846 L 1522.1617036587713 160.16704945754043 L 1521.9273152778035 160.18696546366976 L 1521.6924980573035 160.20582092775246 L 1521.4572754787978 160.22361396425777 L 1521.2216710643481 160.2403427938969 L 1520.9857083742 160.25600574380084 L 1520.7494110044252 160.27060124768764 L 1520.512802584564 160.28412784601906 L 1520.2759067752615 160.29658418614653 L 1520.038747265901 160.30796902244649 L 1519.8013477722359 160.3182812164447 L 1519.5637320340174 160.3275197369304 L 1519.3259238126218 160.3356836600593 L 1519.0879468886728 160.34277216944577 L 1518.8498250596645 160.34878455624485 L 1518.611582137581 160.35372021922285 L 1518.3732419465168 160.35757866481762 L 1518.1348283202917 160.36035950718778 L 1517.8963651000702 160.36206246825142 L 1517.657876131975 160.36268737771385 L 1517.4193852647045 160.36223417308466 L 1517.1809163471466 160.3607028996839 L 1516.9424932259944 160.35809371063766 L 1516.7041397433613 160.3544068668627 L 1516.465879734397 160.34964273704026 L 1516.2277370249037 160.3438017975794 L 1515.989735428954 160.33688463256917 L 1515.7518987465091 160.3288919337203 L 1515.5142507610392 160.31982450029608 L 1515.2768152371448 160.30968323903224 L 1515.03961591818 160.29846916404645 L 1514.8026765238797 160.28618339673687 L 1514.5660207479852 160.27282716567004 L 1514.3296722558775 160.25840180645787 L 1514.0936546822086 160.2429087616243 L 1513.857991628539 160.2263495804609 L 1513.6227066609779 160.20872591887195 L 1513.3878233078258 160.19003953920898 L 1513.1533650572226 160.17029231009434 L 1512.9193553547975 160.14948620623449 L 1512.6858176013263 160.1276233082225 L 1512.4527751503892 160.10470580232996 L 1512.2202513060377 160.08073598028832 L 1511.9882693204618 160.05571623905982 L 1511.756852391667 160.02964908059778 L 1511.5260236611537 160.00253711159627 L 1511.295806211602 159.9743830432296 L 1511.0662230645655 159.9451896908812 L 1510.8372971781673 159.9149599738619 L 1510.6090514448053 159.88369691511826 L 1510.3815086888626 159.85140364093007 L 1510.1546916644254 159.8180833805979 L 1509.9286230530067 159.78373946611993 L 1509.7033254612797 159.74837533185905 L 1509.4788214188159 159.7119945141992 L 1509.255133375832 159.67460065119184 L 1509.032283700946 159.63619748219207 L 1508.81029467894 159.59678884748485 L 1508.5891885085307 159.55637868790075 L 1508.3689873001515 159.51497104442208 L 1508.1497130737391 159.47257005777868 L 1507.931387756534 159.42917996803388 L 1507.7140331808857 159.38480511416049 L 1507.4976710820706 159.33944993360691 L 1507.2823230961183 159.29311896185345 L 1507.068010757648 159.24581683195862 L 1506.854755497715 159.197548274096 L 1506.6425786416673 159.14831811508117 L 1506.4315014070141 159.098131277889 L 1506.2215449013029 159.0469927811614 L 1506.0127301200089 158.9949077387054 L 1505.8050779444366 158.94188135898187 L 1505.5986091396303 158.88791894458456 L 1505.3933443522988 158.83302589170998 L 1505.1893041087492 158.77720768961765 L 1504.9865088128363 158.72046992008126 L 1504.7849787439206 158.6628182568305 L 1504.5847340548407 158.60425846498364 L 1504.3857947698993 158.54479640047106 L 1504.1881807828586 158.4844380094497 L 1503.9919118549526 158.4231893277083 L 1503.7970076129109 158.361056480064 L 1503.6034875469948 158.29804567974986 L 1503.41137100905 158.23416322779335 L 1503.2206772105703 158.16941551238642 L 1503.0314252207763 158.10380900824669 L 1502.8436339647094 158.03735027596986 L 1502.6573222213387 157.97004596137378 L 1502.4725086216833 157.9019027948339 L 1502.2892116469493 157.83292759060998 L 1502.107449626681 157.76312724616503 L 1501.9272407369294 157.6925087414753 L 1501.7486029984332 157.62107913833242 L 1501.5715542748173 157.5488455796372 L 1501.3961122708065 157.47581528868528 L 1501.222294530455 157.4019955684449 L 1501.050118435392 157.3273938008266 L 1500.879601203084 157.25201744594494 L 1500.7107598851112 157.17587404137262 L 1500.5436113654653 157.09897120138663 L 1500.3781723588588 157.0213166162069 L 1500.2144594090548 156.94291805122717 L 1500.0524888872114 156.8637833462387 L 1499.892276990246 156.783920414646 L 1499.733839739215 156.70333724267567 L 1499.5771929777113 156.62204188857777 L 1499.4223523702804 156.54004248181994 L 1499.269333400854 156.45734722227456 L 1499.1181513712017 156.37396437939864 L 1498.9688213994004 156.289902291407 L 1498.821358418323 156.2051693644384 L 1498.6757771741445 156.1197740717149 L 1498.532092224868 156.0337249526946 L 1498.3903179388687 155.9470306122177 L 1498.2504684934572 155.85969971964604 L 1498.1125578734616 155.77174100799607 L 1497.9765998698285 155.68316327306567 L 1497.8426080782456 155.59397537255452 L 1497.7105958977797 155.50418622517833 L 1497.5805765295395 155.41380480977702 L 1497.452562975353 155.32284016441682 L 1497.326568036469 155.23130138548646 L 1497.2026043122767 155.13919762678756 L 1497.080684199045 155.0465380986192 L 1496.9608198886835 154.95333206685703 L 1496.8430233675235 154.85958885202652 L 1496.727306415119 154.76531782837105 L 1496.613680603069 154.67052842291443 L 1496.5021572938595 154.5752301145182 L 1496.392747639729 154.4794324329338 L 1496.2854625815512 154.38314495784954 L 1496.180312847743 154.2863773179327 L 1496.07730895319 154.18913918986664 L 1495.9764611981957 154.09144029738312 L 1495.8777796674515 153.99329041028997 L 1495.7812742290287 153.89469934349412 L 1495.68695453339 153.79567695602012 L 1495.594830012427 153.6962331500241 L 1495.5049098785148 153.59637786980392 L 1495.417203123592 153.4961211008043 L 1495.3317185182607 153.3954728686186 L 1495.2484646109103 153.29444323798623 L 1495.1674497268625 153.193042311786 L 1495.0886819675377 153.09128023002603 L 1495.0121692096463 152.9891671688297 L 1494.9379191044006 152.8867133394181 L 1494.8659390767489 152.7839289870887 L 1494.7962363246343 152.6808243901911 L 1494.7288178182737 152.57740985909913 L 1494.6636902994617 152.47369573517966 L 1494.6008602808959 152.36969238975868 L 1494.5403340455257 152.26541022308405 L 1494.4821176459243 152.16085966328555 L 1494.4262169036829 152.056051165332 L 1494.3726374088294 151.9509952099859 L 1494.3213845192688 151.84570230275523 L 1494.2724633602468 151.74018297284294 L 1494.2258788238391 151.63444777209415 L 1494.18163556846 151.52850727394073 L 1494.1397380183987 151.4223720723443 L 1494.1001903633748 151.31605278073653 L 1494.0629965581213 151.20956003095796 L 1494.0281603219873 151.1029044721949 L 1493.9956851385678 150.99609676991426 L 1493.9655742553537 150.8891476047973 L 1493.9378306834085 150.78206767167143 L 1493.912457197066 150.6748676784407 L 1493.8894563336542 150.5675583450151 L 1493.8688303932397 150.46015040223858 L 1493.8505814383996 150.35265459081586 L 1493.8347112940141 150.24508166023855 L 1493.8212215470846 150.13744236771007 L 1493.8101135465745 150.0297474770699 L 1493.8013884032744 149.92200775771744 L 1493.7950469896914 149.8142339835348 L 1493.7910899399617 149.70643693180958 L 1493.789517649787 149.59862738215716" stroke-miterlimit="10" stroke-width="2.7769845610000004" stroke-dasharray=""/></g><g><g/><text fill="black" stroke="none" font-family="sans-serif" font-size="11pt" font-style="normal" font-weight="normal" text-decoration="normal" x="1486.2609392739648" y="177.890363937" text-anchor="start" dominant-baseline="alphabetic" xml:space="preserve">Database</text></g></g><g><path fill="white" stroke="black" paint-order="fill stroke markers" d=" M 186.79609290387242 236.697095817 L 203.1312962038724 236.697095817 L 203.1312962038724 1723.3639481500002 L 186.79609290387242 1723.3639481500002 L 186.79609290387242 236.697095817" stroke-miterlimit="10" stroke-width="1.3612669416666667" stroke-dasharray=""/><path fill="white" stroke="black" paint-order="fill stroke markers" d=" M 549.4303221703698 421.774949206 L 565.7655254703699 421.774949206 L 565.7655254703699 1560.6653232820001 L 549.4303221703698 1560.6653232820001 L 549.4303221703698 421.774949206" stroke-miterlimit="10" stroke-width="1.3612669416666667" stroke-dasharray=""/><path fill="white" stroke="black" paint-order="fill stroke markers" d=" M 672.1076538750222 475.681120096 L 688.4428571750223 475.681120096 L 688.4428571750223 1240.4953386019997 L 672.1076538750222 1240.4953386019997 L 672.1076538750222 475.681120096" stroke-miterlimit="10" stroke-width="1.3612669416666667" stroke-dasharray=""/><path fill="white" stroke="black" paint-order="fill stroke markers" d=" M 1175.9169069469517 529.587290986 L 1192.2521102469518 529.587290986 L 1192.2521102469518 1240.4953386019997 L 1175.9169069469517 1240.4953386019997 L 1175.9169069469517 529.587290986" stroke-miterlimit="10" stroke-width="1.3612669416666667" stroke-dasharray=""/><path fill="white" stroke="black" paint-order="fill stroke markers" d=" M 809.0872680422722 1274.7992655319997 L 825.4224713422723 1274.7992655319997 L 825.4224713422723 1423.449615562 L 809.0872680422722 1423.449615562 L 809.0872680422722 1274.7992655319997" stroke-miterlimit="10" stroke-width="1.3612669416666667" stroke-dasharray=""/><path fill="white" stroke="black" paint-order="fill stroke markers" d=" M 919.9535951082527 1366.2764040119998 L 936.2887984082528 1366.2764040119998 L 936.2887984082528 1423.449615562 L 919.9535951082527 1423.449615562 L 919.9535951082527 1366.2764040119998" stroke-miterlimit="10" stroke-width="1.3612669416666667" stroke-dasharray=""/><path fill="white" stroke="black" paint-order="fill stroke markers" d=" M 1056.5108765118307 1457.753542492 L 1072.8460798118308 1457.753542492 L 1072.8460798118308 1560.6653232820001 L 1056.5108765118307 1560.6653232820001 L 1056.5108765118307 1457.753542492" stroke-miterlimit="10" stroke-width="1.3612669416666667" stroke-dasharray=""/><g><text fill="black" stroke="none" font-family="sans-serif" font-size="11pt" font-style="normal" font-weight="normal" text-decoration="normal" x="113.77747487093035" y="230.16301449699998" text-anchor="start" dominant-baseline="alphabetic" xml:space="preserve"></text></g><g><path fill="none" stroke="black" paint-order="fill stroke markers" d=" M 40.75885683798828 236.697095817 L 173.34677552020577 236.697095817" stroke-miterlimit="10" stroke-width="1.3612669416666667" stroke-dasharray=""/><g transform="translate(186.79609290387242,236.697095817) translate(-186.79609290387242,-236.697095817)"><path fill="black" stroke="none" paint-order="stroke fill markers" d=" M 173.18342348720574 229.89076110866665 L 186.79609290387242 236.697095817 L 173.18342348720574 243.50343052533333 Z"/></g></g><path fill="none" stroke="none"/><g><path fill="white" stroke="black" paint-order="fill stroke markers" d=" M 385.3820866067995 268.6324182685 L 471.3448586271745 268.6324182685 L 471.3448586271745 328.9093184455 L 385.3820866067995 328.9093184455 L 385.3820866067995 268.6324182685 Z" stroke-miterlimit="10" stroke-width="2.613632528" stroke-dasharray=""/></g><g><text fill="black" stroke="none" font-family="sans-serif" font-size="11pt" font-style="normal" font-weight="normal" text-decoration="normal" x="403.1057821872995" y="296.23891184549996" text-anchor="start" dominant-baseline="alphabetic" xml:space="preserve">Domain</text><text fill="black" stroke="none" font-family="sans-serif" font-size="11pt" font-style="normal" font-weight="normal" text-decoration="normal" x="408.8037115696237" y="312.57411514549995" text-anchor="start" dominant-baseline="alphabetic" xml:space="preserve">object</text></g><g><text fill="black" stroke="none" font-family="sans-serif" font-size="11pt" font-style="normal" font-weight="normal" text-decoration="normal" x="262.06629986480857" y="275.90158373699995" text-anchor="start" dominant-baseline="alphabetic" xml:space="preserve">validate &amp;</text><text fill="black" stroke="none" font-family="sans-serif" font-size="11pt" font-style="normal" font-weight="normal" text-decoration="normal" x="262.06629986480857" y="292.23678703699994" text-anchor="start" dominant-baseline="alphabetic" xml:space="preserve">translate</text></g><g><path fill="none" stroke="black" paint-order="fill stroke markers" d=" M 203.1312962038724 298.770868357 L 371.9327692231328 298.770868357" stroke-miterlimit="10" stroke-width="1.3612669416666667" stroke-dasharray=""/><g transform="translate(385.3820866067995,298.770868357) translate(-385.3820866067995,-298.770868357)"><path fill="black" stroke="none" paint-order="stroke fill markers" d=" M 371.7694171901328 291.96453364866665 L 385.3820866067995 298.770868357 L 371.7694171901328 305.5772030653333 Z"/></g></g><g><text fill="black" stroke="none" font-family="sans-serif" font-size="11pt" font-style="normal" font-weight="normal" text-decoration="normal" x="315.74738441042973" y="369.50229864599993" text-anchor="start" dominant-baseline="alphabetic" xml:space="preserve"></text></g><g><path fill="none" stroke="black" paint-order="fill stroke markers" d=" M 428.363472616987 376.03637996599997 L 216.58061358753906 376.03637996599997" stroke-miterlimit="10" stroke-width="1.3612669416666667" stroke-dasharray=""/><g transform="translate(203.1312962038724,376.03637996599997) translate(-203.1312962038724,-376.03637996599997)"><path fill="black" stroke="none" paint-order="stroke fill markers" d=" M 216.7439656205391 369.23004525766663 L 203.1312962038724 376.03637996599997 L 216.7439656205391 382.8427146743333 Z"/></g></g><g><path fill="none" stroke="black" paint-order="fill stroke markers" d=" M 413.661789646987 361.334696996 L 443.065155586987 390.73806293599995 M 443.065155586987 361.334696996 L 413.661789646987 390.73806293599995" stroke-miterlimit="10" stroke-width="2.613632528" stroke-dasharray=""/></g><g><text fill="black" stroke="none" font-family="sans-serif" font-size="11pt" font-style="normal" font-weight="normal" text-decoration="normal" x="376.2808091871211" y="415.24086788599993" text-anchor="start" dominant-baseline="alphabetic" xml:space="preserve"></text></g><g><path fill="none" stroke="black" paint-order="fill stroke markers" d=" M 203.1312962038724 421.774949206 L 535.9810047867031 421.774949206" stroke-miterlimit="10" stroke-width="1.3612669416666667" stroke-dasharray=""/><g transform="translate(549.4303221703698,421.774949206) translate(-549.4303221703698,-421.774949206)"><path fill="black" stroke="none" paint-order="stroke fill markers" d=" M 535.8176527537031 414.96861449766664 L 549.4303221703698 421.774949206 L 535.8176527537031 428.5812839143333 Z"/></g></g><g><text fill="black" stroke="none" font-family="sans-serif" font-size="11pt" font-style="normal" font-weight="normal" text-decoration="normal" x="618.9365896726961" y="460.97943712599994" text-anchor="start" dominant-baseline="alphabetic" xml:space="preserve"></text></g><g><path fill="none" stroke="black" paint-order="fill stroke markers" d=" M 565.7655254703699 459.345916796 L 658.8142575665471 473.6391228696504" stroke-miterlimit="10" stroke-width="1.3612669416666667" stroke-dasharray=""/><g transform="translate(672.1076538750222,475.681120096) rotate(8.732938208308182,0,0) translate(-672.1076538750222,-475.681120096)"><path fill="black" stroke="none" paint-order="stroke fill markers" d=" M 658.4949844583555 468.87478538766663 L 672.1076538750222 475.681120096 L 658.4949844583555 482.4874548043333 Z"/><g transform="rotate(-8.732938208308182,0,0)"/></g></g><g><text fill="black" stroke="none" font-family="sans-serif" font-size="11pt" font-style="normal" font-weight="normal" text-decoration="normal" x="932.179882060987" y="514.885608016" text-anchor="start" dominant-baseline="alphabetic" xml:space="preserve"></text></g><g><path fill="none" stroke="black" paint-order="fill stroke markers" d=" M 688.4428571750223 513.252087686 L 1162.4751344159552 529.1368586253258" stroke-miterlimit="10" stroke-width="1.3612669416666667" stroke-dasharray=""/><g transform="translate(1175.9169069469517,529.587290986) rotate(1.9192572756466155,0,0) translate(-1175.9169069469517,-529.587290986)"><path fill="black" stroke="none" paint-order="stroke fill markers" d=" M 1162.304237530285 522.7809562776666 L 1175.9169069469517 529.587290986 L 1162.304237530285 536.3936256943333 Z"/><g transform="rotate(-1.9192572756466155,0,0)"/></g></g><path fill="none" stroke="none"/><g><path fill="white" stroke="black" paint-order="fill stroke markers" d=" M 1292.0402524779415 599.5836371265 L 1358.167697349879 599.5836371265 L 1358.167697349879 643.5253340035 L 1292.0402524779415 643.5253340035 L 1292.0402524779415 599.5836371265 Z" stroke-miterlimit="10" stroke-width="2.613632528" stroke-dasharray=""/></g><g><text fill="black" stroke="none" font-family="sans-serif" font-size="11pt" font-style="normal" font-weight="normal" text-decoration="normal" x="1309.7639480584414" y="627.1901307035" text-anchor="start" dominant-baseline="alphabetic" xml:space="preserve">DTO</text></g><g><text fill="black" stroke="none" font-family="sans-serif" font-size="11pt" font-style="normal" font-weight="normal" text-decoration="normal" x="1214.0323813136185" y="615.020404245" text-anchor="start" dominant-baseline="alphabetic" xml:space="preserve">translate</text></g><g><path fill="none" stroke="black" paint-order="fill stroke markers" d=" M 1192.2521102469518 621.554485565 L 1278.5909350942748 621.554485565" stroke-miterlimit="10" stroke-width="1.3612669416666667" stroke-dasharray=""/><g transform="translate(1292.0402524779415,621.554485565) translate(-1292.0402524779415,-621.554485565)"><path fill="black" stroke="none" paint-order="stroke fill markers" d=" M 1278.4275830612748 614.7481508566667 L 1292.0402524779415 621.554485565 L 1278.4275830612748 628.3608202733334 Z"/></g></g><g><text fill="black" stroke="none" font-family="sans-serif" font-size="11pt" font-style="normal" font-weight="normal" text-decoration="normal" x="1258.6780425804309" y="684.118314204" text-anchor="start" dominant-baseline="alphabetic" xml:space="preserve"></text></g><g><path fill="none" stroke="black" paint-order="fill stroke markers" d=" M 1325.1039749139102 690.652395524 L 1205.7014276306186 690.652395524" stroke-miterlimit="10" stroke-width="1.3612669416666667" stroke-dasharray=""/><g transform="translate(1192.2521102469518,690.652395524) translate(-1192.2521102469518,-690.652395524)"><path fill="black" stroke="none" paint-order="stroke fill markers" d=" M 1205.8647796636185 683.8460608156666 L 1192.2521102469518 690.652395524 L 1205.8647796636185 697.4587302323333 Z"/></g></g><g><text fill="black" stroke="none" font-family="sans-serif" font-size="11pt" font-style="normal" font-weight="normal" text-decoration="normal" x="1338.649873454306" y="729.8568834439999" text-anchor="start" dominant-baseline="alphabetic" xml:space="preserve">store</text></g><g><path fill="none" stroke="black" paint-order="fill stroke markers" d=" M 1192.2521102469518 736.3909647639999 L 1504.1895668365871 736.3909647639999" stroke-miterlimit="10" stroke-width="1.3612669416666667" stroke-dasharray=""/><g transform="translate(1517.6388842202539,736.3909647639999) translate(-1517.6388842202539,-736.3909647639999)"><path fill="black" stroke="none" paint-order="stroke fill markers" d=" M 1504.0262148035872 729.5846300556666 L 1517.6388842202539 736.3909647639999 L 1504.0262148035872 743.1972994723333 Z"/></g></g><g><text fill="black" stroke="none" font-family="sans-serif" font-size="11pt" font-style="normal" font-weight="normal" text-decoration="normal" x="1354.945497233603" y="775.5954526839998" text-anchor="start" dominant-baseline="alphabetic" xml:space="preserve"></text></g><g><path fill="none" stroke="black" paint-order="fill stroke markers" d=" M 1517.6388842202539 782.1295340039999 L 1205.7014276306186 782.1295340039999" stroke-miterlimit="10" stroke-width="1.3612669416666667" stroke-dasharray="6.53408132"/><g transform="translate(1192.2521102469518,782.1295340039999) translate(-1192.2521102469518,-782.1295340039999)"><path fill="black" stroke="none" paint-order="stroke fill markers" d=" M 1205.8647796636185 775.3231992956665 L 1192.2521102469518 782.1295340039999 L 1205.8647796636185 788.9358687123332 Z"/></g></g><g><path fill="none" stroke="black" paint-order="fill stroke markers" d=" M 1310.40229194391 806.6323389539999 L 1339.8056578839103 836.0357048939999 M 1339.8056578839103 806.6323389539999 L 1310.40229194391 836.0357048939999" stroke-miterlimit="10" stroke-width="2.613632528" stroke-dasharray=""/></g><g><text fill="black" stroke="none" font-family="sans-serif" font-size="11pt" font-style="normal" font-weight="normal" text-decoration="normal" x="1330.5038544723725" y="919.3452417239997" text-anchor="start" dominant-baseline="alphabetic" xml:space="preserve">retrieve</text></g><g><path fill="none" stroke="black" paint-order="fill stroke markers" d=" M 1192.2521102469518 925.8793230439998 L 1504.1895668365871 925.8793230439998" stroke-miterlimit="10" stroke-width="1.3612669416666667" stroke-dasharray=""/><g transform="translate(1517.6388842202539,925.8793230439998) translate(-1517.6388842202539,-925.8793230439998)"><path fill="black" stroke="none" paint-order="stroke fill markers" d=" M 1504.0262148035872 919.0729883356664 L 1517.6388842202539 925.8793230439998 L 1504.0262148035872 932.6856577523331 Z"/></g></g><g><text fill="black" stroke="none" font-family="sans-serif" font-size="11pt" font-style="normal" font-weight="normal" text-decoration="normal" x="1354.945497233603" y="965.0838109639997" text-anchor="start" dominant-baseline="alphabetic" xml:space="preserve"></text></g><g><path fill="none" stroke="black" paint-order="fill stroke markers" d=" M 1517.6388842202539 971.6178922839997 L 1205.7014276306186 971.6178922839997" stroke-miterlimit="10" stroke-width="1.3612669416666667" stroke-dasharray="6.53408132"/><g transform="translate(1192.2521102469518,971.6178922839997) translate(-1192.2521102469518,-971.6178922839997)"><path fill="black" stroke="none" paint-order="stroke fill markers" d=" M 1205.8647796636185 964.8115575756664 L 1192.2521102469518 971.6178922839997 L 1205.8647796636185 978.424226992333 Z"/></g></g><path fill="none" stroke="none"/><g><path fill="white" stroke="black" paint-order="fill stroke markers" d=" M 1374.502900649879 997.5091895144997 L 1460.465672670254 997.5091895144997 L 1460.465672670254 1057.7860896914997 L 1374.502900649879 1057.7860896914997 L 1374.502900649879 997.5091895144997 Z" stroke-miterlimit="10" stroke-width="2.613632528" stroke-dasharray=""/></g><g><text fill="black" stroke="none" font-family="sans-serif" font-size="11pt" font-style="normal" font-weight="normal" text-decoration="normal" x="1392.2265962303788" y="1025.1156830915" text-anchor="start" dominant-baseline="alphabetic" xml:space="preserve">Domain</text><text fill="black" stroke="none" font-family="sans-serif" font-size="11pt" font-style="normal" font-weight="normal" text-decoration="normal" x="1397.924525612703" y="1041.4508863915" text-anchor="start" dominant-baseline="alphabetic" xml:space="preserve">object</text></g><g><text fill="black" stroke="none" font-family="sans-serif" font-size="11pt" font-style="normal" font-weight="normal" text-decoration="normal" x="1255.2637053995873" y="1021.1135582829997" text-anchor="start" dominant-baseline="alphabetic" xml:space="preserve">translate</text></g><g><path fill="none" stroke="black" paint-order="fill stroke markers" d=" M 1192.2521102469518 1027.6476396029998 L 1361.0535832662122 1027.6476396029998" stroke-miterlimit="10" stroke-width="1.3612669416666667" stroke-dasharray=""/><g transform="translate(1374.502900649879,1027.6476396029998) translate(-1374.502900649879,-1027.6476396029998)"><path fill="black" stroke="none" paint-order="stroke fill markers" d=" M 1360.8902312332123 1020.8413048946665 L 1374.502900649879 1027.6476396029998 L 1360.8902312332123 1034.453974311333 Z"/></g></g><g><text fill="black" stroke="none" font-family="sans-serif" font-size="11pt" font-style="normal" font-weight="normal" text-decoration="normal" x="1304.8681984535092" y="1098.379069892" text-anchor="start" dominant-baseline="alphabetic" xml:space="preserve"></text></g><g><path fill="none" stroke="black" paint-order="fill stroke markers" d=" M 1417.4842866600663 1104.9131512119998 L 1205.7014276306186 1104.9131512119998" stroke-miterlimit="10" stroke-width="1.3612669416666667" stroke-dasharray=""/><g transform="translate(1192.2521102469518,1104.9131512119998) translate(-1192.2521102469518,-1104.9131512119998)"><path fill="black" stroke="none" paint-order="stroke fill markers" d=" M 1205.8647796636185 1098.1068165036666 L 1192.2521102469518 1104.9131512119998 L 1205.8647796636185 1111.719485920333 Z"/></g></g><g><path fill="none" stroke="black" paint-order="fill stroke markers" d=" M 1402.7826036900663 1129.4159561619995 L 1432.1859696300664 1158.8193221019997 M 1432.1859696300664 1129.4159561619995 L 1402.7826036900663 1158.8193221019997" stroke-miterlimit="10" stroke-width="2.613632528" stroke-dasharray=""/></g><g><text fill="black" stroke="none" font-family="sans-serif" font-size="11pt" font-style="normal" font-weight="normal" text-decoration="normal" x="932.179882060987" y="1222.5266149719998" text-anchor="start" dominant-baseline="alphabetic" xml:space="preserve"></text></g><g><path fill="none" stroke="black" paint-order="fill stroke markers" d=" M 1175.9169069469517 1229.0606962919996 L 701.8921745586889 1229.0606962919996" stroke-miterlimit="10" stroke-width="1.3612669416666667" stroke-dasharray="6.53408132"/><g transform="translate(688.4428571750223,1229.0606962919996) translate(-688.4428571750223,-1229.0606962919996)"><path fill="black" stroke="none" paint-order="stroke fill markers" d=" M 702.0555265916889 1222.2543615836664 L 688.4428571750223 1229.0606962919996 L 702.0555265916889 1235.8670310003329 Z"/></g></g><g><text fill="black" stroke="none" font-family="sans-serif" font-size="11pt" font-style="normal" font-weight="normal" text-decoration="normal" x="687.4263967563211" y="1268.265184212" text-anchor="start" dominant-baseline="alphabetic" xml:space="preserve"></text></g><g><path fill="none" stroke="black" paint-order="fill stroke markers" d=" M 565.7655254703699 1274.7992655319997 L 795.6379506586055 1274.7992655319997" stroke-miterlimit="10" stroke-width="1.3612669416666667" stroke-dasharray=""/><g transform="translate(809.0872680422722,1274.7992655319997) translate(-809.0872680422722,-1274.7992655319997)"><path fill="black" stroke="none" paint-order="stroke fill markers" d=" M 795.4745986256055 1267.9929308236665 L 809.0872680422722 1274.7992655319997 L 795.4745986256055 1281.605600240333 Z"/></g></g><g><text fill="black" stroke="none" font-family="sans-serif" font-size="11pt" font-style="normal" font-weight="normal" text-decoration="normal" x="687.4263967563211" y="1314.003753452" text-anchor="start" dominant-baseline="alphabetic" xml:space="preserve"></text></g><g><path fill="none" stroke="black" paint-order="fill stroke markers" d=" M 809.0872680422722 1320.5378347719998 L 579.2148428540365 1320.5378347719998" stroke-miterlimit="10" stroke-width="1.3612669416666667" stroke-dasharray="6.53408132"/><g transform="translate(565.7655254703699,1320.5378347719998) translate(-565.7655254703699,-1320.5378347719998)"><path fill="black" stroke="none" paint-order="stroke fill markers" d=" M 579.3781948870366 1313.7315000636665 L 565.7655254703699 1320.5378347719998 L 579.3781948870366 1327.344169480333 Z"/></g></g><g><text fill="black" stroke="none" font-family="sans-serif" font-size="11pt" font-style="normal" font-weight="normal" text-decoration="normal" x="742.8595602893113" y="1359.742322692" text-anchor="start" dominant-baseline="alphabetic" xml:space="preserve"></text></g><g><path fill="none" stroke="black" paint-order="fill stroke markers" d=" M 565.7655254703699 1366.2764040119998 L 906.504277724586 1366.2764040119998" stroke-miterlimit="10" stroke-width="1.3612669416666667" stroke-dasharray=""/><g transform="translate(919.9535951082527,1366.2764040119998) translate(-919.9535951082527,-1366.2764040119998)"><path fill="black" stroke="none" paint-order="stroke fill markers" d=" M 906.340925691586 1359.4700693036666 L 919.9535951082527 1366.2764040119998 L 906.340925691586 1373.082738720333 Z"/></g></g><g><text fill="black" stroke="none" font-family="sans-serif" font-size="11pt" font-style="normal" font-weight="normal" text-decoration="normal" x="742.8595602893113" y="1405.480891932" text-anchor="start" dominant-baseline="alphabetic" xml:space="preserve"></text></g><g><path fill="none" stroke="black" paint-order="fill stroke markers" d=" M 919.9535951082527 1412.014973252 L 579.2148428540365 1412.014973252" stroke-miterlimit="10" stroke-width="1.3612669416666667" stroke-dasharray=""/><g transform="translate(565.7655254703699,1412.014973252) translate(-565.7655254703699,-1412.014973252)"><path fill="black" stroke="none" paint-order="stroke fill markers" d=" M 579.3781948870366 1405.2086385436667 L 565.7655254703699 1412.014973252 L 579.3781948870366 1418.8213079603331 Z"/></g></g><g><text fill="black" stroke="none" font-family="sans-serif" font-size="11pt" font-style="normal" font-weight="normal" text-decoration="normal" x="811.1382009911003" y="1451.2194611720001" text-anchor="start" dominant-baseline="alphabetic" xml:space="preserve"></text></g><g><path fill="none" stroke="black" paint-order="fill stroke markers" d=" M 565.7655254703699 1457.753542492 L 1043.061559128164 1457.753542492" stroke-miterlimit="10" stroke-width="1.3612669416666667" stroke-dasharray=""/><g transform="translate(1056.5108765118307,1457.753542492) translate(-1056.5108765118307,-1457.753542492)"><path fill="black" stroke="none" paint-order="stroke fill markers" d=" M 1042.898207095164 1450.9472077836667 L 1056.5108765118307 1457.753542492 L 1042.898207095164 1464.5598772003332 Z"/></g></g><g><text fill="black" stroke="none" font-family="sans-serif" font-size="11pt" font-style="normal" font-weight="normal" text-decoration="normal" x="811.1382009911003" y="1496.9580304120002" text-anchor="start" dominant-baseline="alphabetic" xml:space="preserve"></text></g><g><path fill="none" stroke="black" paint-order="fill stroke markers" d=" M 1056.5108765118307 1503.492111732 L 579.2148428540365 1503.492111732" stroke-miterlimit="10" stroke-width="1.3612669416666667" stroke-dasharray="6.53408132"/><g transform="translate(565.7655254703699,1503.492111732) translate(-565.7655254703699,-1503.492111732)"><path fill="black" stroke="none" paint-order="stroke fill markers" d=" M 579.3781948870366 1496.6857770236668 L 565.7655254703699 1503.492111732 L 579.3781948870366 1510.2984464403332 Z"/></g></g><g><text fill="black" stroke="none" font-family="sans-serif" font-size="11pt" font-style="normal" font-weight="normal" text-decoration="normal" x="376.2808091871211" y="1542.6965996520003" text-anchor="start" dominant-baseline="alphabetic" xml:space="preserve"></text></g><g><path fill="none" stroke="black" paint-order="fill stroke markers" d=" M 549.4303221703698 1549.230680972 L 216.58061358753906 1549.230680972" stroke-miterlimit="10" stroke-width="1.3612669416666667" stroke-dasharray="6.53408132"/><g transform="translate(203.1312962038724,1549.230680972) translate(-203.1312962038724,-1549.230680972)"><path fill="black" stroke="none" paint-order="stroke fill markers" d=" M 216.7439656205391 1542.4243462636668 L 203.1312962038724 1549.230680972 L 216.7439656205391 1556.0370156803333 Z"/></g></g><path fill="none" stroke="none"/><g><path fill="white" stroke="black" paint-order="fill stroke markers" d=" M 302.91943843486195 1575.1219782025 L 369.04688330679943 1575.1219782025 L 369.04688330679943 1619.0636750795 L 302.91943843486195 1619.0636750795 L 302.91943843486195 1575.1219782025 Z" stroke-miterlimit="10" stroke-width="2.613632528" stroke-dasharray=""/></g><g><text fill="black" stroke="none" font-family="sans-serif" font-size="11pt" font-style="normal" font-weight="normal" text-decoration="normal" x="320.64313401536197" y="1602.7284717795" text-anchor="start" dominant-baseline="alphabetic" xml:space="preserve">DTO</text></g><g><text fill="black" stroke="none" font-family="sans-serif" font-size="11pt" font-style="normal" font-weight="normal" text-decoration="normal" x="224.91156727053905" y="1590.558745321" text-anchor="start" dominant-baseline="alphabetic" xml:space="preserve">translate</text></g><g><path fill="none" stroke="black" paint-order="fill stroke markers" d=" M 203.1312962038724 1597.0928266409999 L 289.4701210511953 1597.0928266409999" stroke-miterlimit="10" stroke-width="1.3612669416666667" stroke-dasharray=""/><g transform="translate(302.91943843486195,1597.0928266409999) translate(-302.91943843486195,-1597.0928266409999)"><path fill="black" stroke="none" paint-order="stroke fill markers" d=" M 289.30676901819527 1590.2864919326666 L 302.91943843486195 1597.0928266409999 L 289.30676901819527 1603.899161349333 Z"/></g></g><g><text fill="black" stroke="none" font-family="sans-serif" font-size="11pt" font-style="normal" font-weight="normal" text-decoration="normal" x="269.55722853735153" y="1659.6566552800002" text-anchor="start" dominant-baseline="alphabetic" xml:space="preserve"></text></g><g><path fill="none" stroke="black" paint-order="fill stroke markers" d=" M 335.9831608708307 1666.1907366 L 216.58061358753906 1666.1907366" stroke-miterlimit="10" stroke-width="1.3612669416666667" stroke-dasharray=""/><g transform="translate(203.1312962038724,1666.1907366) translate(-203.1312962038724,-1666.1907366)"><path fill="black" stroke="none" paint-order="stroke fill markers" d=" M 216.7439656205391 1659.3844018916668 L 203.1312962038724 1666.1907366 L 216.7439656205391 1672.9970713083333 Z"/></g></g><g><path fill="none" stroke="black" paint-order="fill stroke markers" d=" M 321.28147790083074 1651.48905363 L 350.6848438408307 1680.8924195700001 M 350.6848438408307 1651.48905363 L 321.28147790083074 1680.8924195700001" stroke-miterlimit="10" stroke-width="2.613632528" stroke-dasharray=""/></g><g><text fill="black" stroke="none" font-family="sans-serif" font-size="11pt" font-style="normal" font-weight="normal" text-decoration="normal" x="87.28858326936785" y="1705.3952245200003" text-anchor="start" dominant-baseline="alphabetic" xml:space="preserve">respond</text></g><g><path fill="none" stroke="black" paint-order="fill stroke markers" d=" M 186.79609290387242 1711.92930584 L 54.20817422165495 1711.92930584" stroke-miterlimit="10" stroke-width="1.3612669416666667" stroke-dasharray="6.53408132"/><g transform="translate(40.75885683798828,1711.92930584) translate(-40.75885683798828,-1711.92930584)"><path fill="black" stroke="none" paint-order="stroke fill markers" d=" M 54.37152625465495 1705.1229711316669 L 40.75885683798828 1711.92930584 L 54.37152625465495 1718.7356405483333 Z"/></g></g><g><g/><path fill="none" stroke="black" paint-order="fill stroke markers" d=" M 1118.7436953969518 554.090095936 L 1574.8120957702538 554.090095936 L 1574.8120957702538 1183.3221270519996 L 1118.7436953969518 1183.3221270519996 L 1118.7436953969518 554.090095936 Z" stroke-miterlimit="10" stroke-width="2.3336004714285714" stroke-dasharray=""/><path fill="white" stroke="black" paint-order="fill stroke markers" d=" M 1118.7436953969518 554.090095936 L 1118.7436953969518 573.692339896 L 1165.102898994022 573.692339896 L 1174.9040209740222 563.891217916 L 1174.9040209740222 554.090095936 L 1118.7436953969518 554.090095936" stroke-miterlimit="10" stroke-width="2.3336004714285714" stroke-dasharray=""/><text fill="black" stroke="none" font-family="sans-serif" font-size="8.8pt" font-style="normal" font-weight="bold" text-decoration="normal" x="1135.078898696952" y="567.158258576" text-anchor="start" dominant-baseline="alphabetic" xml:space="preserve">alt</text><g><rect fill="white" stroke="none" x="1188.7889437790222" y="555.3969122" width="48.56154121460938" height="16.988611432000003"/></g><text fill="black" stroke="none" font-family="sans-serif" font-size="8.8pt" font-style="normal" font-weight="bold" text-decoration="normal" x="1191.2392242740223" y="567.158258576" text-anchor="start" dominant-baseline="alphabetic" xml:space="preserve">[upsert]</text><g><path fill="none" stroke="black" paint-order="fill stroke markers" d=" M 1118.7436953969518 860.5385098439998 L 1574.8120957702538 860.5385098439998" stroke-miterlimit="10" stroke-width="2.3336004714285714" stroke-dasharray="4.083800825"/></g><g/><g><rect fill="white" stroke="none" x="1188.7889437790222" y="861.8453261079998" width="30.307894364023436" height="16.988611432000003"/></g><text fill="black" stroke="none" font-family="sans-serif" font-size="8.8pt" font-style="normal" font-weight="bold" text-decoration="normal" x="1191.2392242740223" y="873.6066724839998" text-anchor="start" dominant-baseline="alphabetic" xml:space="preserve">[get]</text></g><g/></g><g/></g></svg>