<svg version="1.1" xmlns="http://www.w3.org/2000/svg" xmlns:xlink="http://www.w3.org/1999/xlink" width="1488" height="1685"><desc>title%20Generic%20Domain-Driven%20Scenario%0A%0Aactor%20%22API%20Client%22%20as%20client%0Aparticipantgroup%20WebAPI%5CnLayer%0Aparticipant%20%22Controller%22%20as%20api%0Aparticipant%20%22DTO%22%20as%20apiDTO%0Aparticipant%20%22Domain%5Cnobject%22%20as%20domainObject%0Aend%0Aparticipantgroup%20Application%5CnLayer%0Aparticipant%20%22Application%5CnService%22%20as%20appservice%0Aparticipant%20%22Repository%22%20as%20repository%0Aend%0Aparticipantgroup%20Domain%5CnLayer%0Aparticipant%20%22Aggregate%5CnRoot%22%20as%20aggregateroot%0Aend%0Aparticipantgroup%20Infrastructure%5CnLayer%0Aparticipant%20%22Infrastructure%5CnService%22%20as%20infservice%0Aparticipant%20%22Data%5CnService%22%20as%20dataservice%0Aparticipant%20%22DTO%22%20as%20dataDTO%0Aparticipant%20%22Domain%5Cnobject%22%20as%20dataDomainObject%0Aend%0Adatabase%20Database%0A%0Aclient-%3Eapi%3A%0Aactivate%20api%0Aapi-%3E*domainObject%3Avalidate%20%26%5Cntranslate%0Aapi%3C-domainObject%3A%0Adestroy%20domainObject%0Aapi-%3Eappservice%3A%0Aactivate%20appservice%0Aappservice-%3E(1)repository%3A%0Aactivate%20repository%0Arepository-%3E(1)dataservice%3A%0Aactivate%20dataservice%0A%0Aalt%20upsert%0Adataservice-%3E*dataDTO%3Atranslate%0Adataservice%3C-dataDTO%3A%0Adataservice-%3EDatabase%3Astore%0Adataservice%3C--Database%3A%0Adestroyafter%20dataDTO%0Aelse%20get%0Adataservice-%3EDatabase%3Aretrieve%0Adataservice%3C--Database%3A%0Adataservice-%3E*dataDomainObject%3Atranslate%0Adataservice%3C-dataDomainObject%3A%0Adestroyafter%20dataDomainObject%0Aend%0Arepository%3C--dataservice%3A%0A%0Adeactivateafter%20dataservice%0Adeactivateafter%20repository%0Aappservice-%3Eaggregateroot%3A%0Aactivate%20aggregateroot%0Aappservice%3C--aggregateroot%3A%0Adeactivateafter%20aggregateroot%0Aappservice-%3Einfservice%3A%0Aactivate%20infservice%0Aappservice%3C--infservice%3A%0Aapi%3C--appservice%3A%0Adeactivateafter%20infservice%0Adeactivateafter%20appservice%0Aapi-%3E*apiDTO%3Atranslate%0Aapi%3C-apiDTO%3A%0Adestroy%20apiDTO%0Aclient%3C--api%3Arespond%0Adeactivateafter%20api%0A</desc><defs/><g><g/><g/><g/><g/><g/><g/><g/><g/><g/><g/><g/><g/><g/><g/><g/><g/><g/><g/><g/><g/><g/><g/><g/><g/><g/><g/><g/><g/><g/><g/><g/><g/><g/><g/><g/><g/><g/><g/><g/><g/><g/><g/><g/><g/><g/><g/><g/><g/><g/><g><rect fill="white" stroke="none" x="0" y="0" width="1488" height="1685"/></g><g><text fill="black" stroke="none" font-family="sans-serif" font-size="16.5pt" font-style="normal" font-weight="normal" text-decoration="normal" x="583.0286657811895" y="24.50280495" text-anchor="start" dominant-baseline="alphabetic" xml:space="preserve">Generic Domain-Driven Scenario</text></g><g><g><path fill="none" stroke="black" paint-order="fill stroke markers" d=" M 137.29718217444662 67.2193615795 L 479.5124602771745 67.2193615795 L 479.5124602771745 1677.6253789099999 L 137.29718217444662 1677.6253789099999 L 137.29718217444662 67.2193615795" stroke-miterlimit="10" stroke-width="1.3612669416666667" stroke-dasharray=""/></g><g><text fill="black" stroke="none" font-family="sans-serif" font-size="11pt" font-style="normal" font-weight="normal" text-decoration="normal" x="281.6510675637012" y="90.0886461995" text-anchor="start" dominant-baseline="alphabetic" xml:space="preserve">WebAPI</text><text fill="black" stroke="none" font-family="sans-serif" font-size="11pt" font-style="normal" font-weight="normal" text-decoration="normal" x="281.6510675637012" y="106.42384949950001" text-anchor="start" dominant-baseline="alphabetic" xml:space="preserve">Layer</text></g><g><path fill="none" stroke="black" paint-order="fill stroke markers" d=" M 495.8476635771745 67.2193615795 L 741.2023269864793 67.2193615795 L 741.2023269864793 1677.6253789099999 L 495.8476635771745 1677.6253789099999 L 495.8476635771745 67.2193615795" stroke-miterlimit="10" stroke-width="1.3612669416666667" stroke-dasharray=""/></g><g><text fill="black" stroke="none" font-family="sans-serif" font-size="11pt" font-style="normal" font-weight="normal" text-decoration="normal" x="582.6660322691316" y="90.0886461995" text-anchor="start" dominant-baseline="alphabetic" xml:space="preserve">Application</text><text fill="black" stroke="none" font-family="sans-serif" font-size="11pt" font-style="normal" font-weight="normal" text-decoration="normal" x="582.6660322691316" y="106.42384949950001" text-anchor="start" dominant-baseline="alphabetic" xml:space="preserve">Layer</text></g><g><path fill="none" stroke="black" paint-order="fill stroke markers" d=" M 757.5375302864792 67.2193615795 L 876.9722090980653 67.2193615795 L 876.9722090980653 1677.6253789099999 L 757.5375302864792 1677.6253789099999 L 757.5375302864792 67.2193615795" stroke-miterlimit="10" stroke-width="1.3612669416666667" stroke-dasharray=""/></g><g><text fill="black" stroke="none" font-family="sans-serif" font-size="11pt" font-style="normal" font-weight="normal" text-decoration="normal" x="791.9971792625847" y="90.0886461995" text-anchor="start" dominant-baseline="alphabetic" xml:space="preserve">Domain</text><text fill="black" stroke="none" font-family="sans-serif" font-size="11pt" font-style="normal" font-weight="normal" text-decoration="normal" x="791.9971792625847" y="106.42384949950001" text-anchor="start" dominant-baseline="alphabetic" xml:space="preserve">Layer</text></g><g><path fill="none" stroke="black" paint-order="fill stroke markers" d=" M 893.3074123980651 67.2193615795 L 1366.335298999879 67.2193615795 L 1366.335298999879 1677.6253789099999 L 893.3074123980651 1677.6253789099999 L 893.3074123980651 67.2193615795" stroke-miterlimit="10" stroke-width="1.3612669416666667" stroke-dasharray=""/></g><g><text fill="black" stroke="none" font-family="sans-serif" font-size="11pt" font-style="normal" font-weight="normal" text-decoration="normal" x="1086.6395624860813" y="90.0886461995" text-anchor="start" dominant-baseline="alphabetic" xml:space="preserve">Infrastructure</text><text fill="black" stroke="none" font-family="sans-serif" font-size="11pt" font-style="normal" font-weight="normal" text-decoration="normal" x="1086.6395624860813" y="106.42384949950001" text-anchor="start" dominant-baseline="alphabetic" xml:space="preserve">Layer</text></g></g><g><path fill="none" stroke="black" paint-order="fill stroke markers" d=" M 40.75885683798828 182.790924927 L 40.75885683798828 1677.6253789099999" stroke-miterlimit="10" stroke-width="1.3612669416666667" stroke-dasharray="12.565541,5.445067766666667"/><path fill="none" stroke="black" paint-order="fill stroke markers" d=" M 194.96369455387241 182.790924927 L 194.96369455387241 1677.6253789099999" stroke-miterlimit="10" stroke-width="1.3612669416666667" stroke-dasharray="12.565541,5.445067766666667"/><path fill="none" stroke="black" paint-order="fill stroke markers" d=" M 335.9831608708307 1528.9750288799999 L 335.9831608708307 1574.71359812" stroke-miterlimit="10" stroke-width="1.3612669416666667" stroke-dasharray="12.565541,5.445067766666667"/><path fill="none" stroke="black" paint-order="fill stroke markers" d=" M 428.363472616987 330.29781072599997 L 428.363472616987 376.03637996599997" stroke-miterlimit="10" stroke-width="1.3612669416666667" stroke-dasharray="12.565541,5.445067766666667"/><path fill="none" stroke="black" paint-order="fill stroke markers" d=" M 557.5979238203698 182.790924927 L 557.5979238203698 1677.6253789099999" stroke-miterlimit="10" stroke-width="1.3612669416666667" stroke-dasharray="12.565541,5.445067766666667"/><path fill="none" stroke="black" paint-order="fill stroke markers" d=" M 680.2752555250222 182.790924927 L 680.2752555250222 1677.6253789099999" stroke-miterlimit="10" stroke-width="1.3612669416666667" stroke-dasharray="12.565541,5.445067766666667"/><path fill="none" stroke="black" paint-order="fill stroke markers" d=" M 817.2548696922722 182.790924927 L 817.2548696922722 1677.6253789099999" stroke-miterlimit="10" stroke-width="1.3612669416666667" stroke-dasharray="12.565541,5.445067766666667"/><path fill="none" stroke="black" paint-order="fill stroke markers" d=" M 962.3805028414558 182.790924927 L 962.3805028414558 1677.6253789099999" stroke-miterlimit="10" stroke-width="1.3612669416666667" stroke-dasharray="12.565541,5.445067766666667"/><path fill="none" stroke="black" paint-order="fill stroke markers" d=" M 1081.7865332765768 182.790924927 L 1081.7865332765768 1677.6253789099999" stroke-miterlimit="10" stroke-width="1.3612669416666667" stroke-dasharray="12.565541,5.445067766666667"/><path fill="none" stroke="black" paint-order="fill stroke markers" d=" M 1222.8059995935353 644.913826284 L 1222.8059995935353 821.3340219239999" stroke-miterlimit="10" stroke-width="1.3612669416666667" stroke-dasharray="12.565541,5.445067766666667"/><path fill="none" stroke="black" paint-order="fill stroke markers" d=" M 1315.1863113396914 1059.1745819719997 L 1315.1863113396914 1144.1176391319996" stroke-miterlimit="10" stroke-width="1.3612669416666667" stroke-dasharray="12.565541,5.445067766666667"/><path fill="none" stroke="black" paint-order="fill stroke markers" d=" M 1415.340908899879 182.790924927 L 1415.340908899879 1677.6253789099999" stroke-miterlimit="10" stroke-width="1.3612669416666667" stroke-dasharray="12.565541,5.445067766666667"/></g><g><g><path fill="white" stroke="black" paint-order="fill stroke markers" d=" M 50.06992271898828 113.69301496800001 A 9.311065881 9.311065881 0 1 1 50.06991806345573 113.68370390367085 M 40.75885683798828 123.004080849 L 40.75885683798828 142.933028875 M 28.997510461988284 130.191570301 L 52.52020321398828 130.191570301 M 40.75885683798828 142.933028875 L 28.997510461988284 161.555160637 M 40.75885683798828 142.933028875 L 52.52020321398828 161.555160637" stroke-miterlimit="10" stroke-width="2.7769845610000004" stroke-dasharray=""/></g><g><text fill="black" stroke="none" font-family="sans-serif" font-size="11pt" font-style="normal" font-weight="normal" text-decoration="normal" x="8.167601650000002" y="177.890363937" text-anchor="start" dominant-baseline="alphabetic" xml:space="preserve">API Client</text></g><path fill="none" stroke="none"/><g><path fill="white" stroke="black" paint-order="fill stroke markers" d=" M 145.4647838244466 138.84922805000002 L 244.4626052832982 138.84922805000002 L 244.4626052832982 182.79092492700002 L 145.4647838244466 182.79092492700002 L 145.4647838244466 138.84922805000002 Z" stroke-miterlimit="10" stroke-width="2.613632528" stroke-dasharray=""/></g><g><text fill="black" stroke="none" font-family="sans-serif" font-size="11pt" font-style="normal" font-weight="normal" text-decoration="normal" x="163.18847940494663" y="166.455721627" text-anchor="start" dominant-baseline="alphabetic" xml:space="preserve">Controller</text></g><path fill="none" stroke="none"/><g><path fill="white" stroke="black" paint-order="fill stroke markers" d=" M 504.0152652271745 122.51402475 L 611.1805824135652 122.51402475 L 611.1805824135652 182.790924927 L 504.0152652271745 182.790924927 L 504.0152652271745 122.51402475 Z" stroke-miterlimit="10" stroke-width="2.613632528" stroke-dasharray=""/></g><g><text fill="black" stroke="none" font-family="sans-serif" font-size="11pt" font-style="normal" font-weight="normal" text-decoration="normal" x="521.7389608076745" y="150.12051832699998" text-anchor="start" dominant-baseline="alphabetic" xml:space="preserve">Application</text><text fill="black" stroke="none" font-family="sans-serif" font-size="11pt" font-style="normal" font-weight="normal" text-decoration="normal" x="533.1562810591394" y="166.45572162699997" text-anchor="start" dominant-baseline="alphabetic" xml:space="preserve">Service</text></g><path fill="none" stroke="none"/><g><path fill="white" stroke="black" paint-order="fill stroke markers" d=" M 627.5157857135652 138.84922805000002 L 733.0347253364793 138.84922805000002 L 733.0347253364793 182.79092492700002 L 627.5157857135652 182.79092492700002 L 627.5157857135652 138.84922805000002 Z" stroke-miterlimit="10" stroke-width="2.613632528" stroke-dasharray=""/></g><g><text fill="black" stroke="none" font-family="sans-serif" font-size="11pt" font-style="normal" font-weight="normal" text-decoration="normal" x="645.2394812940652" y="166.455721627" text-anchor="start" dominant-baseline="alphabetic" xml:space="preserve">Repository</text></g><path fill="none" stroke="none"/><g><path fill="white" stroke="black" paint-order="fill stroke markers" d=" M 765.7051319364792 122.51402475 L 868.8046074480652 122.51402475 L 868.8046074480652 182.790924927 L 765.7051319364792 182.790924927 L 765.7051319364792 122.51402475 Z" stroke-miterlimit="10" stroke-width="2.613632528" stroke-dasharray=""/></g><g><text fill="black" stroke="none" font-family="sans-serif" font-size="11pt" font-style="normal" font-weight="normal" text-decoration="normal" x="783.4288275169793" y="150.12051832699998" text-anchor="start" dominant-baseline="alphabetic" xml:space="preserve">Aggregate</text><text fill="black" stroke="none" font-family="sans-serif" font-size="11pt" font-style="normal" font-weight="normal" text-decoration="normal" x="801.7716925072136" y="166.45572162699997" text-anchor="start" dominant-baseline="alphabetic" xml:space="preserve">Root</text></g><path fill="none" stroke="none"/><g><path fill="white" stroke="black" paint-order="fill stroke markers" d=" M 901.4750140480652 122.51402475 L 1023.2859916348465 122.51402475 L 1023.2859916348465 182.790924927 L 901.4750140480652 182.790924927 L 901.4750140480652 122.51402475 Z" stroke-miterlimit="10" stroke-width="2.613632528" stroke-dasharray=""/></g><g><text fill="black" stroke="none" font-family="sans-serif" font-size="11pt" font-style="normal" font-weight="normal" text-decoration="normal" x="919.1987096285652" y="150.12051832699998" text-anchor="start" dominant-baseline="alphabetic" xml:space="preserve">Infrastructure</text><text fill="black" stroke="none" font-family="sans-serif" font-size="11pt" font-style="normal" font-weight="normal" text-decoration="normal" x="937.9388600802254" y="166.45572162699997" text-anchor="start" dominant-baseline="alphabetic" xml:space="preserve">Service</text></g><path fill="none" stroke="none"/><g><path fill="white" stroke="black" paint-order="fill stroke markers" d=" M 1039.6211949348465 122.51402475 L 1123.9518716183075 122.51402475 L 1123.9518716183075 182.790924927 L 1039.6211949348465 182.790924927 L 1039.6211949348465 122.51402475 Z" stroke-miterlimit="10" stroke-width="2.613632528" stroke-dasharray=""/></g><g><text fill="black" stroke="none" font-family="sans-serif" font-size="11pt" font-style="normal" font-weight="normal" text-decoration="normal" x="1066.3033560915183" y="150.12051832699998" text-anchor="start" dominant-baseline="alphabetic" xml:space="preserve">Data</text><text fill="black" stroke="none" font-family="sans-serif" font-size="11pt" font-style="normal" font-weight="normal" text-decoration="normal" x="1057.3448905153464" y="166.45572162699997" text-anchor="start" dominant-baseline="alphabetic" xml:space="preserve">Service</text></g><g><path fill="white" stroke="black" paint-order="fill stroke markers" d=" M 1391.491512081879 150.773926459 L 1391.491512081879 116.469999529 L 1439.190305717879 116.469999529 L 1439.190305717879 150.773926459" stroke-miterlimit="10" stroke-width="2.7769845610000004" stroke-dasharray=""/><path fill="white" stroke="black" paint-order="fill stroke markers" d=" M 1439.190305717879 115.2775296881 L 1439.1891132579754 115.38534023301662 L 1439.1855359975093 115.4931399969686 L 1439.1795742942038 115.60091820006936 L 1439.1712287442247 115.7086640645884 L 1439.1605001821194 115.81636681602909 L 1439.1473896807356 115.92401568420601 L 1439.1318985511123 116.03159990432205 L 1439.1140283423497 116.13910871804485 L 1439.0937808414537 116.24653137458266 L 1439.0711580731574 116.3538571317593 L 1439.046162299719 116.46107525708852 L 1439.0187960206952 116.56817502884712 L 1438.9890619726905 116.67514573714719 L 1438.9569631290854 116.78197668500702 L 1438.9225026997372 116.88865718942087 L 1438.8856841306604 116.99517658242718 L 1438.8465111036812 117.10152421217543 L 1438.8049875360693 117.20768944399126 L 1438.7611175801474 117.31366166143997 L 1438.714905622874 117.41943026738811 L 1438.6663562854067 117.52498468506323 L 1438.6154744226387 117.63031435911152 L 1438.5622651227136 117.73540875665337 L 1438.5067337065175 117.8402573683366 L 1438.4488857271456 117.94484970938738 L 1438.3887269693473 118.0491753206588 L 1438.3262634489486 118.15322376967667 L 1438.2615014122496 118.25698465168279 L 1438.1944473353994 118.3604475906754 L 1438.1251079237504 118.46360224044686 L 1438.053490111186 118.56643828561813 L 1437.9796010594273 118.6689454426704 L 1437.903448157318 118.77111346097338 L 1437.8250390200853 118.87293212381039 L 1437.7443814885773 118.97439124939999 L 1437.6614836284798 119.07548069191415 L 1437.57635372951 119.17619034249289 L 1437.4890003045866 119.27651013025506 L 1437.3994320889794 119.37643002330549 L 1437.3076580394352 119.47594002973813 L 1437.213687333283 119.57503019863528 L 1437.1175293675144 119.6736906210626 L 1437.019193757846 119.7719114310601 L 1436.9186903377574 119.8696828066286 L 1436.8160291575061 119.96699497071202 L 1436.711220483125 120.06383819217507 L 1436.6042747953943 120.16020278677628 L 1436.4952027887934 120.2560791181365 L 1436.384015370432 120.3514575987025 L 1436.2707236589595 120.4463286907057 L 1436.1553389834526 120.54068290711595 L 1436.0378728822825 120.63451081259025 L 1435.9183371019617 120.72780302441623 L 1435.7967435959683 120.82055021345047 L 1435.673104523552 120.91274310505133 L 1435.5474322485165 121.00437248000651 L 1435.419739337985 121.09542917545484 L 1435.2900385611422 121.18590408580266 L 1435.1583428879571 121.27578816363435 L 1435.024665487888 121.36507242061701 L 1434.889019728563 121.45374792839937 L 1434.7514191744451 121.54180581950452 L 1434.6118775854752 121.62923728821674 L 1434.470408915696 121.71603359146202 L 1434.3270273118562 121.80218604968238 L 1434.1817471119969 121.88768604770375 L 1434.0345828440172 121.97252503559763 L 1433.885549224221 122.05669452953589 L 1433.7346611558462 122.1401861126393 L 1433.5819337275739 122.22299143581911 L 1433.4273822120194 122.30510221861202 L 1433.271022064206 122.38651025000817 L 1433.1128689200177 122.46720738927226 L 1432.9529385946375 122.5471855667576 L 1432.7912470809642 122.62643678471312 L 1432.6278105480148 122.70495311808304 L 1432.4626453393064 122.78272671529945 L 1432.2957679712222 122.85974979906746 L 1432.1271951313597 122.93601466714287 L 1431.9569436768625 123.01151369310242 L 1431.7850306327343 123.08623932710643 L 1431.6114731901364 123.16018409665378 L 1431.436288704668 123.23334060732914 L 1431.259494694632 123.30570154354238 L 1431.0811088392818 123.37725966926021 L 1430.9011489770546 123.44800782872969 L 1430.7196331037865 123.51793894719378 L 1430.5365793709136 123.58704603159897 L 1430.3520060836565 123.65532217129439 L 1430.1659316991904 123.72276053872295 L 1429.9783748247985 123.78935439010411 L 1429.7893542160118 123.85509706610824 L 1429.598888774734 123.91998199252252 L 1429.40699754735 123.98400268090838 L 1429.2136997228233 124.04715272925033 L 1429.0190146307748 124.10942582259615 L 1428.8229617395516 124.17081573368841 L 1428.6255606542795 124.23131632358717 L 1428.4268311149024 124.29092154228384 L 1428.2267929942086 124.34962542930622 L 1428.0254662958437 124.40742211431454 L 1427.8228711523095 124.46430581768846 L 1427.619027822952 124.52027085110502 L 1427.4139566919334 124.57531161810756 L 1427.2076782661968 124.62942261466523 L 1427.0002131734125 124.68259842972344 L 1426.7915821599167 124.73483374574504 L 1426.5818060886372 124.78612333924193 L 1426.3709059370062 124.8364620812975 L 1426.1589027948633 124.8858449380795 L 1425.9458178623456 124.93426697134342 L 1425.7316724477691 124.98172333892626 L 1425.516487965497 125.02820929523081 L 1425.3002859337978 125.0737201917002 L 1425.0830879726946 125.11825147728268 L 1424.8649158018025 125.16179869888683 L 1424.645791238157 125.20435750182676 L 1424.4257361940317 125.24592363025765 L 1424.2047726747476 125.28649292760129 L 1423.9829227764726 125.32606133696174 L 1423.7602086840116 125.36462490153107 L 1423.5366526685882 125.40217976498494 L 1423.3122770856176 125.43872217186829 L 1423.0871043724712 125.47424846797091 L 1422.8611570462328 125.50875510069277 L 1422.6344577014468 125.54223861939937 L 1422.4070290078582 125.57469567576673 L 1422.1788937081476 125.60612302411627 L 1421.950074615654 125.63651752173934 L 1421.7205946120969 125.66587612921151 L 1421.4904766452848 125.6941959106965 L 1421.2597437268228 125.72147403423973 L 1421.0284189298104 125.74770777205163 L 1420.7965253865345 125.77289450078025 L 1420.5640862861565 125.7970317017737 L 1420.3311248723924 125.82011696133202 L 1420.0976644411894 125.84214797094847 L 1419.8637283383964 125.86312252754045 L 1419.6293399574286 125.88303853366979 L 1419.3945227369286 125.90189399775247 L 1419.1593001584229 125.91968703425778 L 1418.9236957439732 125.93641586389691 L 1418.687733053825 125.95207881380085 L 1418.4514356840502 125.96667431768763 L 1418.2148272641891 125.98020091601906 L 1417.9779314548866 125.99265725614656 L 1417.7407719455261 126.00404209244648 L 1417.503372451861 126.01435428644471 L 1417.2657567136425 126.02359280693042 L 1417.0279484922469 126.03175673005929 L 1416.789971568298 126.03884523944578 L 1416.5518497392895 126.04485762624486 L 1416.3136068172062 126.04979328922288 L 1416.075266626142 126.05365173481763 L 1415.8368529999168 126.05643257718779 L 1415.5983897796953 126.05813553825143 L 1415.3599008116 126.05876044771387 L 1415.1214099443296 126.05830724308466 L 1414.8829410267717 126.05677596968391 L 1414.6445179056195 126.05416678063769 L 1414.4061644229864 126.0504799368627 L 1414.1679044140221 126.04571580704027 L 1413.9297617045288 126.0398748675794 L 1413.691760108579 126.03295770256918 L 1413.4539234261342 126.02496500372034 L 1413.2162754406643 126.01589757029609 L 1412.9788399167699 126.00575630903225 L 1412.7416405978051 125.99454223404646 L 1412.5047012035047 125.9822564667369 L 1412.2680454276103 125.96890023567005 L 1412.0316969355026 125.95447487645788 L 1411.7956793618337 125.93898183162432 L 1411.560016308164 125.9224226504609 L 1411.324731340603 125.90479898887196 L 1411.0898479874509 125.88611260920898 L 1410.8553897368477 125.86636538009435 L 1410.6213800344226 125.84555927623451 L 1410.3878422809514 125.82369637822252 L 1410.1547998300143 125.80077887232996 L 1409.9222759856627 125.77680905028832 L 1409.6902940000869 125.75178930905984 L 1409.4588770712921 125.72572215059779 L 1409.2280483407787 125.69861018159627 L 1408.997830891227 125.67045611322962 L 1408.7682477441906 125.64126276088119 L 1408.5393218577924 125.61103304386191 L 1408.3110761244304 125.57976998511826 L 1408.0835333684877 125.54747671093008 L 1407.8567163440505 125.5141564505979 L 1407.6306477326318 125.47981253611995 L 1407.4053501409048 125.44444840185908 L 1407.180846098441 125.40806758419922 L 1406.957158055457 125.37067372119185 L 1406.734308380571 125.3322705521921 L 1406.512319358565 125.29286191748486 L 1406.2912131881558 125.25245175790076 L 1406.0710119797766 125.21104411442208 L 1405.8517377533642 125.16864312777868 L 1405.633412436159 125.12525303803388 L 1405.4160578605108 125.0808781841605 L 1405.1996957616957 125.03552300360693 L 1404.9843477757433 124.98919203185345 L 1404.770035437273 124.94188990195862 L 1404.55678017734 124.893621344096 L 1404.3446033212924 124.84439118508118 L 1404.1335260866392 124.79420434788902 L 1403.923569580928 124.7430658511614 L 1403.714754799634 124.69098080870542 L 1403.5071026240616 124.63795442898189 L 1403.3006338192554 124.58399201458458 L 1403.0953690319238 124.52909896170999 L 1402.8913287883743 124.47328075961767 L 1402.6885334924614 124.41654299008127 L 1402.4870034235457 124.3588913268305 L 1402.2867587344658 124.30033153498366 L 1402.0878194495244 124.24086947047108 L 1401.8902054624837 124.1805110794497 L 1401.6939365345777 124.1192623977083 L 1401.499032292536 124.05712955006403 L 1401.3055122266198 123.99411874974987 L 1401.1133956886752 123.93023629779336 L 1400.9227018901954 123.86548858238643 L 1400.7334499004014 123.79988207824668 L 1400.5456586443345 123.73342334596987 L 1400.3593469009638 123.66611903137381 L 1400.1745333013084 123.5979758648339 L 1399.9912363265744 123.52900066061 L 1399.8094743063061 123.45920031616504 L 1399.6292654165545 123.3885818114753 L 1399.4506276780583 123.31715220833243 L 1399.2735789544424 123.2449186496372 L 1399.0981369504316 123.17188835868528 L 1398.92431921008 123.09806863844491 L 1398.7521431150171 123.02346687082661 L 1398.581625882709 122.94809051594495 L 1398.4127845647363 122.87194711137262 L 1398.2456360450904 122.79504427138663 L 1398.080197038484 122.71738968620689 L 1397.91648408868 122.63899112122719 L 1397.7545135668365 122.55985641623872 L 1397.5943016698711 122.479993484646 L 1397.43586441884 122.39941031267568 L 1397.2792176573364 122.31811495857778 L 1397.1243770499054 122.23611555181996 L 1396.9713580804791 122.15342029227457 L 1396.8201760508268 122.07003744939865 L 1396.6708460790255 121.98597536140701 L 1396.523383097948 121.9012424344384 L 1396.3778018537696 121.8158471417149 L 1396.234116904493 121.7297980226946 L 1396.0923426184938 121.64310368221773 L 1395.9524931730823 121.55577278964606 L 1395.8145825530867 121.4678140779961 L 1395.6786245494536 121.3792363430657 L 1395.5446327578707 121.29004844255454 L 1395.4126205774048 121.20025929517834 L 1395.2826012091646 121.10987787977703 L 1395.154587654978 121.01891323441684 L 1395.0285927160942 120.92737445548647 L 1394.9046289919017 120.83527069678756 L 1394.78270887867 120.74261116861922 L 1394.6628445683086 120.64940513685704 L 1394.5450480471486 120.55566192202654 L 1394.4293310947442 120.46139089837106 L 1394.3157052826941 120.36660149291444 L 1394.2041819734845 120.27130318451822 L 1394.094772319354 120.17550550293382 L 1393.9874872611763 120.07921802784955 L 1393.882337527368 119.98245038793272 L 1393.779333632815 119.88521225986665 L 1393.6784858778208 119.78751336738313 L 1393.5798043470766 119.68936348028998 L 1393.4832989086538 119.59077241349414 L 1393.388979213015 119.49175002602011 L 1393.2968546920522 119.39230622002414 L 1393.20693455814 119.29245093980393 L 1393.119227803217 119.19219417080431 L 1393.0337431978858 119.09154593861864 L 1392.9504892905354 118.99051630798624 L 1392.8694744064876 118.889115381786 L 1392.7907066471628 118.78735330002604 L 1392.7141938892714 118.68524023882972 L 1392.6399437840257 118.58278640941809 L 1392.567963756374 118.4800020570887 L 1392.4982610042593 118.37689746019112 L 1392.4308424978988 118.27348292909913 L 1392.3657149790868 118.16976880517967 L 1392.302884960521 118.06576545975868 L 1392.2423587251508 117.96148329308406 L 1392.1841423255494 117.85693273328555 L 1392.128241583308 117.75212423533202 L 1392.0746620884545 117.64706827998593 L 1392.023409198894 117.54177537275525 L 1391.9744880398719 117.43625604284297 L 1391.9279035034642 117.33052084209415 L 1391.883660248085 117.22458034394076 L 1391.8417626980238 117.11844514234431 L 1391.802215043 117.01212585073652 L 1391.7650212377464 116.90563310095798 L 1391.7301850016124 116.79897754219489 L 1391.6977098181928 116.69216983991427 L 1391.6675989349787 116.58522067479731 L 1391.6398553630336 116.47814074167144 L 1391.6144818766911 116.37094074844072 L 1391.5914810132792 116.26363141501513 L 1391.5708550728648 116.1562234722386 L 1391.5526061180246 116.04872766081589 L 1391.5367359736392 115.94115473023857 L 1391.5232462267097 115.83351543771006 L 1391.5121382261996 115.72582054706992 L 1391.5034130828994 115.61808082771745 L 1391.4970716693165 115.5103070535348 L 1391.4931146195868 115.4025100018096 L 1391.4915423294121 115.29470045215717 L 1391.49235495602 115.18688918544265 L 1391.4955524181487 115.07908698270286 L 1391.5011343960543 114.97130462406824 L 1391.509100331544 114.86355288768483 L 1391.5194494280308 114.7558425486365 L 1391.5321806506136 114.64818437786737 L 1391.5472927261808 114.5405891411048 L 1391.5647841435373 114.43306759778282 L 1391.584653153556 114.32563049996617 L 1391.6068977693528 114.21828859127507 L 1391.6315157664842 114.11105260581097 L 1391.6585046831713 114.00393326708301 L 1391.6878618205446 113.89694128693586 L 1391.719584242915 113.79008736447831 L 1391.7536687780669 113.68338218501361 L 1391.790112017575 113.57683641897076 L 1391.8289103171458 113.47046072083758 L 1391.8700597969814 113.36426572809525 L 1391.9135563421685 113.25826206015454 L 1391.9593956030885 113.15246031729389 L 1392.0075729958537 113.04687107959944 L 1392.0580837027649 112.94150490590698 L 1392.1109226727935 112.83637233274605 L 1392.1660846220866 112.73148387328636 L 1392.2235640344952 112.62685001628645 L 1392.283355162126 112.52248122504484 L 1392.345452025916 112.41838793635367 L 1392.4098484162305 112.31458055945505 L 1392.4765378934842 112.21106947500019 L 1392.545513788785 112.10786503401127 L 1392.6167692046008 112.00497755684637 L 1392.6902970154495 111.90241733216747 L 1392.766089868611 111.8001946159116 L 1392.8441401848636 111.69831963026517 L 1392.9244401592402 111.59680256264186 L 1393.0069817618107 111.49565356466383 L 1393.0917567384836 111.39488275114658 L 1393.1787566118314 111.29450019908752 L 1393.26797268194 111.19451594665817 L 1393.3593960272758 111.09493999220047 L 1393.4530175055813 110.99578229322687 L 1393.5488277547865 110.89705276542465 L 1393.6468171939462 110.79876128166431 L 1393.746976024198 110.70091767101232 L 1393.8492942297423 110.60353171774821 L 1393.9537615788443 110.50661316038615 L 1394.0603676248556 110.4101716907011 L 1394.169101707261 110.3142169527597 L 1394.2799529527424 110.21875854195572 L 1394.3929102762677 110.12380600405075 L 1394.5079623821987 110.02936883421941 L 1394.6250977654208 109.93545647610003 L 1394.7443047124934 109.84207832085012 L 1394.8655713028209 109.74924370620741 L 1394.9888854098451 109.656961915556 L 1395.1142347022587 109.56524217699805 L 1395.2416066452363 109.47409366243099 L 1395.3709885016901 109.38352548663032 L 1395.5023673335422 109.29354670633813 L 1395.6357300030188 109.2041663193575 L 1395.7710631739642 109.1153932636526 L 1395.908353313174 109.02723641645508 L 1396.0475866917488 108.93970459337615 L 1396.1887493864667 108.85280654752518 L 1396.331827281176 108.76655096863436 L 1396.476806068206 108.68094648218968 L 1396.6236712497994 108.59600164856846 L 1396.77240813956 108.51172496218328 L 1396.923001863923 108.42812485063253 L 1397.0754373636412 108.34520967385771 L 1397.229699395292 108.2629877233074 L 1397.3857725328007 108.18146722110814 L 1397.5436411689836 108.1006563192422 L 1397.7032895171085 108.02056309873245 L 1397.8647016124737 107.94119556883419 L 1398.027861314004 107.86256166623426 L 1398.1927523058657 107.7846692542574 L 1398.3593580990967 107.70752612207988 L 1398.5276620332563 107.63113998395067 L 1398.6976472780916 107.55551847841988 L 1398.86929683522 107.48066916757509 L 1399.0425935398282 107.40659953628499 L 1399.2175200623908 107.33331699145097 L 1399.3940589104009 107.26082886126648 L 1399.572192430121 107.1891423944841 L 1399.7519028083475 107.11826475969077 L 1399.9331720741925 107.04820304459093 L 1400.1159821008803 106.97896425529768 L 1400.3003146075605 106.91055531563228 L 1400.4861511611361 106.84298306643166 L 1400.6734731781066 106.77625426486443 L 1400.8622619264268 106.71037558375518 L 1401.0524985273785 106.64535361091707 L 1401.2441639574606 106.58119484849323 L 1401.4372390502897 106.51790571230643 L 1401.6317044985174 106.45549253121754 L 1401.8275408557608 106.39396154649268 L 1402.0247285385478 106.33331891117902 L 1402.223247828274 106.27357068948956 L 1402.4230788731759 106.2147228561967 L 1402.6242016903159 106.15678129603472 L 1402.8265961675795 106.09975180311135 L 1403.0302420656876 106.04364008032834 L 1403.2351190202205 105.98845173881124 L 1403.4412065436532 105.93419229734818 L 1403.6484840274052 105.88086718183811 L 1403.8569307439006 105.82848172474814 L 1404.0665258486417 105.77704116458034 L 1404.2772483822928 105.72655064534784 L 1404.4890772727758 105.67701521606048 L 1404.7019913373783 105.62843983021993 L 1404.9159692848714 105.58082934532429 L 1405.1309897176386 105.53418852238237 L 1405.3470311338158 105.48852202543759 L 1405.5640719294415 105.4438344211016 L 1405.7820904006167 105.4001301780976 L 1406.0010647456763 105.35741366681344 L 1406.220973067368 105.3156891588647 L 1406.4417933750433 105.27496082666737 L 1406.6635035868549 105.23523274302073 L 1406.8860815319667 105.19650888070004 L 1407.1095049527698 105.15879311205927 L 1407.333751507108 105.12208920864386 L 1407.558798770513 105.08640084081355 L 1407.7846242384458 105.05173157737539 L 1408.0112053285477 105.01808488522684 L 1408.2385193828989 104.98546412900906 L 1408.466543670283 104.9538725707705 L 1408.6952553884614 104.92331336964065 L 1408.924631666453 104.89378958151417 L 1409.154649566821 104.86530415874525 L 1409.3852860879672 104.83785994985244 L 1409.6165181664317 104.81145969923377 L 1409.848322679199 104.78610604689229 L 1410.0806764460115 104.76180152817209 L 1410.3135562316857 104.73854857350481 L 1410.5469387484372 104.71634950816654 L 1410.7808006582088 104.6952065520453 L 1411.0151185750046 104.67512181941912 L 1411.2498690672282 104.65609731874447 L 1411.4850286600258 104.6381349524556 L 1411.7205738376342 104.62123651677416 L 1411.9564810457318 104.60540370152964 L 1412.1927266937946 104.59063808999038 L 1412.4292871574544 104.5769411587052 L 1412.6661387808622 104.56431427735583 L 1412.9032578790527 104.5527587086199 L 1413.1406207403143 104.54227560804463 L 1413.378203628558 104.53286602393135 L 1413.6159827856934 104.52453089723063 L 1413.8539344340027 104.5172710614482 L 1414.0920347785195 104.51108724256159 L 1414.3302600094075 104.5059800589475 L 1414.5685863043425 104.50195002132008 L 1414.8069898308936 104.49899753267972 L 1415.0454467489064 104.49712288827283 L 1415.2839332128883 104.49632627556227 L 1415.5224253743913 104.49660777420866 L 1415.7608993843983 104.49796735606236 L 1415.9993313957066 104.50040488516633 L 1416.237697565314 104.5039201177697 L 1416.4759740568024 104.5085127023521 L 1416.7141370427207 104.51418217965895 L 1416.9521627069694 104.5209279827472 L 1417.1900272471798 104.52874943704218 L 1417.4277068770966 104.53764576040498 L 1417.6651778289545 104.54761606321068 L 1417.9024163558565 104.5586593484373 L 1418.1393987341476 104.57077451176553 L 1418.3761012657872 104.58396034168912 L 1418.6125002807194 104.59821551963608 L 1418.8485721392399 104.61353862010048 L 1419.0842932343596 104.62992811078506 L 1419.3196399941653 104.64738235275439 L 1419.554588884177 104.66589960059883 L 1419.789116409702 104.68547800260903 L 1420.0231991181827 104.7061156009611 L 1420.2568136015434 104.7278103319124 L 1420.4899364985306 104.7505600260079 L 1420.7225444970486 104.77436240829718 L 1420.9546143364917 104.79921509856183 L 1421.1861228100693 104.82511561155353 L 1421.4170467671265 104.85206135724258 L 1421.6473631154608 104.88004964107684 L 1421.8770488236287 104.90907766425126 L 1422.106080923251 104.93914252398773 L 1422.3344365113087 104.9702412138253 L 1422.5620927524333 105.00237062392094 L 1422.78902688119 105.03552754136038 L 1423.0152162043555 105.06970865047953 L 1423.2406381031856 105.10491053319595 L 1423.4652700356787 105.1411296693507 L 1423.6890895388283 105.17836243706036 L 1423.9120742308708 105.21660511307917 L 1424.1342018135228 105.25585387317142 L 1424.3554500742114 105.29610479249378 L 1424.5757968882945 105.33735384598788 L 1424.7952202212743 105.37959690878274 L 1425.0136981310009 105.42282975660729 L 1425.2312087698647 105.46704806621275 L 1425.4477303869835 105.51224741580504 L 1425.663241330376 105.55842328548684 L 1425.8777200491272 105.60557105770968 L 1426.091145095544 105.65368601773561 L 1426.3034951273 105.70276335410874 L 1426.5147489095687 105.75279815913633 L 1426.724885317148 105.80378542937956 L 1426.933883336572 105.8557200661539 L 1427.141722068213 105.90859687603896 L 1427.3483807283715 105.9624105713978 L 1427.553838651353 106.01715577090575 L 1427.7580752915371 106.07282700008845 L 1427.9610702254295 106.12941869186939 L 1428.1628031537061 106.18692518712656 L 1428.3632539032421 106.24534073525835 L 1428.5624024291299 106.30465949475862 L 1428.7602288166825 106.36487553380087 L 1428.956713283426 106.42598283083136 L 1429.1518361810777 106.48797527517131 L 1429.3455779975104 106.55084666762794 L 1429.537919358704 106.61459072111441 L 1429.7288410306824 106.67920106127849 L 1429.9183239214376 106.74467122714 L 1430.1063490828385 106.8109946717369 L 1430.2928977125255 106.87816476278005 L 1430.4779511557913 106.94617478331625 L 1430.6614909074456 107.01501793240017 L 1430.8434986136663 107.08468732577425 L 1431.0239560738341 107.15517599655723 L 1431.202845242354 107.22647689594075 L 1431.380148230458 107.29858289389429 L 1431.5558473079946 107.37148677987817 L 1431.729924905203 107.4451812635645 L 1431.9023636144682 107.51965897556637 L 1432.0731461920632 107.59491246817461 L 1432.2422555598725 107.6709342161027 L 1432.4096748071001 107.74771661723916 L 1432.575387191961 107.82525199340789 L 1432.7393761433548 107.90353259113589 L 1432.9016252625227 107.98255058242859 L 1433.0621183246883 108.06229806555274 L 1433.220839280679 108.14276706582646 L 1433.3777722585316 108.2239495364168 L 1433.532901565079 108.30583735914435 L 1433.6862116875197 108.38842234529507 L 1433.8376872949696 108.47169623643916 L 1433.9873132399937 108.55565070525691 L 1434.1350745601226 108.6402773563714 L 1434.280956479347 108.72556772718804 L 1434.424944409597 108.8115132887408 L 1434.5670239521992 108.89810544654519 L 1434.7071808993178 108.98533554145756 L 1434.845401235375 109.07319485054111 L 1434.9816711384524 109.16167458793817 L 1435.1159769816732 109.2507659057487 L 1435.248305334565 109.34045989491518 L 1435.3786429644026 109.43074758611344 L 1435.506976837532 109.52161995064961 L 1435.6332941206726 109.61306790136292 L 1435.7575821822013 109.70508229353456 L 1435.8798285934158 109.79765392580197 L 1436.0000211297765 109.89077354107904 L 1436.11814777213 109.98443182748187 L 1436.2341967079108 110.07861941925987 L 1436.3481563323217 110.17332689773234 L 1436.4600152494952 110.26854479223036 L 1436.5697622736332 110.36426358104383 L 1436.6773864301242 110.46047369237363 L 1436.7828769566427 110.5571655052888 L 1436.886223304224 110.65432935068861 L 1436.9874151383187 110.75195551226952 L 1437.0864423398286 110.85003422749672 L 1437.1832950061157 110.94855568858041 L 1437.277963451994 111.04751004345658 L 1437.370438210698 111.14688739677221 L 1437.4607100348287 111.2466778108748 L 1437.548769897279 111.34687130680607 L 1437.6346089921362 111.44745786529992 L 1437.718218735562 111.54842742778435 L 1437.799590766652 111.64976989738723 L 1437.878716948271 111.75147513994605 L 1437.9555893678664 111.85353298502133 L 1438.0302003382606 111.95593322691359 L 1438.1025423984186 112.05866562568397 L 1438.1726083141948 112.16171990817823 L 1438.2403910790558 112.26508576905398 L 1438.3058839147818 112.36875287181127 L 1438.3690802721437 112.47271084982621 L 1438.4299738315583 112.57694930738765 L 1438.488558503721 112.68145782073668 L 1438.5448284302124 112.78622593910906 L 1438.5987779840877 112.89124318578025 L 1438.6504017704358 112.99649905911312 L 1438.6996946269217 113.10198303360804 L 1438.7466516243 113.20768456095544 L 1438.791268066911 113.31359307109071 L 1438.833539493147 113.41969797325106 L 1438.873461675901 113.52598865703472 L 1438.9110306229875 113.63245449346185 L 1438.9462425775437 113.73908483603756 L 1438.979094018403 113.84586902181645 L 1439.0095816604487 113.95279637246892 L 1439.0377024549425 114.05985619534903 L 1439.063453589828 114.16703778456366 L 1439.086832490013 114.27433042204326 L 1439.1078368176275 114.38172337861346 L 1439.1264644722555 114.4892059150681 L 1439.1427135911479 114.59676728324311 L 1439.1565825494058 114.70439672709132 L 1439.168069960145 114.812083483758 L 1439.1771746746342 114.91981678465726 L 1439.1838957824093 115.02758585654877 L 1439.1882326113655 115.13537992261514 L 1439.190184727823 115.24318820353962 M 1439.190305717879 149.5814566181 L 1439.1891132579754 149.6892671630166 L 1439.1855359975093 149.7970669269686 L 1439.1795742942038 149.90484513006933 L 1439.1712287442247 150.0125909945884 L 1439.1605001821194 150.12029374602906 L 1439.1473896807356 150.227942614206 L 1439.1318985511123 150.33552683432202 L 1439.1140283423497 150.44303564804486 L 1439.0937808414537 150.55045830458263 L 1439.0711580731574 150.6577840617593 L 1439.046162299719 150.7650021870885 L 1439.0187960206952 150.8721019588471 L 1438.9890619726905 150.97907266714716 L 1438.9569631290854 151.085903615007 L 1438.9225026997372 151.19258411942084 L 1438.8856841306604 151.29910351242717 L 1438.8465111036812 151.40545114217542 L 1438.8049875360693 151.51161637399125 L 1438.7611175801474 151.61758859143995 L 1438.714905622874 151.72335719738808 L 1438.6663562854067 151.82891161506322 L 1438.6154744226387 151.93424128911153 L 1438.5622651227136 152.03933568665337 L 1438.5067337065175 152.14418429833657 L 1438.4488857271456 152.2487766393874 L 1438.3887269693473 152.3531022506588 L 1438.3262634489486 152.45715069967667 L 1438.2615014122496 152.56091158168277 L 1438.1944473353994 152.6643745206754 L 1438.1251079237504 152.76752917044686 L 1438.053490111186 152.87036521561814 L 1437.9796010594273 152.9728723726704 L 1437.903448157318 153.07504039097338 L 1437.8250390200853 153.17685905381038 L 1437.7443814885773 153.27831817939997 L 1437.6614836284798 153.37940762191414 L 1437.57635372951 153.48011727249286 L 1437.4890003045866 153.58043706025504 L 1437.3994320889794 153.68035695330548 L 1437.3076580394352 153.77986695973811 L 1437.213687333283 153.87895712863528 L 1437.1175293675144 153.9776175510626 L 1437.019193757846 154.07583836106008 L 1436.9186903377574 154.17360973662858 L 1436.8160291575061 154.270921900712 L 1436.711220483125 154.36776512217506 L 1436.6042747953943 154.46412971677626 L 1436.4952027887934 154.5600060481365 L 1436.384015370432 154.65538452870248 L 1436.2707236589595 154.75025562070567 L 1436.1553389834526 154.84460983711594 L 1436.0378728822825 154.93843774259025 L 1435.9183371019617 155.03172995441622 L 1435.7967435959683 155.12447714345046 L 1435.673104523552 155.21667003505132 L 1435.5474322485165 155.3082994100065 L 1435.419739337985 155.3993561054548 L 1435.2900385611422 155.48983101580265 L 1435.1583428879571 155.57971509363435 L 1435.024665487888 155.668999350617 L 1434.889019728563 155.75767485839935 L 1434.7514191744451 155.8457327495045 L 1434.6118775854752 155.93316421821672 L 1434.470408915696 156.019960521462 L 1434.3270273118562 156.10611297968236 L 1434.1817471119969 156.19161297770376 L 1434.0345828440172 156.27645196559763 L 1433.885549224221 156.36062145953588 L 1433.7346611558462 156.4441130426393 L 1433.5819337275739 156.5269183658191 L 1433.4273822120194 156.60902914861202 L 1433.271022064206 156.69043718000816 L 1433.1128689200177 156.77113431927225 L 1432.9529385946375 156.8511124967576 L 1432.7912470809642 156.9303637147131 L 1432.6278105480148 157.00888004808303 L 1432.4626453393064 157.08665364529944 L 1432.2957679712222 157.16367672906745 L 1432.1271951313597 157.23994159714286 L 1431.9569436768625 157.3154406231024 L 1431.7850306327343 157.39016625710642 L 1431.6114731901364 157.46411102665377 L 1431.436288704668 157.53726753732911 L 1431.259494694632 157.6096284735424 L 1431.0811088392818 157.6811865992602 L 1430.9011489770546 157.75193475872967 L 1430.7196331037865 157.82186587719377 L 1430.5365793709136 157.89097296159898 L 1430.3520060836565 157.95924910129438 L 1430.1659316991904 158.02668746872294 L 1429.9783748247985 158.0932813201041 L 1429.7893542160118 158.15902399610823 L 1429.598888774734 158.22390892252253 L 1429.40699754735 158.28792961090838 L 1429.2136997228233 158.3510796592503 L 1429.0190146307748 158.41335275259615 L 1428.8229617395516 158.4747426636884 L 1428.6255606542795 158.53524325358717 L 1428.4268311149024 158.59484847228381 L 1428.2267929942086 158.65355235930622 L 1428.0254662958437 158.71134904431452 L 1427.8228711523095 158.76823274768844 L 1427.619027822952 158.82419778110503 L 1427.4139566919334 158.87923854810757 L 1427.2076782661968 158.93334954466522 L 1427.0002131734125 158.98652535972343 L 1426.7915821599167 159.03876067574504 L 1426.5818060886372 159.0900502692419 L 1426.3709059370062 159.1403890112975 L 1426.1589027948633 159.1897718680795 L 1425.9458178623456 159.2381939013434 L 1425.7316724477691 159.28565026892625 L 1425.516487965497 159.3321362252308 L 1425.3002859337978 159.3776471217002 L 1425.0830879726946 159.42217840728267 L 1424.8649158018025 159.46572562888682 L 1424.645791238157 159.50828443182675 L 1424.4257361940317 159.54985056025762 L 1424.2047726747476 159.59041985760126 L 1423.9829227764726 159.62998826696173 L 1423.7602086840116 159.66855183153106 L 1423.5366526685882 159.70610669498492 L 1423.3122770856176 159.7426491018683 L 1423.0871043724712 159.7781753979709 L 1422.8611570462328 159.81268203069277 L 1422.6344577014468 159.84616554939936 L 1422.4070290078582 159.8786226057667 L 1422.1788937081476 159.91004995411626 L 1421.950074615654 159.94044445173932 L 1421.7205946120969 159.9698030592115 L 1421.4904766452848 159.99812284069648 L 1421.2597437268228 160.02540096423974 L 1421.0284189298104 160.05163470205162 L 1420.7965253865345 160.07682143078023 L 1420.5640862861565 160.1009586317737 L 1420.3311248723924 160.124043891332 L 1420.0976644411894 160.14607490094846 L 1419.8637283383964 160.16704945754043 L 1419.6293399574286 160.18696546366976 L 1419.3945227369286 160.20582092775246 L 1419.1593001584229 160.22361396425777 L 1418.9236957439732 160.2403427938969 L 1418.687733053825 160.25600574380084 L 1418.4514356840502 160.27060124768764 L 1418.2148272641891 160.28412784601906 L 1417.9779314548866 160.29658418614653 L 1417.7407719455261 160.30796902244649 L 1417.503372451861 160.3182812164447 L 1417.2657567136425 160.3275197369304 L 1417.0279484922469 160.3356836600593 L 1416.789971568298 160.34277216944577 L 1416.5518497392895 160.34878455624485 L 1416.3136068172062 160.35372021922285 L 1416.075266626142 160.35757866481762 L 1415.8368529999168 160.36035950718778 L 1415.5983897796953 160.36206246825142 L 1415.3599008116 160.36268737771385 L 1415.1214099443296 160.36223417308466 L 1414.8829410267717 160.3607028996839 L 1414.6445179056195 160.35809371063766 L 1414.4061644229864 160.3544068668627 L 1414.1679044140221 160.34964273704026 L 1413.9297617045288 160.3438017975794 L 1413.691760108579 160.33688463256917 L 1413.4539234261342 160.3288919337203 L 1413.2162754406643 160.31982450029608 L 1412.9788399167699 160.30968323903224 L 1412.7416405978051 160.29846916404645 L 1412.5047012035047 160.28618339673687 L 1412.2680454276103 160.27282716567004 L 1412.0316969355026 160.25840180645787 L 1411.7956793618337 160.2429087616243 L 1411.560016308164 160.2263495804609 L 1411.324731340603 160.20872591887195 L 1411.0898479874509 160.19003953920898 L 1410.8553897368477 160.17029231009434 L 1410.6213800344226 160.14948620623449 L 1410.3878422809514 160.1276233082225 L 1410.1547998300143 160.10470580232996 L 1409.9222759856627 160.08073598028832 L 1409.6902940000869 160.05571623905982 L 1409.4588770712921 160.02964908059778 L 1409.2280483407787 160.00253711159627 L 1408.997830891227 159.9743830432296 L 1408.7682477441906 159.9451896908812 L 1408.5393218577924 159.9149599738619 L 1408.3110761244304 159.88369691511826 L 1408.0835333684877 159.85140364093007 L 1407.8567163440505 159.8180833805979 L 1407.6306477326318 159.78373946611993 L 1407.4053501409048 159.74837533185905 L 1407.180846098441 159.7119945141992 L 1406.957158055457 159.67460065119184 L 1406.734308380571 159.63619748219207 L 1406.512319358565 159.59678884748485 L 1406.2912131881558 159.55637868790075 L 1406.0710119797766 159.51497104442208 L 1405.8517377533642 159.47257005777868 L 1405.633412436159 159.42917996803388 L 1405.4160578605108 159.38480511416049 L 1405.1996957616957 159.33944993360691 L 1404.9843477757433 159.29311896185345 L 1404.770035437273 159.24581683195862 L 1404.55678017734 159.197548274096 L 1404.3446033212924 159.14831811508117 L 1404.1335260866392 159.098131277889 L 1403.923569580928 159.0469927811614 L 1403.714754799634 158.9949077387054 L 1403.5071026240616 158.94188135898187 L 1403.3006338192554 158.88791894458456 L 1403.0953690319238 158.83302589170998 L 1402.8913287883743 158.77720768961765 L 1402.6885334924614 158.72046992008126 L 1402.4870034235457 158.6628182568305 L 1402.2867587344658 158.60425846498364 L 1402.0878194495244 158.54479640047106 L 1401.8902054624837 158.4844380094497 L 1401.6939365345777 158.4231893277083 L 1401.499032292536 158.361056480064 L 1401.3055122266198 158.29804567974986 L 1401.1133956886752 158.23416322779335 L 1400.9227018901954 158.16941551238642 L 1400.7334499004014 158.10380900824669 L 1400.5456586443345 158.03735027596986 L 1400.3593469009638 157.97004596137378 L 1400.1745333013084 157.9019027948339 L 1399.9912363265744 157.83292759060998 L 1399.8094743063061 157.76312724616503 L 1399.6292654165545 157.6925087414753 L 1399.4506276780583 157.62107913833242 L 1399.2735789544424 157.5488455796372 L 1399.0981369504316 157.47581528868528 L 1398.92431921008 157.4019955684449 L 1398.7521431150171 157.3273938008266 L 1398.581625882709 157.25201744594494 L 1398.4127845647363 157.17587404137262 L 1398.2456360450904 157.09897120138663 L 1398.080197038484 157.0213166162069 L 1397.91648408868 156.94291805122717 L 1397.7545135668365 156.8637833462387 L 1397.5943016698711 156.783920414646 L 1397.43586441884 156.70333724267567 L 1397.2792176573364 156.62204188857777 L 1397.1243770499054 156.54004248181994 L 1396.9713580804791 156.45734722227456 L 1396.8201760508268 156.37396437939864 L 1396.6708460790255 156.289902291407 L 1396.523383097948 156.2051693644384 L 1396.3778018537696 156.1197740717149 L 1396.234116904493 156.0337249526946 L 1396.0923426184938 155.9470306122177 L 1395.9524931730823 155.85969971964604 L 1395.8145825530867 155.77174100799607 L 1395.6786245494536 155.68316327306567 L 1395.5446327578707 155.59397537255452 L 1395.4126205774048 155.50418622517833 L 1395.2826012091646 155.41380480977702 L 1395.154587654978 155.32284016441682 L 1395.0285927160942 155.23130138548646 L 1394.9046289919017 155.13919762678756 L 1394.78270887867 155.0465380986192 L 1394.6628445683086 154.95333206685703 L 1394.5450480471486 154.85958885202652 L 1394.4293310947442 154.76531782837105 L 1394.3157052826941 154.67052842291443 L 1394.2041819734845 154.5752301145182 L 1394.094772319354 154.4794324329338 L 1393.9874872611763 154.38314495784954 L 1393.882337527368 154.2863773179327 L 1393.779333632815 154.18913918986664 L 1393.6784858778208 154.09144029738312 L 1393.5798043470766 153.99329041028997 L 1393.4832989086538 153.89469934349412 L 1393.388979213015 153.79567695602012 L 1393.2968546920522 153.6962331500241 L 1393.20693455814 153.59637786980392 L 1393.119227803217 153.4961211008043 L 1393.0337431978858 153.3954728686186 L 1392.9504892905354 153.29444323798623 L 1392.8694744064876 153.193042311786 L 1392.7907066471628 153.09128023002603 L 1392.7141938892714 152.9891671688297 L 1392.6399437840257 152.8867133394181 L 1392.567963756374 152.7839289870887 L 1392.4982610042593 152.6808243901911 L 1392.4308424978988 152.57740985909913 L 1392.3657149790868 152.47369573517966 L 1392.302884960521 152.36969238975868 L 1392.2423587251508 152.26541022308405 L 1392.1841423255494 152.16085966328555 L 1392.128241583308 152.056051165332 L 1392.0746620884545 151.9509952099859 L 1392.023409198894 151.84570230275523 L 1391.9744880398719 151.74018297284294 L 1391.9279035034642 151.63444777209415 L 1391.883660248085 151.52850727394073 L 1391.8417626980238 151.4223720723443 L 1391.802215043 151.31605278073653 L 1391.7650212377464 151.20956003095796 L 1391.7301850016124 151.1029044721949 L 1391.6977098181928 150.99609676991426 L 1391.6675989349787 150.8891476047973 L 1391.6398553630336 150.78206767167143 L 1391.6144818766911 150.6748676784407 L 1391.5914810132792 150.5675583450151 L 1391.5708550728648 150.46015040223858 L 1391.5526061180246 150.35265459081586 L 1391.5367359736392 150.24508166023855 L 1391.5232462267097 150.13744236771007 L 1391.5121382261996 150.0297474770699 L 1391.5034130828994 149.92200775771744 L 1391.4970716693165 149.8142339835348 L 1391.4931146195868 149.70643693180958 L 1391.4915423294121 149.59862738215716" stroke-miterlimit="10" stroke-width="2.7769845610000004" stroke-dasharray=""/></g><g><g/><text fill="black" stroke="none" font-family="sans-serif" font-size="11pt" font-style="normal" font-weight="normal" text-decoration="normal" x="1383.96296395359" y="177.890363937" text-anchor="start" dominant-baseline="alphabetic" xml:space="preserve">Database</text></g></g><g><path fill="white" stroke="black" paint-order="fill stroke markers" d=" M 186.79609290387242 236.697095817 L 203.1312962038724 236.697095817 L 203.1312962038724 1631.88680967 L 186.79609290387242 1631.88680967 L 186.79609290387242 236.697095817" stroke-miterlimit="10" stroke-width="1.3612669416666667" stroke-dasharray=""/><path fill="white" stroke="black" paint-order="fill stroke markers" d=" M 549.4303221703698 421.774949206 L 565.7655254703699 421.774949206 L 565.7655254703699 1469.188184802 L 549.4303221703698 1469.188184802 L 549.4303221703698 421.774949206" stroke-miterlimit="10" stroke-width="1.3612669416666667" stroke-dasharray=""/><path fill="white" stroke="black" paint-order="fill stroke markers" d=" M 672.1076538750222 475.681120096 L 688.4428571750223 475.681120096 L 688.4428571750223 1240.4953386019997 L 672.1076538750222 1240.4953386019997 L 672.1076538750222 475.681120096" stroke-miterlimit="10" stroke-width="1.3612669416666667" stroke-dasharray=""/><path fill="white" stroke="black" paint-order="fill stroke markers" d=" M 1073.6189316265768 529.587290986 L 1089.954134926577 529.587290986 L 1089.954134926577 1240.4953386019997 L 1073.6189316265768 1240.4953386019997 L 1073.6189316265768 529.587290986" stroke-miterlimit="10" stroke-width="1.3612669416666667" stroke-dasharray=""/><path fill="white" stroke="black" paint-order="fill stroke markers" d=" M 809.0872680422722 1274.7992655319997 L 825.4224713422723 1274.7992655319997 L 825.4224713422723 1331.9724770819998 L 809.0872680422722 1331.9724770819998 L 809.0872680422722 1274.7992655319997" stroke-miterlimit="10" stroke-width="1.3612669416666667" stroke-dasharray=""/><path fill="white" stroke="black" paint-order="fill stroke markers" d=" M 954.2129011914558 1366.2764040119998 L 970.5481044914559 1366.2764040119998 L 970.5481044914559 1469.188184802 L 954.2129011914558 1469.188184802 L 954.2129011914558 1366.2764040119998" stroke-miterlimit="10" stroke-width="1.3612669416666667" stroke-dasharray=""/><g><text fill="black" stroke="none" font-family="sans-serif" font-size="11pt" font-style="normal" font-weight="normal" text-decoration="normal" x="113.77747487093035" y="230.16301449699998" text-anchor="start" dominant-baseline="alphabetic" xml:space="preserve"></text></g><g><path fill="none" stroke="black" paint-order="fill stroke markers" d=" M 40.75885683798828 236.697095817 L 173.34677552020577 236.697095817" stroke-miterlimit="10" stroke-width="1.3612669416666667" stroke-dasharray=""/><g transform="translate(186.79609290387242,236.697095817) translate(-186.79609290387242,-236.697095817)"><path fill="black" stroke="none" paint-order="stroke fill markers" d=" M 173.18342348720574 229.89076110866665 L 186.79609290387242 236.697095817 L 173.18342348720574 243.50343052533333 Z"/></g></g><path fill="none" stroke="none"/><g><path fill="white" stroke="black" paint-order="fill stroke markers" d=" M 385.3820866067995 268.6324182685 L 471.3448586271745 268.6324182685 L 471.3448586271745 328.9093184455 L 385.3820866067995 328.9093184455 L 385.3820866067995 268.6324182685 Z" stroke-miterlimit="10" stroke-width="2.613632528" stroke-dasharray=""/></g><g><text fill="black" stroke="none" font-family="sans-serif" font-size="11pt" font-style="normal" font-weight="normal" text-decoration="normal" x="403.1057821872995" y="296.23891184549996" text-anchor="start" dominant-baseline="alphabetic" xml:space="preserve">Domain</text><text fill="black" stroke="none" font-family="sans-serif" font-size="11pt" font-style="normal" font-weight="normal" text-decoration="normal" x="408.8037115696237" y="312.57411514549995" text-anchor="start" dominant-baseline="alphabetic" xml:space="preserve">object</text></g><g><text fill="black" stroke="none" font-family="sans-serif" font-size="11pt" font-style="normal" font-weight="normal" text-decoration="normal" x="262.06629986480857" y="275.90158373699995" text-anchor="start" dominant-baseline="alphabetic" xml:space="preserve">validate &amp;</text><text fill="black" stroke="none" font-family="sans-serif" font-size="11pt" font-style="normal" font-weight="normal" text-decoration="normal" x="262.06629986480857" y="292.23678703699994" text-anchor="start" dominant-baseline="alphabetic" xml:space="preserve">translate</text></g><g><path fill="none" stroke="black" paint-order="fill stroke markers" d=" M 203.1312962038724 298.770868357 L 371.9327692231328 298.770868357" stroke-miterlimit="10" stroke-width="1.3612669416666667" stroke-dasharray=""/><g transform="translate(385.3820866067995,298.770868357) translate(-385.3820866067995,-298.770868357)"><path fill="black" stroke="none" paint-order="stroke fill markers" d=" M 371.7694171901328 291.96453364866665 L 385.3820866067995 298.770868357 L 371.7694171901328 305.5772030653333 Z"/></g></g><g><text fill="black" stroke="none" font-family="sans-serif" font-size="11pt" font-style="normal" font-weight="normal" text-decoration="normal" x="315.74738441042973" y="369.50229864599993" text-anchor="start" dominant-baseline="alphabetic" xml:space="preserve"></text></g><g><path fill="none" stroke="black" paint-order="fill stroke markers" d=" M 428.363472616987 376.03637996599997 L 216.58061358753906 376.03637996599997" stroke-miterlimit="10" stroke-width="1.3612669416666667" stroke-dasharray=""/><g transform="translate(203.1312962038724,376.03637996599997) translate(-203.1312962038724,-376.03637996599997)"><path fill="black" stroke="none" paint-order="stroke fill markers" d=" M 216.7439656205391 369.23004525766663 L 203.1312962038724 376.03637996599997 L 216.7439656205391 382.8427146743333 Z"/></g></g><g><path fill="none" stroke="black" paint-order="fill stroke markers" d=" M 413.661789646987 361.334696996 L 443.065155586987 390.73806293599995 M 443.065155586987 361.334696996 L 413.661789646987 390.73806293599995" stroke-miterlimit="10" stroke-width="2.613632528" stroke-dasharray=""/></g><g><text fill="black" stroke="none" font-family="sans-serif" font-size="11pt" font-style="normal" font-weight="normal" text-decoration="normal" x="376.2808091871211" y="415.24086788599993" text-anchor="start" dominant-baseline="alphabetic" xml:space="preserve"></text></g><g><path fill="none" stroke="black" paint-order="fill stroke markers" d=" M 203.1312962038724 421.774949206 L 535.9810047867031 421.774949206" stroke-miterlimit="10" stroke-width="1.3612669416666667" stroke-dasharray=""/><g transform="translate(549.4303221703698,421.774949206) translate(-549.4303221703698,-421.774949206)"><path fill="black" stroke="none" paint-order="stroke fill markers" d=" M 535.8176527537031 414.96861449766664 L 549.4303221703698 421.774949206 L 535.8176527537031 428.5812839143333 Z"/></g></g><g><text fill="black" stroke="none" font-family="sans-serif" font-size="11pt" font-style="normal" font-weight="normal" text-decoration="normal" x="618.9365896726961" y="460.97943712599994" text-anchor="start" dominant-baseline="alphabetic" xml:space="preserve"></text></g><g><path fill="none" stroke="black" paint-order="fill stroke markers" d=" M 565.7655254703699 459.345916796 L 658.8142575665471 473.6391228696504" stroke-miterlimit="10" stroke-width="1.3612669416666667" stroke-dasharray=""/><g transform="translate(672.1076538750222,475.681120096) rotate(8.732938208308182,0,0) translate(-672.1076538750222,-475.681120096)"><path fill="black" stroke="none" paint-order="stroke fill markers" d=" M 658.4949844583555 468.87478538766663 L 672.1076538750222 475.681120096 L 658.4949844583555 482.4874548043333 Z"/><g transform="rotate(-8.732938208308182,0,0)"/></g></g><g><text fill="black" stroke="none" font-family="sans-serif" font-size="11pt" font-style="normal" font-weight="normal" text-decoration="normal" x="881.0308944007995" y="514.885608016" text-anchor="start" dominant-baseline="alphabetic" xml:space="preserve"></text></g><g><path fill="none" stroke="black" paint-order="fill stroke markers" d=" M 688.4428571750223 513.252087686 L 1060.1816928088738 529.0174216653513" stroke-miterlimit="10" stroke-width="1.3612669416666667" stroke-dasharray=""/><g transform="translate(1073.6189316265768,529.587290986) rotate(2.428441828376672,0,0) translate(-1073.6189316265768,-529.587290986)"><path fill="black" stroke="none" paint-order="stroke fill markers" d=" M 1060.0062622099101 522.7809562776666 L 1073.6189316265768 529.587290986 L 1060.0062622099101 536.3936256943333 Z"/><g transform="rotate(-2.428441828376672,0,0)"/></g></g><path fill="none" stroke="none"/><g><path fill="white" stroke="black" paint-order="fill stroke markers" d=" M 1189.7422771575666 599.5836371265 L 1255.8697220295041 599.5836371265 L 1255.8697220295041 643.5253340035 L 1189.7422771575666 643.5253340035 L 1189.7422771575666 599.5836371265 Z" stroke-miterlimit="10" stroke-width="2.613632528" stroke-dasharray=""/></g><g><text fill="black" stroke="none" font-family="sans-serif" font-size="11pt" font-style="normal" font-weight="normal" text-decoration="normal" x="1207.4659727380665" y="627.1901307035" text-anchor="start" dominant-baseline="alphabetic" xml:space="preserve">DTO</text></g><g><text fill="black" stroke="none" font-family="sans-serif" font-size="11pt" font-style="normal" font-weight="normal" text-decoration="normal" x="1111.7344059932436" y="615.020404245" text-anchor="start" dominant-baseline="alphabetic" xml:space="preserve">translate</text></g><g><path fill="none" stroke="black" paint-order="fill stroke markers" d=" M 1089.954134926577 621.554485565 L 1176.2929597738998 621.554485565" stroke-miterlimit="10" stroke-width="1.3612669416666667" stroke-dasharray=""/><g transform="translate(1189.7422771575666,621.554485565) translate(-1189.7422771575666,-621.554485565)"><path fill="black" stroke="none" paint-order="stroke fill markers" d=" M 1176.1296077409 614.7481508566667 L 1189.7422771575666 621.554485565 L 1176.1296077409 628.3608202733334 Z"/></g></g><g><text fill="black" stroke="none" font-family="sans-serif" font-size="11pt" font-style="normal" font-weight="normal" text-decoration="normal" x="1156.380067260056" y="684.118314204" text-anchor="start" dominant-baseline="alphabetic" xml:space="preserve"></text></g><g><path fill="none" stroke="black" paint-order="fill stroke markers" d=" M 1222.8059995935353 690.652395524 L 1103.4034523102437 690.652395524" stroke-miterlimit="10" stroke-width="1.3612669416666667" stroke-dasharray=""/><g transform="translate(1089.954134926577,690.652395524) translate(-1089.954134926577,-690.652395524)"><path fill="black" stroke="none" paint-order="stroke fill markers" d=" M 1103.5668043432436 683.8460608156666 L 1089.954134926577 690.652395524 L 1103.5668043432436 697.4587302323333 Z"/></g></g><g><text fill="black" stroke="none" font-family="sans-serif" font-size="11pt" font-style="normal" font-weight="normal" text-decoration="normal" x="1236.3518981339312" y="729.8568834439999" text-anchor="start" dominant-baseline="alphabetic" xml:space="preserve">store</text></g><g><path fill="none" stroke="black" paint-order="fill stroke markers" d=" M 1089.954134926577 736.3909647639999 L 1401.8915915162122 736.3909647639999" stroke-miterlimit="10" stroke-width="1.3612669416666667" stroke-dasharray=""/><g transform="translate(1415.340908899879,736.3909647639999) translate(-1415.340908899879,-736.3909647639999)"><path fill="black" stroke="none" paint-order="stroke fill markers" d=" M 1401.7282394832123 729.5846300556666 L 1415.340908899879 736.3909647639999 L 1401.7282394832123 743.1972994723333 Z"/></g></g><g><text fill="black" stroke="none" font-family="sans-serif" font-size="11pt" font-style="normal" font-weight="normal" text-decoration="normal" x="1252.647521913228" y="775.5954526839998" text-anchor="start" dominant-baseline="alphabetic" xml:space="preserve"></text></g><g><path fill="none" stroke="black" paint-order="fill stroke markers" d=" M 1415.340908899879 782.1295340039999 L 1103.4034523102437 782.1295340039999" stroke-miterlimit="10" stroke-width="1.3612669416666667" stroke-dasharray="6.53408132"/><g transform="translate(1089.954134926577,782.1295340039999) translate(-1089.954134926577,-782.1295340039999)"><path fill="black" stroke="none" paint-order="stroke fill markers" d=" M 1103.5668043432436 775.3231992956665 L 1089.954134926577 782.1295340039999 L 1103.5668043432436 788.9358687123332 Z"/></g></g><g><path fill="none" stroke="black" paint-order="fill stroke markers" d=" M 1208.1043166235352 806.6323389539999 L 1237.5076825635354 836.0357048939999 M 1237.5076825635354 806.6323389539999 L 1208.1043166235352 836.0357048939999" stroke-miterlimit="10" stroke-width="2.613632528" stroke-dasharray=""/></g><g><text fill="black" stroke="none" font-family="sans-serif" font-size="11pt" font-style="normal" font-weight="normal" text-decoration="normal" x="1228.2058791519976" y="919.3452417239997" text-anchor="start" dominant-baseline="alphabetic" xml:space="preserve">retrieve</text></g><g><path fill="none" stroke="black" paint-order="fill stroke markers" d=" M 1089.954134926577 925.8793230439998 L 1401.8915915162122 925.8793230439998" stroke-miterlimit="10" stroke-width="1.3612669416666667" stroke-dasharray=""/><g transform="translate(1415.340908899879,925.8793230439998) translate(-1415.340908899879,-925.8793230439998)"><path fill="black" stroke="none" paint-order="stroke fill markers" d=" M 1401.7282394832123 919.0729883356664 L 1415.340908899879 925.8793230439998 L 1401.7282394832123 932.6856577523331 Z"/></g></g><g><text fill="black" stroke="none" font-family="sans-serif" font-size="11pt" font-style="normal" font-weight="normal" text-decoration="normal" x="1252.647521913228" y="965.0838109639997" text-anchor="start" dominant-baseline="alphabetic" xml:space="preserve"></text></g><g><path fill="none" stroke="black" paint-order="fill stroke markers" d=" M 1415.340908899879 971.6178922839997 L 1103.4034523102437 971.6178922839997" stroke-miterlimit="10" stroke-width="1.3612669416666667" stroke-dasharray="6.53408132"/><g transform="translate(1089.954134926577,971.6178922839997) translate(-1089.954134926577,-971.6178922839997)"><path fill="black" stroke="none" paint-order="stroke fill markers" d=" M 1103.5668043432436 964.8115575756664 L 1089.954134926577 971.6178922839997 L 1103.5668043432436 978.424226992333 Z"/></g></g><path fill="none" stroke="none"/><g><path fill="white" stroke="black" paint-order="fill stroke markers" d=" M 1272.204925329504 997.5091895144997 L 1358.167697349879 997.5091895144997 L 1358.167697349879 1057.7860896914997 L 1272.204925329504 1057.7860896914997 L 1272.204925329504 997.5091895144997 Z" stroke-miterlimit="10" stroke-width="2.613632528" stroke-dasharray=""/></g><g><text fill="black" stroke="none" font-family="sans-serif" font-size="11pt" font-style="normal" font-weight="normal" text-decoration="normal" x="1289.928620910004" y="1025.1156830915" text-anchor="start" dominant-baseline="alphabetic" xml:space="preserve">Domain</text><text fill="black" stroke="none" font-family="sans-serif" font-size="11pt" font-style="normal" font-weight="normal" text-decoration="normal" x="1295.6265502923281" y="1041.4508863915" text-anchor="start" dominant-baseline="alphabetic" xml:space="preserve">object</text></g><g><text fill="black" stroke="none" font-family="sans-serif" font-size="11pt" font-style="normal" font-weight="normal" text-decoration="normal" x="1152.9657300792123" y="1021.1135582829997" text-anchor="start" dominant-baseline="alphabetic" xml:space="preserve">translate</text></g><g><path fill="none" stroke="black" paint-order="fill stroke markers" d=" M 1089.954134926577 1027.6476396029998 L 1258.7556079458373 1027.6476396029998" stroke-miterlimit="10" stroke-width="1.3612669416666667" stroke-dasharray=""/><g transform="translate(1272.204925329504,1027.6476396029998) translate(-1272.204925329504,-1027.6476396029998)"><path fill="black" stroke="none" paint-order="stroke fill markers" d=" M 1258.5922559128373 1020.8413048946665 L 1272.204925329504 1027.6476396029998 L 1258.5922559128373 1034.453974311333 Z"/></g></g><g><text fill="black" stroke="none" font-family="sans-serif" font-size="11pt" font-style="normal" font-weight="normal" text-decoration="normal" x="1202.5702231331343" y="1098.379069892" text-anchor="start" dominant-baseline="alphabetic" xml:space="preserve"></text></g><g><path fill="none" stroke="black" paint-order="fill stroke markers" d=" M 1315.1863113396914 1104.9131512119998 L 1103.4034523102437 1104.9131512119998" stroke-miterlimit="10" stroke-width="1.3612669416666667" stroke-dasharray=""/><g transform="translate(1089.954134926577,1104.9131512119998) translate(-1089.954134926577,-1104.9131512119998)"><path fill="black" stroke="none" paint-order="stroke fill markers" d=" M 1103.5668043432436 1098.1068165036666 L 1089.954134926577 1104.9131512119998 L 1103.5668043432436 1111.719485920333 Z"/></g></g><g><path fill="none" stroke="black" paint-order="fill stroke markers" d=" M 1300.4846283696913 1129.4159561619995 L 1329.8879943096915 1158.8193221019997 M 1329.8879943096915 1129.4159561619995 L 1300.4846283696913 1158.8193221019997" stroke-miterlimit="10" stroke-width="2.613632528" stroke-dasharray=""/></g><g><text fill="black" stroke="none" font-family="sans-serif" font-size="11pt" font-style="normal" font-weight="normal" text-decoration="normal" x="881.0308944007995" y="1222.5266149719998" text-anchor="start" dominant-baseline="alphabetic" xml:space="preserve"></text></g><g><path fill="none" stroke="black" paint-order="fill stroke markers" d=" M 1073.6189316265768 1229.0606962919996 L 701.8921745586889 1229.0606962919996" stroke-miterlimit="10" stroke-width="1.3612669416666667" stroke-dasharray="6.53408132"/><g transform="translate(688.4428571750223,1229.0606962919996) translate(-688.4428571750223,-1229.0606962919996)"><path fill="black" stroke="none" paint-order="stroke fill markers" d=" M 702.0555265916889 1222.2543615836664 L 688.4428571750223 1229.0606962919996 L 702.0555265916889 1235.8670310003329 Z"/></g></g><g><text fill="black" stroke="none" font-family="sans-serif" font-size="11pt" font-style="normal" font-weight="normal" text-decoration="normal" x="687.4263967563211" y="1268.265184212" text-anchor="start" dominant-baseline="alphabetic" xml:space="preserve"></text></g><g><path fill="none" stroke="black" paint-order="fill stroke markers" d=" M 565.7655254703699 1274.7992655319997 L 795.6379506586055 1274.7992655319997" stroke-miterlimit="10" stroke-width="1.3612669416666667" stroke-dasharray=""/><g transform="translate(809.0872680422722,1274.7992655319997) translate(-809.0872680422722,-1274.7992655319997)"><path fill="black" stroke="none" paint-order="stroke fill markers" d=" M 795.4745986256055 1267.9929308236665 L 809.0872680422722 1274.7992655319997 L 795.4745986256055 1281.605600240333 Z"/></g></g><g><text fill="black" stroke="none" font-family="sans-serif" font-size="11pt" font-style="normal" font-weight="normal" text-decoration="normal" x="687.4263967563211" y="1314.003753452" text-anchor="start" dominant-baseline="alphabetic" xml:space="preserve"></text></g><g><path fill="none" stroke="black" paint-order="fill stroke markers" d=" M 809.0872680422722 1320.5378347719998 L 579.2148428540365 1320.5378347719998" stroke-miterlimit="10" stroke-width="1.3612669416666667" stroke-dasharray="6.53408132"/><g transform="translate(565.7655254703699,1320.5378347719998) translate(-565.7655254703699,-1320.5378347719998)"><path fill="black" stroke="none" paint-order="stroke fill markers" d=" M 579.3781948870366 1313.7315000636665 L 565.7655254703699 1320.5378347719998 L 579.3781948870366 1327.344169480333 Z"/></g></g><g><text fill="black" stroke="none" font-family="sans-serif" font-size="11pt" font-style="normal" font-weight="normal" text-decoration="normal" x="759.9892133309129" y="1359.742322692" text-anchor="start" dominant-baseline="alphabetic" xml:space="preserve"></text></g><g><path fill="none" stroke="black" paint-order="fill stroke markers" d=" M 565.7655254703699 1366.2764040119998 L 940.7635838077891 1366.2764040119998" stroke-miterlimit="10" stroke-width="1.3612669416666667" stroke-dasharray=""/><g transform="translate(954.2129011914558,1366.2764040119998) translate(-954.2129011914558,-1366.2764040119998)"><path fill="black" stroke="none" paint-order="stroke fill markers" d=" M 940.6002317747891 1359.4700693036666 L 954.2129011914558 1366.2764040119998 L 940.6002317747891 1373.082738720333 Z"/></g></g><g><text fill="black" stroke="none" font-family="sans-serif" font-size="11pt" font-style="normal" font-weight="normal" text-decoration="normal" x="759.9892133309129" y="1405.480891932" text-anchor="start" dominant-baseline="alphabetic" xml:space="preserve"></text></g><g><path fill="none" stroke="black" paint-order="fill stroke markers" d=" M 954.2129011914558 1412.014973252 L 579.2148428540365 1412.014973252" stroke-miterlimit="10" stroke-width="1.3612669416666667" stroke-dasharray="6.53408132"/><g transform="translate(565.7655254703699,1412.014973252) translate(-565.7655254703699,-1412.014973252)"><path fill="black" stroke="none" paint-order="stroke fill markers" d=" M 579.3781948870366 1405.2086385436667 L 565.7655254703699 1412.014973252 L 579.3781948870366 1418.8213079603331 Z"/></g></g><g><text fill="black" stroke="none" font-family="sans-serif" font-size="11pt" font-style="normal" font-weight="normal" text-decoration="normal" x="376.2808091871211" y="1451.2194611720001" text-anchor="start" dominant-baseline="alphabetic" xml:space="preserve"></text></g><g><path fill="none" stroke="black" paint-order="fill stroke markers" d=" M 549.4303221703698 1457.753542492 L 216.58061358753906 1457.753542492" stroke-miterlimit="10" stroke-width="1.3612669416666667" stroke-dasharray="6.53408132"/><g transform="translate(203.1312962038724,1457.753542492) translate(-203.1312962038724,-1457.753542492)"><path fill="black" stroke="none" paint-order="stroke fill markers" d=" M 216.7439656205391 1450.9472077836667 L 203.1312962038724 1457.753542492 L 216.7439656205391 1464.5598772003332 Z"/></g></g><path fill="none" stroke="none"/><g><path fill="white" stroke="black" paint-order="fill stroke markers" d=" M 302.91943843486195 1483.6448397225 L 369.04688330679943 1483.6448397225 L 369.04688330679943 1527.5865365994998 L 302.91943843486195 1527.5865365994998 L 302.91943843486195 1483.6448397225 Z" stroke-miterlimit="10" stroke-width="2.613632528" stroke-dasharray=""/></g><g><text fill="black" stroke="none" font-family="sans-serif" font-size="11pt" font-style="normal" font-weight="normal" text-decoration="normal" x="320.64313401536197" y="1511.2513332995" text-anchor="start" dominant-baseline="alphabetic" xml:space="preserve">DTO</text></g><g><text fill="black" stroke="none" font-family="sans-serif" font-size="11pt" font-style="normal" font-weight="normal" text-decoration="normal" x="224.91156727053905" y="1499.081606841" text-anchor="start" dominant-baseline="alphabetic" xml:space="preserve">translate</text></g><g><path fill="none" stroke="black" paint-order="fill stroke markers" d=" M 203.1312962038724 1505.6156881609998 L 289.4701210511953 1505.6156881609998" stroke-miterlimit="10" stroke-width="1.3612669416666667" stroke-dasharray=""/><g transform="translate(302.91943843486195,1505.6156881609998) translate(-302.91943843486195,-1505.6156881609998)"><path fill="black" stroke="none" paint-order="stroke fill markers" d=" M 289.30676901819527 1498.8093534526665 L 302.91943843486195 1505.6156881609998 L 289.30676901819527 1512.422022869333 Z"/></g></g><g><text fill="black" stroke="none" font-family="sans-serif" font-size="11pt" font-style="normal" font-weight="normal" text-decoration="normal" x="269.55722853735153" y="1568.1795168" text-anchor="start" dominant-baseline="alphabetic" xml:space="preserve"></text></g><g><path fill="none" stroke="black" paint-order="fill stroke markers" d=" M 335.9831608708307 1574.71359812 L 216.58061358753906 1574.71359812" stroke-miterlimit="10" stroke-width="1.3612669416666667" stroke-dasharray=""/><g transform="translate(203.1312962038724,1574.71359812) translate(-203.1312962038724,-1574.71359812)"><path fill="black" stroke="none" paint-order="stroke fill markers" d=" M 216.7439656205391 1567.9072634116667 L 203.1312962038724 1574.71359812 L 216.7439656205391 1581.5199328283331 Z"/></g></g><g><path fill="none" stroke="black" paint-order="fill stroke markers" d=" M 321.28147790083074 1560.0119151499998 L 350.6848438408307 1589.41528109 M 350.6848438408307 1560.0119151499998 L 321.28147790083074 1589.41528109" stroke-miterlimit="10" stroke-width="2.613632528" stroke-dasharray=""/></g><g><text fill="black" stroke="none" font-family="sans-serif" font-size="11pt" font-style="normal" font-weight="normal" text-decoration="normal" x="87.28858326936785" y="1613.9180860400002" text-anchor="start" dominant-baseline="alphabetic" xml:space="preserve">respond</text></g><g><path fill="none" stroke="black" paint-order="fill stroke markers" d=" M 186.79609290387242 1620.45216736 L 54.20817422165495 1620.45216736" stroke-miterlimit="10" stroke-width="1.3612669416666667" stroke-dasharray="6.53408132"/><g transform="translate(40.75885683798828,1620.45216736) translate(-40.75885683798828,-1620.45216736)"><path fill="black" stroke="none" paint-order="stroke fill markers" d=" M 54.37152625465495 1613.6458326516668 L 40.75885683798828 1620.45216736 L 54.37152625465495 1627.2585020683332 Z"/></g></g><g><g/><path fill="none" stroke="black" paint-order="fill stroke markers" d=" M 1016.4457200765769 554.090095936 L 1472.5141204498789 554.090095936 L 1472.5141204498789 1183.3221270519996 L 1016.4457200765769 1183.3221270519996 L 1016.4457200765769 554.090095936 Z" stroke-miterlimit="10" stroke-width="2.3336004714285714" stroke-dasharray=""/><path fill="white" stroke="black" paint-order="fill stroke markers" d=" M 1016.4457200765769 554.090095936 L 1016.4457200765769 573.692339896 L 1062.8049236736472 573.692339896 L 1072.6060456536472 563.891217916 L 1072.6060456536472 554.090095936 L 1016.4457200765769 554.090095936" stroke-miterlimit="10" stroke-width="2.3336004714285714" stroke-dasharray=""/><text fill="black" stroke="none" font-family="sans-serif" font-size="8.8pt" font-style="normal" font-weight="bold" text-decoration="normal" x="1032.780923376577" y="567.158258576" text-anchor="start" dominant-baseline="alphabetic" xml:space="preserve">alt</text><g><rect fill="white" stroke="none" x="1086.4909684586473" y="555.3969122" width="48.56154121460938" height="16.988611432000003"/></g><text fill="black" stroke="none" font-family="sans-serif" font-size="8.8pt" font-style="normal" font-weight="bold" text-decoration="normal" x="1088.9412489536473" y="567.158258576" text-anchor="start" dominant-baseline="alphabetic" xml:space="preserve">[upsert]</text><g><path fill="none" stroke="black" paint-order="fill stroke markers" d=" M 1016.4457200765769 860.5385098439998 L 1472.5141204498789 860.5385098439998" stroke-miterlimit="10" stroke-width="2.3336004714285714" stroke-dasharray="4.083800825"/></g><g/><g><rect fill="white" stroke="none" x="1086.4909684586473" y="861.8453261079998" width="30.307894364023436" height="16.988611432000003"/></g><text fill="black" stroke="none" font-family="sans-serif" font-size="8.8pt" font-style="normal" font-weight="bold" text-decoration="normal" x="1088.9412489536473" y="873.6066724839998" text-anchor="start" dominant-baseline="alphabetic" xml:space="preserve">[get]</text></g><g/></g><g/></g></svg>